<?xml version="1.0" standalone="no"?>
<!DOCTYPE svg PUBLIC "-//W3C//DTD SVG 1.1//EN" "http://www.w3.org/Graphics/SVG/1.1/DTD/svg11.dtd" >
<svg xmlns="http://www.w3.org/2000/svg" xmlns:xlink="http://www.w3.org/1999/xlink" version="1.1">
<metadata>
Created by FontForge 20200427 at Tue Apr  7 20:48:27 2015
 By www
By PintassilgoPrints, 2015. All Rights reserved. http://www.pintassilgoprints.com
</metadata>
<defs>
<font id="StabileW00-Regular" horiz-adv-x="433" >
  <font-face 
    font-family="StabileW00-Regular"
    font-weight="400"
    font-stretch="normal"
    units-per-em="1024"
    panose-1="2 0 5 3 0 0 0 0 0 0"
    ascent="819"
    descent="-205"
    x-height="572"
    cap-height="617"
    bbox="-642 -349 1282 946"
    underline-thickness="51"
    underline-position="-178"
    unicode-range="U+0020-E0A9"
  />
<missing-glyph horiz-adv-x="512" 
 />
    <glyph glyph-name=".notdef" horiz-adv-x="512" 
 />
    <glyph glyph-name="glyph1" horiz-adv-x="0" 
 />
    <glyph glyph-name="glyph2" horiz-adv-x="341" 
 />
    <glyph glyph-name="space" unicode=" " horiz-adv-x="278" 
 />
    <glyph glyph-name="exclam" unicode="!" horiz-adv-x="231" 
d="M66 592v24q0 83 30 103q8 6 18 6q13 0 22 -9t13.5 -26t6 -31t2.5 -36.5t2 -28.5q2 -17 3 -49t2 -42q3 -40 5 -185q0 -16 13 -109q2 -12 2 -20q0 -33 -6.5 -47.5t-28.5 -23.5q-8 -3 -16 -3q-21 1 -34 30q-19 42 -22 85q-3 32 -3.5 94t-2.5 90q-6 87 -6 178zM96 -7
q0 22 17.5 34.5t41.5 12.5q43 0 43 -66q0 -20 -15 -33.5t-35 -13.5q-52 0 -52 66z" />
    <glyph glyph-name="quotedbl" unicode="&#x22;" horiz-adv-x="310" 
d="M260 636q0 -14 -3.5 -36t-3.5 -34v-39q0 -49 -7 -82q-8 -25 -27 -25h-2q-9 0 -16 5t-10 11.5t-5 18t-2.5 19t-1 21.5t-0.5 19q-3 60 -3 64q0 3 0.5 9.5t0.5 9.5q1 26 3 42t12 31.5t29 15.5h2q34 -1 34 -50zM132 627q0 -12 -2 -32t-2 -32q0 -8 0.5 -26.5t0.5 -27.5v-10
q0 -46 -5 -76q-2 -11 -9 -19t-18 -8t-18 7.5t-11 22.5t-5.5 26t-2.5 31.5t-1 24.5q-6 54 -6 83v6q0 25 2 40.5t12 30t29 14.5q36 0 36 -54v-1z" />
    <glyph glyph-name="numbersign" unicode="#" horiz-adv-x="667" 
d="M487 671q19 0 19 -31q0 -13 -1.5 -26.5t-4 -29.5t-3.5 -25q0 -3 -9 -73h28q5 0 15.5 0.5t15.5 0.5h19h9q2 0 7 -0.5t7 -0.5q17 -3 30 -12.5t13 -26.5q0 -6 -1.5 -11t-3 -8t-6 -7t-6 -5t-7.5 -4.5t-7 -4.5l-6 -3q-17 -7 -54 -7h-7q-5 0 -15 -0.5t-15 -0.5h-28
q-2 -16 -6.5 -45t-6.5 -42h39h16q76 0 95 -21q8 -11 8 -19q0 -2 -0.5 -4t-0.5 -3l-1 -1l-1 -1q-9 -29 -73 -29h-30q-6 0 -38 -2q-3 0 -7.5 -1t-8.5 -1.5t-8 -0.5q-4 -27 -12 -79q-2 -11 -4.5 -32.5t-4.5 -32.5q-14 -75 -48 -75q-10 3 -11 3q-8 4 -14 21q-2 4 -2 6
q-1 5 -1 16v17q2 21 10 66q8 61 11 86h-7q-3 0 -8.5 -0.5t-7.5 -0.5h-13q-60 0 -91 1q-6 -70 -13 -104q-1 -5 -4 -28t-5 -34q-6 -36 -18 -42q-6 -2 -8 -2q-8 0 -15 7q-18 20 -18 58q0 1 0.5 3t0.5 3q0 31 6 103v15.5t1 15.5v7h-7q-5 0 -15 0.5t-15 0.5h-8q-37 0 -53 7
q-2 0 -6 2l-15 9t-10.5 12t-5.5 20q0 31 43 39q2 0 6.5 0.5t6.5 0.5h10h19q5 0 15.5 -0.5t15.5 -0.5q8 -1 25 -1q1 4 1 12v15q0 5 2 17q1 7 2.5 22t2.5 23q-65 5 -80 5q-65 0 -74 28q0 1 -0.5 1t-0.5 1q-1 2 -1 7q0 10 7 19q13 16 61 16h5h16q3 0 9 0.5t9 0.5q10 1 30 1h30
q2 13 5 39t5 40q6 69 18 98q10 20 22 22h4h7q18 0 26.5 -22.5t8.5 -47.5v-15q-7 -71 -13 -113q8 0 23 0.5t22 0.5q11 0 31.5 1t31.5 1h23q1 9 4.5 28t5.5 28q8 46 14 69q11 41 31 55q6 6 16 6zM273 396q-8 -59 -11 -83h19q11 0 31.5 -1t31.5 -1q7 0 22 -0.5t23 -0.5
q3 28 11 84q-23 -1 -67 -1h-14q-3 0 -8 0.5t-7 0.5t-6.5 0.5t-6.5 0.5q-12 0 -18 1z" />
    <glyph glyph-name="dollar" unicode="$" horiz-adv-x="459" 
d="M207 539q-15 -8 -32 -25q-2 -3 -7 -8.5t-8 -9t-6.5 -8.5t-5.5 -9.5t-3.5 -10.5t-1.5 -13q0 -55 46 -86q1 11 18 170zM267 711q30 -5 30 -43q0 -11 -1 -17q-1 -5 -1.5 -17t-2.5 -18q35 -4 50 -14q44 -30 47 -33q7 -6 21 -20q15 -13 15 -31q0 -26 -15 -37q-8 -6 -20 -6h-8
q-11 0 -18 6q-8 6 -19 26t-15 25q-22 25 -47 27q-7 -64 -23 -223q2 -2 6.5 -4.5t6.5 -3.5q8 -4 25 -16t27 -17q6 -3 26 -16q57 -32 57 -74q0 -28 -6 -41q-20 -52 -54 -74q-26 -21 -38 -29q-16 -9 -46 -21.5t-39 -16.5q-2 -16 -4 -24t-6 -22t-11.5 -21t-17.5 -7h-4
q-25 2 -25 53v12q-49 5 -83 21q-39 19 -39 51q0 18 10 28.5t25 10.5q10 0 21 -6q6 -3 19 -12.5t25 -14t28 -4.5q4 50 18 195q-8 3 -23.5 9t-23.5 9q-48 17 -64 31q-21 18 -21 51q0 31 17 63q2 4 7 12.5t7 12.5q11 22 34 47l12 17q12 13 25 24q3 2 9.5 6t9.5 6q7 5 22 15
l21 14q3 21 3 27q3 21 4.5 30t6.5 25t13.5 22.5t20.5 6.5h6zM234 100q17 5 33 31l9 12q0 1 1.5 2t1.5 2q1 8 1 27v27q0 11 -10 28q-1 2 -4 5.5t-4 5.5q-2 2 -6 7.5t-5 6.5q-4 -36 -10.5 -93.5t-6.5 -60.5z" />
    <glyph glyph-name="percent" unicode="%" horiz-adv-x="508" 
d="M365 3q-49 0 -80 24.5t-37 68.5v10q0 21 11 54q2 5 6.5 14t5.5 12q10 20 16 26q24 19 58 19q3 0 7 -0.5t7 -0.5q45 -4 60 -17q14 -11 35 -36q23 -28 23 -56q0 -23 -10 -43q-1 -2 -3.5 -6t-3.5 -6l-6 -15q-29 -35 -59 -45q-7 -3 -15 -3h-15zM388 91v12q0 34 -19 49l-2 2
h-3q-1 0 -3 0.5t-3 0.5h-1q-1 0 -15 -7q-24 -17 -24 -40q0 -20 23 -32h2q16 -2 23 -2q14 0 19 8zM37 567q0 23 10 43q1 2 3.5 6.5t3.5 6.5q5 13 6 14q29 35 59 45q8 3 15 3q2 0 8 0.5t8 0.5q33 0 61.5 -14t40.5 -37q10 -16 14 -43q0 -2 0.5 -5t0.5 -5q0 -18 -12 -54
q-2 -5 -6.5 -14t-5.5 -12q-10 -20 -16 -26q-24 -19 -58 -19q-3 0 -7 0.5t-7 0.5q-45 4 -60 17q-14 11 -35 36q-23 28 -23 56zM148 615q-16 0 -22 -18v-12q0 -33 19 -48l2 -2h4q1 0 2.5 -0.5t2.5 -0.5h1q3 0 15 6q25 18 25 41q0 19 -24 31h-2q-1 0 -10 1.5t-13 1.5zM374 677
q7 0 14 -7.5t9 -14.5q0 -1 0.5 -4t0.5 -4v-1q0 -2 -0.5 -4t-0.5 -4q-2 -20 -24 -79q-89 -215 -90 -219q-3 -9 -9 -26t-9 -26l-6 -19q-13 -41 -19 -54q-10 -23 -17 -41q-6 -15 -11 -35q-2 -5 -7 -15t-7 -16q-2 -8 -27 -68q-1 -1 -3.5 -6.5t-3.5 -7.5t-4 -6.5t-5.5 -6.5
t-6 -4.5t-7.5 -3.5t-9 -1h-1q-13 0 -21.5 11t-8.5 24v4q5 42 8 52q1 3 2.5 6.5t3.5 8t3 6.5q3 6 7 20t7 20q2 8 9 22t9 22q2 10 10 29t10 25q15 36 20 44q4 7 10.5 21.5t10.5 21.5l13 26l9 18q1 1 4.5 7t5.5 9q25 55 29 61q1 2 29.5 71.5t30.5 72.5q1 2 3.5 9t3.5 9t6 18.5
t11.5 25.5t17.5 9z" />
    <glyph glyph-name="ampersand" unicode="&#x26;" horiz-adv-x="431" 
d="M426 12q-5 -22 -25 -22q-39 0 -92 88v1q-49 -68 -121 -68q-26 0 -65 11q-111 31 -111 115q0 63 25 124t61 82q-27 31 -39.5 59t-16.5 75v16q0 70 57 132q31 32 84 32q84 0 132 -56q25 -28 25 -91q0 -17 -17.5 -49t-37.5 -39q-1 0 -3 -0.5t-3 -0.5q-11 0 -19.5 15.5
t-8.5 29.5q0 13 8.5 33.5t8.5 26.5q0 5 -1 6q-14 25 -49 31q-14 3 -27 3q-20 0 -35.5 -13t-19.5 -31q-6 -33 -6 -54q0 -28 10.5 -51t24.5 -38t41.5 -44t47.5 -56q8 -10 40 -55q15 51 17 55t6 14l6 15t7.5 9.5t12.5 4.5h1q32 0 40 -46q2 -7 2 -20q0 -22 -17 -63
q-12 -24 -21 -45q78 -115 78 -134v-2zM142 294q-1 -4 -15 -38t-23.5 -63t-9.5 -42v-4q1 -16 14 -31t27 -23q18 -7 37 -7q50 0 86 61q-35 46 -84 109q-16 21 -32 38z" />
    <glyph glyph-name="quotesingle" unicode="'" horiz-adv-x="185" 
d="M143 612q0 -12 -2 -31.5t-2 -31.5q0 -8 0.5 -26t0.5 -27v-12q0 -45 -5 -75q-1 -10 -14 -18.5t-24 -8.5t-18 7.5t-11 22.5t-5.5 26t-2.5 31.5t-1 24.5q-6 54 -6 83v6q0 25 2 40.5t12 30t29 14.5q21 0 34 -16.5t13 -38.5v-1z" />
    <glyph glyph-name="parenleft" unicode="(" horiz-adv-x="300" 
d="M212 -6q10 -14 22 -43q0 -1 1 -3q2 -4 2 -6t0.5 -4.5t0.5 -3.5q0 -29 -34 -29t-47 17q-12 16 -37.5 59.5t-31.5 61.5q-6 17 -28 92q-10 30 -16 92q-3 33 -3 34q0 5 0.5 16t0.5 17q5 103 9 128q16 95 61 192q2 3 5 10t4 10l12 21q4 8 14 23t14 22q4 6 16.5 22.5t18.5 26.5
q14 22 46 22q18 0 32 -8t14 -20q0 -1 -0.5 -2.5t-0.5 -2.5t-0.5 -3l-1 -4t-1.5 -3q-3 -4 -8.5 -11.5t-10 -13.5t-8.5 -11q-3 -5 -9 -14.5t-9 -14.5q-31 -52 -36 -63q-35 -79 -60 -190q-7 -49 -7 -132q0 -4 -0.5 -11t-0.5 -11q0 -9 2 -23q5 -46 11 -71q31 -123 64 -168z" />
    <glyph glyph-name="parenright" unicode=")" horiz-adv-x="265" 
d="M220 418q-1 -43 -7 -121q-3 -41 -38 -177q-6 -27 -27 -69.5t-25 -51.5q-11 -26 -13 -30q-4 -6 -14 -15.5t-13 -13.5q-9 -11 -22 -11t-23.5 9.5t-10.5 22.5q0 7 3 14q-1 2 -1 6t1 6q5 15 21.5 38t21.5 35q21 55 29 82q0 10 6 18q19 60 21 77q0 1 3 121q0 6 0.5 18t0.5 17
q0 96 -14 166q-4 21 -31.5 102t-27.5 98q0 5 2 6q14 22 39 22h2q8 0 15 -5.5t10 -10t8.5 -15t6.5 -11.5q40 -74 48 -112q29 -139 29 -215z" />
    <glyph glyph-name="asterisk" unicode="*" horiz-adv-x="355" 
d="M230 459q-15 0 -27 8t-16.5 14t-14.5 21q-4 -2 -9 -10t-6 -9q-4 -4 -14.5 -13.5t-14.5 -14.5q-15 -17 -29 -17q-13 0 -32 19q-9 9 -9 18q0 7 7 14q10 9 31.5 24t26.5 19q-49 8 -68 21q-10 7 -10 16q0 11 6 19t15 8q51 0 76 2v10q0 11 2 35q1 12 1.5 16.5t2.5 14.5t8 14
t15 4q34 0 40 -49q6 -42 6 -45v-2h5q8 0 23 -1t22 -1q45 -4 45 -33q0 -33 -54 -33h-15q32 -29 32 -45q0 -5 -1.5 -8t-4.5 -5t-5.5 -3t-8 -2t-7.5 -2q-10 -4 -18 -4z" />
    <glyph glyph-name="plus" unicode="+" horiz-adv-x="345" 
d="M72 290q7 2 56 8h7v5q2 90 45 90h2q34 -1 34 -51q0 -14 -5 -42q37 0 61 -9q30 -9 30 -31q0 -41 -68 -41h-25q-2 -55 -9 -86q-6 -25 -27 -25h-1q-11 0 -18 7.5t-10 22.5t-4 26.5t-1.5 30.5t-0.5 25q-9 0 -25 0.5t-20 0.5q-16 1 -33.5 12.5t-17.5 30.5q0 12 24 24q4 2 6 2z
" />
    <glyph glyph-name="comma" unicode="," horiz-adv-x="191" 
d="M37 -127q-10 0 -16.5 6.5t-6.5 16.5q0 5 2.5 10.5t6.5 11.5t5 8q9 22 19 67q1 9 1.5 25t0.5 21q0 45 23 59l15 6q4 2 8 2q24 0 34 -10q6 -5 8 -20v-4q0 -2 -0.5 -7t-0.5 -8q-2 -32 -9 -62q-8 -35 -47 -91q-21 -31 -43 -31z" />
    <glyph glyph-name="hyphen" unicode="-" horiz-adv-x="390" 
d="M108 326q12 0 32 -1t32 -1q8 0 26.5 -1t27.5 -1q48 0 86 -7q10 -2 18.5 -13.5t8.5 -22.5t-7.5 -18.5t-22.5 -11t-26 -5t-31 -2.5t-25 -1q-45 -5 -83 -5q-19 0 -31.5 1t-28 5t-23.5 13t-8 24q0 21 16.5 34t38.5 13z" />
    <glyph glyph-name="period" unicode="." horiz-adv-x="220" 
d="M168 94v-16q0 -44 -34 -67q-14 -8 -32 -8h-7q-23 4 -38 9l-15 12q-14 11 -17 33q0 2 -0.5 7t-0.5 7v4q0 46 37 73q13 13 32 13q1 0 1 -1h3q21 0 35 -9q36 -23 36 -57z" />
    <glyph glyph-name="slash" unicode="/" horiz-adv-x="321" 
d="M66 -25q-27 0 -33 26q0 2 -0.5 5.5t-0.5 5.5v1q0 2 0.5 4t0.5 3q13 77 40 158q15 51 27 107q6 41 13 56q2 8 37 122q4 13 17.5 47.5t17.5 56.5q2 7 5 23.5t6 28.5t8.5 25.5t14 20.5t20.5 7h2q5 0 11 -4l15 -12q13 -13 17 -27q0 -1 0.5 -4t0.5 -4v-6q0 -3 -0.5 -7.5
t-0.5 -5.5q-5 -27 -11 -43l-11 -34q-44 -138 -59 -175q-2 -5 -11.5 -30t-13.5 -39q-3 -13 -8.5 -36.5t-8.5 -36.5q-1 -3 -4 -16.5t-5 -19.5q-21 -66 -22 -72q-9 -48 -26 -93q-11 -32 -37 -32h-1z" />
    <glyph glyph-name="zero" unicode="0" horiz-adv-x="521" 
d="M476 285v-3q-4 -28 -8 -42q-1 -4 -3.5 -12t-3.5 -11q-8 -33 -28 -64l-9 -13l-3 -5l-12 -15q-5 -5 -13 -15q-1 -2 -3 -5.5t-4 -5.5q-26 -32 -47 -47q-15 -15 -30 -22l-15 -7q-2 -1 -8 -3.5t-9 -3.5q-12 -4 -28 -8q-20 -6 -28 -7h-2q-8 -2 -14 -2h-1q-11 0 -25 4h-3l-3 1
h-4q-2 0 -6 0.5t-7 1t-5 1.5q-4 1 -8 2.5t-8.5 4t-6.5 3.5q-8 4 -36 20q-44 25 -58 96q-1 3 -1 9t-1 9q0 2 -3 17q-4 24 -4 62q0 84 17 125q3 8 21 47l6 13q3 8 23 41q1 2 4 5.5t4 5.5l12 15l14 15q32 39 48 51q2 2 6.5 5.5t6.5 5.5q5 5 39 27q17 9 28 12l27 3q2 0 5 0.5
t5 0.5h6q13 0 19 -1q1 0 3.5 -0.5t3.5 -0.5q2 0 5 -0.5t4 -0.5q23 -2 34 -5q5 -2 15 -4.5t15 -4.5q20 -8 44.5 -41t32.5 -58q13 -48 13 -74q0 -1 -0.5 -5.5t-0.5 -6.5v-12q0 -37 -7 -75q-4 -13 -5 -23zM240 77h22q9 2 22.5 9t19.5 9q22 13 30 21q4 5 10 14t9 13q18 18 28 38
q32 80 36 101q1 5 1 16t-2 31v6q-1 7 -6 34.5t-8 40.5q-1 4 -3.5 11t-3.5 11q-6 14 -13 21l-1 2q-32 45 -78 45q-30 0 -55 -25q-4 -4 -13.5 -12t-12.5 -11q-8 -10 -17 -27q-4 -8 -16 -29.5t-18 -33.5l-9 -18q-18 -49 -27 -102q-3 -20 -3 -37q0 -47 24 -85q7 -9 23 -23
q25 -20 61 -20z" />
    <glyph glyph-name="one" unicode="1" horiz-adv-x="261" 
d="M56 465q-13 0 -29 16.5t-16 28.5q0 9 22 42q28 51 96 75q11 4 28 9h3l1 1h3q7 0 14 -5q23 -9 29.5 -22.5t8.5 -45.5q0 -2 0.5 -5t0.5 -4q0 -2 -0.5 -4t-0.5 -3q0 -20 -6 -60q-1 -10 -5 -34.5t-4 -40.5q0 -102 -6 -204l-4 -68q-1 -11 -2.5 -33t-2.5 -33l-4 -34
q-1 -7 -1 -20.5t-1 -21t-4 -16t-10 -13.5q-5 -5 -11 -5h-7q-4 0 -6 1h-2q-10 0 -27 24q-17 29 -17 95v57q0 10 2 32q2 45 7 120.5t7 120.5q3 74 4 83q0 2 1 7q-3 -2 -10.5 -7.5t-13.5 -10.5q-22 -22 -37 -22z" />
    <glyph glyph-name="two" unicode="2" horiz-adv-x="423" 
d="M139 126h16q23 0 42.5 2t45 6t39.5 6q1 0 9.5 1.5t13.5 1.5q11 0 17 -2q14 -4 28.5 -26t14.5 -39q0 -18 -21.5 -36t-36.5 -20q-66 -8 -114 -8h-16q-57 0 -97 -5q-4 0 -6 1h-2q-14 0 -24 10t-12 24q-5 40 -5 55q0 6 2 13t2 21q0 60 61 135.5t123 107.5q59 30 74 63
q12 30 12 48q0 54 -59 54q-31 0 -92.5 -18t-72.5 -18q-22 0 -26 25q-4 34 -4 39q0 23 28 38q10 6 17 7q33 4 102 4q48 0 81 -5q34 -5 62 -26.5t37 -50.5q2 -5 4 -29q2 -14 2 -24q0 -61 -21.5 -92.5t-68.5 -61.5q-155 -97 -155 -201z" />
    <glyph glyph-name="three" unicode="3" horiz-adv-x="458" 
d="M124 572q-21 0 -38 12t-18 29v1q-1 1 -1 2q0 21 15.5 36.5t36.5 17.5q63 7 64 7q92 0 155 -40q6 -3 16.5 -15t13.5 -15t18 -20q27 -32 27 -76v-2q0 -48 -38 -103q-7 -8 -20 -21q39 -45 52 -91q9 -34 9 -57v-14q-2 -21 -16 -57q-18 -45 -24 -54q-27 -39 -65 -72
q-48 -38 -101 -38q-8 0 -25.5 2t-25.5 2q-9 0 -36 5q-19 2 -68 17q-21 9 -26 15q-15 17 -15 36q0 24 20 42t44 18q12 0 38 -14q21 -12 38 -17q2 0 3.5 -1t2.5 -1q12 -4 19 -5h20q5 1 18.5 3t20.5 4l10 7q32 28 41 53q21 65 21 105v3q0 29 -4 38q-8 20 -27 35q-1 1 -3 1t-2 1
q-42 14 -73 14h-2q-46 0 -46 24q0 14 14.5 30.5t36.5 16.5q6 0 21 -1.5t22 -1.5h3q50 0 64 27q8 18 9 27v7q-2 25 -22 55l-9 9q-30 22 -56 26q-23 0 -52.5 -6t-59.5 -6z" />
    <glyph glyph-name="four" unicode="4" horiz-adv-x="424" 
d="M49 325q0 12 1.5 107.5t1.5 112.5q0 76 20 119l7 9q6 8 12 9q1 0 4 0.5t5 0.5l2 -1h2q16 -5 25.5 -20.5t12.5 -29t6 -41.5t5 -39q1 -7 3 -97t2 -95q0 -15 3 -33q31 5 63.5 8t44.5 6q4 1 14 1q0 9 -0.5 27t-0.5 27q0 45 -1 68q0 5 -0.5 16t-0.5 17q0 17 -1 26v8l1 72
q0 24 12 38.5t23 14.5h13q25 0 29 -5t7 -37q8 -172 8 -178q0 -4 0.5 -13.5t0.5 -14.5q0 -20 -1 -30q0 -9 -2 -29q0 -9 -1.5 -27.5t-1.5 -28.5v-31q0 -5 0.5 -15t0.5 -15q0 -8 -2 -26t-2 -27q0 -5 -1.5 -14t-1.5 -14v-25q0 -17 -1 -24q0 -2 -0.5 -5.5t-0.5 -4.5q-1 -9 -1 -29
q0 -14 -8 -36q-3 -11 -10.5 -21t-17.5 -10q-8 0 -13 4q-19 8 -30.5 39.5t-11.5 61.5v33q0 48 4 71v2v1l4 40v3q-120 -4 -123 -4l-2 1h-2q-2 0 -2 -2l-15 -1h-13q-53 0 -59 7q-8 6 -8 30v18q0 4 -1 12.5t-1 12.5z" />
    <glyph glyph-name="five" unicode="5" horiz-adv-x="390" 
d="M66 415q-1 1 -1 4q0 1 0.5 4t0.5 5q0 23 -1.5 62.5t-1.5 55.5v24q0 23 9 33q11 15 65.5 26.5t95.5 11.5q5 0 11 0.5t8 0.5h20q42 0 56 -15q2 -1 4.5 -4t4 -4t3.5 -3.5t3 -3.5l3 -3t2.5 -4t1.5 -4t1 -4.5t0.5 -5.5t0.5 -6q0 -24 -10.5 -30.5t-36.5 -6.5h-22q-5 0 -16.5 1
t-16.5 1q-84 0 -114 -12q-2 -1 -2 -51v-36v-17v-2v-8q0 -8 4 -8q70 -7 118.5 -48t66.5 -106q9 -32 9 -87v-7q0 -49 -23 -90q-4 -6 -9.5 -18t-11 -20.5t-12.5 -14.5q-54 -45 -109 -45q-33 0 -50 11q-19 12 -41 37t-32 52q-5 14 -5 58q0 15 7.5 27t20.5 12q10 0 24 -7
q13 -7 36 -46.5t32 -39.5q1 0 4 -0.5t5 -0.5q33 0 48 27q22 40 22 88q0 7 -2 15q-1 6 -3.5 22t-4 20.5t-7 15.5t-13.5 17t-22.5 15.5t-35.5 20.5q-2 1 -32 2.5t-32 4.5q-6 7 -9.5 15t-5.5 17.5t-3 15t-1.5 17.5t-0.5 15v4z" />
    <glyph glyph-name="six" unicode="6" horiz-adv-x="370" 
d="M335 146q0 -83 -38.5 -129t-116.5 -46q-39 0 -87 14q-14 5 -31 25t-21 37q-13 58 -14 106v14q0 41 7 79t14 59.5t24 67.5q0 1 1.5 4l2.5 5q1 4 22 64q30 79 33 85q4 6 9 20.5t8 20.5q5 8 15.5 31t17 32.5t23.5 19.5t41 10q36 0 36 -44q0 -13 -5 -26t-14 -28t-12 -21
q-19 -36 -21 -38q-6 -7 -16 -23.5t-15 -23.5q-9 -21 -14 -28q-15 -22 -16 -25q-5 -13 -15 -33t-13 -27q5 -3 28.5 -12.5t48.5 -19.5t29 -11q52 -21 69 -66q20 -54 20 -93zM181 55h14q48 0 48 90q0 28 -17 52q-7 7 -42 26q-49 22 -69 25v-1q-1 -19 -4.5 -56t-4.5 -55
q0 -1 -0.5 -4t-0.5 -4q0 -73 76 -73z" />
    <glyph glyph-name="seven" unicode="7" horiz-adv-x="411" 
d="M267 609q7 0 23.5 3.5t24.5 3.5q3 0 9 0.5t8 0.5q43 0 61 -24q10 -13 10 -29q0 -9 -3 -19.5t-5 -16t-8 -17.5l-7 -14q-8 -18 -26.5 -48t-23.5 -40q-1 -1 -65 -118q-10 -15 -18.5 -33.5t-17.5 -41.5t-15 -35q-4 -8 -10 -17q-1 -2 -2 -7t-2 -7q-2 -4 -7 -12.5t-7 -11.5
t-5 -9l-4 -8q-2 -3 -6.5 -9t-5.5 -8q-2 -3 -32 -60q-22 -37 -35.5 -50.5t-36.5 -14.5q-4 0 -11.5 2t-10.5 2q-16 1 -16 28q0 24 30 72q28 48 35 58q1 2 15.5 22t19.5 31q17 33 18 37q3 8 13 22t13 20q5 7 15 35q2 5 38 65q14 25 22.5 44t20.5 50.5t22 54.5q-3 0 -10.5 -0.5
t-10.5 -0.5q-5 -1 -14 -1t-13 -1q-23 -3 -69 -19.5t-77 -18.5h-3q-18 0 -31.5 11.5t-13.5 27.5q0 23 23 53q13 14 24 19q23 9 73 15l30 3q12 1 35.5 5.5t38.5 5.5z" />
    <glyph glyph-name="eight" unicode="8" horiz-adv-x="413" 
d="M69 78q-17 25 -25 117q-1 5 -1 14q0 45 23 75q7 9 32.5 30t36.5 27q-11 6 -30.5 20.5t-25.5 22.5q-2 3 -10 13t-11.5 15t-7 14.5t-3.5 19.5q0 11 3 23q11 43 18 56q26 55 46 75q25 27 63 40q37 11 55 11q27 0 59 -23q26 -17 38 -32q37 -52 38 -99v-18q0 -16 -5 -34
q-19 -67 -68 -101q39 -25 72 -145q6 -19 6 -39q0 -54 -40 -111q-10 -14 -49 -39q-26 -18 -49 -22q-8 -1 -20.5 -4t-18.5 -3q-12 0 -29 8q-34 16 -50 31t-47 58zM232 580q-1 0 -2.5 0.5t-2.5 0.5q-29 0 -43 -10.5t-26 -31.5q-14 -22 -14 -41t9.5 -41.5t20.5 -32.5
q36 -28 46 -33q30 19 38 38q7 21 10 59v15q0 77 -36 77zM206 80q34 18 50 39t16 56q0 71 -15 90q-16 19 -37 31q-19 -9 -49 -35q-7 -6 -19 -22.5t-15 -25.5q-14 -42 -14 -71q0 -28 12 -51q9 -16 43 -16q19 0 28 5z" />
    <glyph glyph-name="nine" unicode="9" horiz-adv-x="423" 
d="M197 288q-53 0 -75 11l-13 6q-52 27 -71 75q-12 26 -12 113v9q0 26 12.5 55.5t27.5 44.5q8 8 20 14t20 9t26 8t23 7q22 8 27 8q13 1 35 1q60 0 91 -40.5t42 -129.5q2 -16 3.5 -51t4.5 -53q2 -9 4 -35l4 -30q1 -12 3.5 -33t4 -38t1.5 -33l4 -68v-13v-16q1 -4 1 -10.5v-9.5
v-18v-12v-10v-4v-6q0 -3 -0.5 -7.5t-0.5 -6.5q-4 -12 -6 -17q-2 -7 -12.5 -13.5t-19.5 -6.5h-19q-6 0 -11 3.5t-8.5 10t-5.5 13t-3.5 17t-2.5 17t-2 17t-1 13.5q-1 12 -4 36.5t-4 37.5q-5 65 -5 95q0 34 -1 42q0 5 -2 17q-24 -18 -65 -19h-10zM255 428q0 6 -1 19.5
t-1.5 20.5t-2 19.5t-3 19.5t-4 16.5t-6 15t-8 11t-11 8t-14.5 2.5h-5q-39 -4 -53 -9q-15 -8 -28.5 -23.5t-14.5 -32.5q0 -1 -0.5 -5t-0.5 -6t-0.5 -8t-0.5 -9q0 -55 46 -75q13 -8 30 -10q4 0 11 -0.5t9 -0.5q11 0 24 4h2q8 0 19 5t12 10q2 4 2 13q0 3 -0.5 8t-0.5 7z" />
    <glyph glyph-name="colon" unicode=":" horiz-adv-x="280" 
d="M171 590q33 0 49.5 -20.5t16.5 -55.5q0 -72 -37 -96q-13 -8 -31 -8q-37 0 -58.5 21t-21.5 58t16 59q9 12 36 30q14 12 30 12zM48 106q0 37 15 62t46 25q27 0 54.5 -19.5t36.5 -42.5q10 -30 10 -40q0 -31 -40 -58q-14 -9 -31 -9q-44 0 -71 32q-20 23 -20 50z" />
    <glyph glyph-name="semicolon" unicode=";" horiz-adv-x="273" 
d="M203 380q0 -25 -18 -45q-26 -30 -64 -30q-15 0 -28 8q-36 25 -36 54q0 10 10 35q9 21 33 38.5t48 17.5q28 0 41.5 -22.5t13.5 -55.5zM57 -173q-9 0 -15 6t-6 16q0 7 7 18t7 12q11 30 13.5 85.5t5.5 75.5q7 37 13 43t21 10q1 0 3 1h2h1q1 0 3.5 -0.5t3.5 -0.5
q50 -12 63 -62q4 -13 4 -33q0 -39 -20 -72q-3 -6 -18 -23q-4 -5 -13 -18t-16.5 -22t-15.5 -15q-26 -21 -43 -21z" />
    <glyph glyph-name="less" unicode="&#x3c;" horiz-adv-x="361" 
d="M239 30q-13 0 -21 14l-1 1l-1 1q-10 12 -29.5 32.5t-29.5 32.5q-7 8 -19 26q-12 19 -50 59q-9 10 -29 28q-23 21 -23 45v1q0 18 12 30q6 7 19.5 21.5t19.5 21.5q5 7 11 14t14 15.5t12 13.5q2 2 13.5 18t18.5 24q5 6 14.5 17t13.5 16q1 1 14 17t21 24q1 1 15 19t25.5 26.5
t24.5 8.5h2q1 0 3.5 -0.5t3.5 -0.5q4 -2 10.5 -7.5t8.5 -6.5q12 -9 12 -19q0 -21 -28 -49q-1 -1 -22 -16q-7 -7 -17 -20.5t-14 -18.5q-5 -5 -15.5 -14t-14.5 -13q-5 -5 -14 -15.5t-12 -14.5q-8 -9 -26.5 -22.5t-25.5 -20.5l-1 -1v-1q-6 -11 -13 -19l-3 -3t-2 -3q8 -8 18 -24
q6 -8 21 -23q21 -21 24 -25q4 -4 10 -12.5t10 -12.5q15 -17 24 -25q35 -28 47 -40q21 -19 21 -34q0 -9 -19 -41q-15 -24 -33 -24z" />
    <glyph glyph-name="equal" unicode="=" horiz-adv-x="396" 
d="M206 436q31 0 61 -3h12q21 -1 44 -11t23 -25h1q0 -12 -16 -26q-5 -5 -30.5 -10t-31.5 -5q-41 0 -61 1q-59 0 -89 2q-52 2 -60 17q-1 2 -0.5 4.5t1.5 4.5t3 4.5t3 4.5q7 17 23 29t35 13q2 0 29 0.5t29 0.5t6.5 -0.5t6.5 -0.5h11zM111 284q12 0 31.5 3.5t32.5 3.5
q8 0 26.5 3.5t27.5 3.5q54 0 86 -6q9 -2 18 -17.5t9 -27.5q0 -11 -7.5 -18.5t-22.5 -11t-26 -5t-31 -2.5t-25 -1q-45 -5 -83 -5q-19 0 -31.5 1t-28 5t-23.5 13t-8 24q0 37 55 37z" />
    <glyph glyph-name="greater" unicode="&#x3e;" horiz-adv-x="352" 
d="M111 30q-6 0 -11.5 2.5t-10.5 8t-7.5 9t-7 12t-5.5 9.5q-11 22 -11 24q0 14 22 34q12 12 47 40q8 6 15 14.5t15.5 19.5t13.5 16q6 8 21.5 23.5t22.5 24.5q10 16 18 24q-2 4 -8.5 12.5t-8.5 12.5l-1 1l-1 1q-7 7 -25 20.5t-26 22.5q-3 4 -12 14.5t-14 15.5q-3 3 -13.5 12
t-15.5 15q-3 3 -14 17.5t-18 21.5q-21 15 -22 16q-13 13 -13 45q0 28 16 37h5q21 0 34 -13q21 -25 35 -40q7 -7 18 -21t16 -20t15.5 -17t14.5 -16q6 -7 17 -22.5t14 -19.5q4 -5 12 -13.5t14 -15.5t11 -14q6 -7 19 -21.5t19 -21.5q13 -13 13 -31q0 -24 -23 -45
q-20 -18 -29 -28q-38 -40 -50 -59q-15 -23 -18 -26q-10 -12 -31 -32.5t-30 -32.5l-1 -1v-1q-7 -14 -21 -14z" />
    <glyph glyph-name="question" unicode="?" horiz-adv-x="447" 
d="M161 61q52 0 52 -61q0 -60 -30 -78q-11 -7 -24 -7q-30 0 -47.5 17.5t-17.5 47.5q0 28 14 47q6 9 28 24q12 10 25 10zM201 161q-2 -18 -15 -31t-32 -13h-2q-18 1 -24.5 10.5t-14.5 43.5l-3 12q-6 24 -6 65q0 57 25 90q18 23 48 43.5t60 30.5q38 12 65 44q6 13 12 45v9.5
t1 9.5v12v7q-3 16 -19 40l-8 8q-8 6 -37 14h-17q-24 0 -46 -15q-4 -2 -12.5 -8.5t-13.5 -8.5l-12 -6l-18 -6q-15 -6 -36 -6q-9 0 -12 1q-12 0 -22.5 10t-10.5 22q-3 8 -3 14q0 16 12 30q20 23 54 36q16 8 39 8q1 0 23 3.5t33 3.5h30q38 0 62 -9t54 -29q10 -5 28 -34
q3 -6 8.5 -17.5t8.5 -16.5q9 -14 9 -45q0 -3 0.5 -8.5t0.5 -8.5q0 -25 -8.5 -59.5t-18.5 -51.5l-15 -21q-8 -11 -18 -18q-5 -5 -15.5 -12l-13.5 -9q-46 -30 -57 -35q-20 -9 -32.5 -24t-18.5 -40.5t-8 -37.5t-4 -42z" />
    <glyph glyph-name="at" unicode="@" horiz-adv-x="618" 
d="M315 210q-16 -16 -51 -28q-2 0 -5 -0.5t-4 -0.5q-58 9 -79 49q-11 29 -11 42q0 2 -0.5 7.5t-0.5 7.5q0 35 16.5 69.5t39.5 53.5q4 4 11.5 11t11.5 11q44 33 86 33q11 0 19 -2l9 10q14 2 21 2q28 0 37 -16q3 -5 3 -14v-6q0 -2 -1 -3.5t-1 -2.5q-3 -16 -24 -69
q-6 -14 -35 -116q0 -3 -0.5 -6.5t-0.5 -5.5t0.5 -4t0.5 -3v-1l2 -1q1 0 3 -0.5t3 -0.5q2 -1 6 -1q2 0 6 0.5t5 0.5q30 5 64 39q4 6 14 25l13 27q10 21 10 59q0 66 -28 114q-5 8 -37 24q-27 11 -52 11q-24 -4 -38 -4q-49 -8 -76 -14l-13 -4q-29 -5 -64 -36q-26 -23 -41 -50
q-26 -76 -26 -109q0 -39 4 -55l4 -13q4 -22 17 -57q19 -41 46.5 -63t77.5 -46q46 -19 76 -19q38 0 89 30q30 20 49 25q5 2 14 2q28 0 28 -26q0 -30 -33 -49l-26 -18q-64 -34 -146 -34q-34 0 -61 7q-28 3 -80 32q-22 13 -42 35q-4 6 -16.5 20.5t-20 25t-13.5 22.5q-2 5 -9 20
t-10 23t-7.5 22t-6.5 27t-2 28v16q0 5 0.5 17t0.5 17q0 19 9 71q12 62 30 95q2 4 4.5 8t6 8.5t5.5 7.5q33 49 58 64q3 1 44 16q41 18 95 31q32 7 62 7q49 0 91 -18q7 -3 31 -20q101 -68 101 -160v-30q0 -9 -7 -37q-6 -39 -24 -75.5t-42 -53.5q-21 -21 -53.5 -36t-65.5 -15
q-8 0 -12 1q-3 0 -9 2q-39 14 -47 44zM241 303q5 -22 10 -27h13q20 5 51 16q20 45 22 61q12 60 12 61q0 2 -1 2q-37 -3 -65.5 -26.5t-39.5 -55.5q-1 -1 -1 -3q0 -5 -0.5 -14.5t-0.5 -13.5z" />
    <glyph glyph-name="A" unicode="A" horiz-adv-x="521" 
d="M312 358h14q1 3 1 10t-2.5 14.5t-7 17.5t-5.5 13q-11 30 -34 62q-5 5 -14 5q-4 0 -12 -20t-15.5 -43t-9.5 -26q-6 -15 -9 -30v-2q24 -2 39 -2h18q6 0 18 0.5t19 0.5zM502 11q-2 -49 -37 -49h-2q-50 1 -61 80q-9 52 -9 55q-3 23 -13 62t-12 52q-4 20 -14 22q-11 2 -31 5.5
t-36.5 6t-34.5 2.5h-14q-6 0 -18.5 0.5t-19.5 0.5q-24 -4 -42 -15q-28 -46 -36 -69q-25 -69 -27 -83v-2q-2 -15 -8 -45q-8 -54 -47 -54h-2q-34 1 -40 48q-1 6 -1 16q0 18 5 35.5t14.5 41.5t12.5 33q10 30 64 160l13.5 31.5t15.5 38.5q4 14 14.5 37t13.5 30l12 30h1q2 6 7 17
t7 16q2 4 11 30t16.5 43.5t19 40t25 34.5t27.5 12h3q18 -1 32 -15t20 -30t13.5 -40.5t11.5 -33.5q7 -15 19 -47l4 -11q6 -15 16 -45.5t13 -38.5t7 -31t9 -33q3 -7 7.5 -25.5t8.5 -26.5q6 -13 12 -42.5t9 -39.5t7 -31.5t7 -31.5q4 -10 24 -81q3 -8 3 -28v-32z" />
    <glyph glyph-name="B" unicode="B" horiz-adv-x="442" 
d="M135 63q18 -8 46 -8q2 0 7 0.5t7 0.5q8 1 21 6.5t18 6.5q34 12 46 25q7 9 12 11q6 6 22 31q3 4 8.5 12t9.5 14.5t6 13.5q4 12 7 18l1 2v2l3 15v10l-3 16q-2 12 -5 15q-10 14 -22 24q-27 18 -77 18q-57 0 -82 -30q-2 -16 -8.5 -59t-8.5 -67l-3 -27q-5 -40 -5 -50zM169 473
q0 -5 -0.5 -15t-0.5 -15v-32q0 -13 -1.5 -31.5t-1.5 -22.5q1 1 7.5 -2.5t9.5 0.5q45 19 69.5 40t47.5 62q17 49 17 73v19q-5 17 -7 20q-20 28 -64 28h-6q-15 0 -26 -4t-17 -9t-16 -15l-4 -4l-4 -4q-1 -10 -1 -30q-1 -9 -1 -29t-1 -29zM31 37q0 17 3.5 47t3.5 46q0 21 1 31
l3 30q2 32 10 94t9 93q1 10 1 31t1 31l4 62q4 63 9 94q1 8 6 25q1 4 5 11.5t5 9.5q8 17 87 21q2 0 7 0.5t7 0.5h6q33 0 99 -25l12 -6q9 -6 11 -8q7 -4 13 -10t12.5 -15t9.5 -13q20 -31 20 -69v-13q-3 -36 -15 -63q-2 -5 -4.5 -10.5t-6 -12t-5.5 -9.5q-8 -15 -37 -54
q38 -14 65 -46q3 -3 18 -26q19 -29 19 -60q0 -2 -0.5 -6t-0.5 -6l-3 -33q-3 -14 -8 -28.5t-9 -23t-12 -23.5t-12 -23q-21 -38 -56 -62q-43 -31 -82 -42l-27 -9q-28 -10 -61 -12h-6q-4 0 -11.5 0.5t-11.5 0.5q-53 0 -63 21l-1 2v2l-6 12q-9 18 -9 40v3z" />
    <glyph glyph-name="C" unicode="C" horiz-adv-x="424" 
d="M302 590h9q1 0 4 -0.5t4 -0.5q21 0 34 -14.5t13 -35.5v-3q0 -26 -17.5 -45t-41.5 -25q-45 -11 -62 -22l-9 -6q-1 0 -3 -1.5t-3 -2.5q-3 -3 -11.5 -11t-13.5 -13q-4 -4 -16 -24q-6 -8 -14 -24q-1 -3 -4 -8t-4 -8q-5 -10 -17 -60q-2 -10 -2 -16q0 -4 -0.5 -10t-0.5 -10v-37
q8 -51 32 -75q36 -30 76 -30q3 0 11 0.5t12 0.5q3 0 25 4t31 4q44 0 50 -27v-3q1 -3 1 -5v-1q0 -1 -0.5 -4t-0.5 -4q-3 -10 -11 -18l-8 -8q-32 -30 -82 -30h-29q-50 0 -96 16q-16 7 -43 25q-34 21 -48 44q-19 31 -33 68q-9 28 -9 77q0 74 31 145q5 11 11 22l12 21
q6 12 26 38q26 31 55 50q7 6 21 16q2 1 7 5.5t8 5.5q47 28 53 30q28 10 53 10z" />
    <glyph glyph-name="D" unicode="D" horiz-adv-x="461" 
d="M430 392q0 -90 -33 -164q-23 -56 -52 -91v1q-4 -4 -8 -9.5t-8.5 -12.5t-7.5 -11q-4 -6 -32 -31q-36 -32 -62 -50q-49 -36 -93 -36q-42 0 -57 19q-1 2 -4 10q0 1 -0.5 3l-0.5 2q-13 72 -13 232v49q0 5 0.5 16t0.5 16q0 33 -4 108t-4 120v9q0 70 30 81q37 15 76 15
q77 0 163 -48q11 -6 20 -15t19 -22.5t15 -18.5q24 -28 39.5 -75t15.5 -97zM156 269q0 -10 -0.5 -31t-0.5 -30q0 -17 2 -48.5t2 -49.5q0 -3 0.5 -9.5t0.5 -9.5v-2v-3l1 -2q11 5 55 33q14 9 32.5 31.5t22.5 26.5q9 11 27 40q26 47 30 60q16 50 16 91v15q-8 67 -23 91
q-36 55 -48 67q-40 40 -97 40h-15q-1 0 -3 1v-21q2 -25 2 -77q0 -26 -1 -78t-1 -78q0 -21 -2 -57z" />
    <glyph glyph-name="E" unicode="E" 
d="M234 25h-7q-2 0 -7 -0.5t-8 -0.5q-2 0 -8 -0.5t-8 -0.5h-14q-5 0 -15 -1.5t-15 -1.5h-20q-2 0 -5.5 1t-4.5 1h-3q-31 4 -53 21t-22 45v16l1 5v25q0 13 2.5 36t2.5 34v13l1 3v17l1 5v4q0 2 0.5 8t0.5 8v6q0 4 0.5 12.5t0.5 12.5l1 7v3q0 3 0.5 9t0.5 9l1 31q1 6 1 16v15
v28q2 20 3 29q2 16 2 27q0 5 -1 17t-1 18q0 14 7 37q0 1 0.5 3.5t0.5 3.5q3 20 15 38t28 23q9 4 41 14q16 4 26 4h94q3 0 10 -0.5t11 -0.5q59 -3 93 -20q18 -9 22 -21q2 -4 2 -6q1 -2 1 -11v-2q0 -3 -5 -13q-13 -27 -73 -27h-71q-17 0 -45 -2h-2q-5 -1 -16 -1h-5q-1 0 -11 1
t-15 1q-7 0 -8 -1q-7 -7 -7 -44v-9q0 -2 0.5 -7.5t0.5 -8.5t3 -12h2q6 -1 17 -1h2l25 -1h6q17 0 45 -2q24 0 40.5 -10.5t16.5 -30.5q0 -53 -79 -59h-2l-3 -1h-6h-2q-2 -1 -3 -1h-1q-30 -3 -34 -3h-17q-16 -2 -22 -4q-1 -1 -3 -1q0 -1 -0.5 -1t-0.5 -1l-4 -12q-1 -7 -1 -24
v-7q0 -6 -0.5 -18t-0.5 -17q0 -3 -0.5 -13t-0.5 -15q0 -61 14 -75l1 -1l1 -1q2 -1 6 -1q9 0 29.5 -1.5t25.5 -1.5h18l20 -1q25 0 37 -1q66 0 66 -42q0 -29 -18 -48t-46 -19q-1 0 -4 -0.5t-4 -0.5h-7q-12 -1 -37 -1z" />
    <glyph glyph-name="F" unicode="F" horiz-adv-x="440" 
d="M188 438q12 0 38 3t39 3q10 0 24 -2q1 0 3 -0.5t4 -0.5q4 0 16.5 -1.5t17.5 -2t15 -2t14.5 -4t11 -6.5t10 -10t5.5 -13q1 -4 1 -13q0 -18 -8.5 -33.5t-20.5 -21.5q-19 -12 -69 -18q-7 -2 -58 -7t-71 -17v-28q0 -19 4 -49l6 -43l3 -31q1 -6 3.5 -16.5t2.5 -12.5
q2 -9 2 -30v-14q0 -2 0.5 -5t0.5 -5q0 -5 -6 -41q-5 -21 -14 -29q-10 -8 -22 -8h-7q-34 9 -45 28q-5 8 -6.5 17.5t-2.5 24.5t-1 19q0 6 -2 18t-2 18v20q0 3 -1 8t-1 7q-1 10 -2 21.5t-2 25.5t-2 22q0 3 -0.5 7t-0.5 7q-1 15 -5.5 47.5t-6.5 50.5l-3 30q0 5 0.5 15.5
t0.5 15.5q0 8 0.5 23t0.5 23v16q0 5 -1 15.5t-1 15.5q0 4 -0.5 14.5t-0.5 15.5t-0.5 13t-0.5 13q0 83 35 109q31 22 102 39q9 3 31 5h28q4 0 14 -0.5t14 -0.5q10 0 28 -2l28 -3q51 -5 60 -8q38 -13 38 -46q0 -45 -55 -71q-22 -8 -39 -8q-2 0 -6 0.5t-7 0.5h-6h-14h-7
q-9 0 -33.5 1.5t-39.5 1.5q-47 0 -66 -19v-13v-3q0 -43 6 -56q8 -20 29 -20z" />
    <glyph glyph-name="G" unicode="G" horiz-adv-x="520" 
d="M214 73q59 0 86.5 44.5t27.5 113.5q1 4 1 9q0 6 -1 10q0 15 -1 16q-4 2 -10 2q-4 0 -13 -1t-12 -1h-3q-7 1 -19.5 1.5t-20.5 2t-15 5.5q-4 2 -8 8.5t-8 16t-5 11.5q-5 7 -5 19q0 16 15 25.5t36 10.5q3 0 7 0.5t7 0.5q9 0 30 -1t30 -1h17q70 9 73 9q1 0 18 3.5t25 3.5
q33 0 33 -45q0 -13 -8 -20.5t-16.5 -10t-24 -4.5t-21.5 -4t-22 -4q-2 -6 -4 -22v-23q0 -4 -0.5 -5.5l-1 -3t-0.5 -5.5q-13 -136 -127 -220q-20 -16 -64 -16q-53 0 -100 43q-58 52 -74 186q-2 24 -2 37q0 39 1 57q1 45 30 118q63 149 177 192q21 8 56 8h19q50 -1 78 -41
q17 -23 17 -43q0 -22 -23 -49q-7 -7 -27 -7q-14 0 -26 4q-32 14 -66 14q-22 0 -40.5 -11t-26.5 -20.5t-22 -29.5q-14 -17 -22.5 -33.5t-12 -27t-12.5 -42.5q-6 -23 -15 -92q-3 -19 -3 -42v-9q4 -30 8.5 -50t15 -42t29 -33.5t45.5 -11.5z" />
    <glyph glyph-name="H" unicode="H" horiz-adv-x="473" 
d="M84 11q-39 6 -42 50v14q0 5 0.5 14.5t0.5 14.5q0 19 4.5 58t4.5 59q1 21 2 61.5t2 60.5q2 30 9 90t9 90q1 8 2 24.5t2 25.5t3 22t5 23t8 19q13 32 42 32l1 -1h1q12 0 30 -15q19 -16 19 -48q0 -18 -1 -27q-1 -5 -3.5 -15.5t-3.5 -15.5l-3 -28q0 -4 -2 -12l-3 -12l-3 -51
q0 -5 -0.5 -15t-0.5 -15q0 -3 0.5 -9t0.5 -9q0 -2 1 -6.5t2 -6.5q3 0 11 0.5t11 0.5h25h13h8q5 0 14.5 2t14.5 3q31 3 48 20v1h1q13 27 18 92t8 80q4 31 18 47q21 24 39 24q8 0 15 -4q17 -11 17 -37v-13q-1 -9 -2 -40.5t-3 -48.5q-2 -20 -2 -30q-5 -192 -16 -305
q-2 -20 -2 -30q-1 -3 -1 -9v-9v-14q0 -3 -2 -9q0 -5 -1 -8q-4 -52 -38 -52q-4 0 -12 2q-46 15 -46 123q0 5 0.5 15t0.5 15t-0.5 14.5t-0.5 14.5v10q0 17 -1 26q-6 -1 -18 -1h-35q-39 0 -69 -11q-15 -7 -16 -10q-1 0 -1 -1q-3 -7 -7 -30l-6 -28q-2 -15 -4.5 -48.5t-6.5 -58
t-12 -41.5q-11 -19 -17 -21q-8 -4 -18 -4h-5q-1 0 -3 0.5t-4 0.5z" />
    <glyph glyph-name="I" unicode="I" horiz-adv-x="220" 
d="M155 351q0 -21 4 -63t4 -62q0 -61 -3 -121q-2 -63 -7 -78q-13 -40 -43 -40q-23 0 -37 15.5t-17.5 32.5t-6.5 46q-2 16 -2 22q0 3 -0.5 11t-0.5 12q-1 10 -1 32v14q0 170 11 277q6 56 7 63q2 12 6.5 24t11 26.5t9.5 22.5q9 32 35 32h1q12 0 20.5 -11.5t8.5 -24.5
q1 -6 1 -20q0 -6 -0.5 -18t-0.5 -18q0 -7 -0.5 -20t-0.5 -20v-19q0 -5 0.5 -15.5t0.5 -15.5v-84z" />
    <glyph glyph-name="J" unicode="J" horiz-adv-x="396" 
d="M323 678q18 -12 18 -36l3 -18q4 -20 4 -33q0 -83 2 -101q0 -3 0.5 -8.5t0.5 -8.5v-43q0 -2 -0.5 -7t-0.5 -7q0 -145 -4 -220q-3 -44 -18 -90q-5 -18 -12 -30q-17 -31 -42 -49t-64 -33q-13 -7 -33 -7h-14q-61 10 -104.5 75.5t-43.5 140.5v4q0 16 1 23q0 1 0.5 4t0.5 5
q0 5 3.5 11.5t3.5 7.5q2 5 3 15t4 15.5t13 5.5h1l1 -1q46 -5 46 -77q0 -65 12.5 -98.5t52.5 -46.5q1 0 2.5 -0.5t2.5 -0.5q2 0 8 0.5t8 0.5q2 1 5.5 1t5.5 1q57 11 75 140q1 10 1 32v55q0 4 -1 12t-1 12q0 3 -0.5 8.5t-0.5 8.5q-1 6 -1.5 18t-1.5 18v8q-5 43 -7 124v60v53
q0 15 6 33q1 1 4 7l4.5 9t5 7t7.5 6t9 2h1q23 0 27 -3q2 -1 5 -4q1 0 1 -0.5t1 -0.5z" />
    <glyph glyph-name="K" unicode="K" horiz-adv-x="475" 
d="M170 324h-7q-1 0 -1 -2t-1 -3q-8 -20 -12.5 -47t-8 -61t-6.5 -52q-2 -14 -2 -21q0 -9 -2 -29t-3 -29q0 -4 -1.5 -22.5t-3 -26.5t-5.5 -20.5t-12.5 -17.5t-20.5 -5q-40 0 -40 57v1q0 20 2 58q0 19 1 59t2 59q0 10 2 30t2 29q0 19 1 29q0 6 2 16q0 2 0.5 4t0.5 4q2 10 4 77
q0 11 1 17v17v9t1 8v16v14v13q0 5 2 17v15q0 56 16 85q3 5 11 13l9 6q8 4 11 4h12q20 0 32 -16t14.5 -29t5.5 -42q1 -6 1 -8q2 -10 2 -18q0 -2 0.5 -5.5t0.5 -5.5v-18q0 -10 -0.5 -32.5t-0.5 -32.5q0 -5 -2 -13l2 2t2 1q7 5 22.5 18.5t18.5 16.5q2 1 17 13.5t23 17.5
q8 7 21.5 21t19.5 19q1 1 25 19l21 15q11 7 19 14l18 15q22 17 39 17h2q1 0 3.5 -0.5t3.5 -0.5q19 -3 24 -20v-5q0 -6 -2.5 -12t-5 -9.5t-8 -9t-6.5 -7.5q-2 -3 -7 -8.5t-7 -7.5q-10 -10 -41 -32l-22 -19q-25 -25 -48 -38q-31 -18 -53 -43q0 -1 -2 -2.5t-2 -2.5v-1
q31 -68 37 -77q52 -93 58 -105q24 -43 31 -53q20 -37 31 -67q9 -22 9 -41v-2q-1 -22 -11 -48.5t-25 -26.5q-3 0 -5 1t-4.5 2.5t-4.5 2.5q-18 6 -44 37q-11 14 -27 44t-23 41q-8 11 -18 37.5t-13 32.5q-7 15 -11 28l-15 46q-3 7 -10 26.5t-12 27.5q-2 4 -8.5 9t-7.5 6
q-7 7 -11 7z" />
    <glyph glyph-name="L" unicode="L" horiz-adv-x="464" 
d="M366 161q60 0 65 -41q0 -1 0.5 -3.5t0.5 -4.5v-11q0 -30 -12.5 -50.5t-36.5 -24.5q-5 -1 -14.5 -4t-12.5 -4l-15 -3l-34 -3q-42 0 -60 -2t-29 -2h-2q-5 0 -15.5 0.5t-15.5 0.5q-82 4 -103 16q-17 11 -22 25q-5 12 -5 35q0 22 -3.5 63t-3.5 61v5q0 4 0.5 13t0.5 13
q0 10 0.5 37t0.5 37t1 30.5t1 30.5l3 117q4 69 17 93q16 30 43 30h1q28 0 34 -36q0 -5 1 -15t1 -15q0 -2 0.5 -5.5t0.5 -5.5t-0.5 -8t-0.5 -9q-3 -50 -7 -222v-36q0 -6 -1 -8v-29q0 -6 -0.5 -18.5t-0.5 -18.5v-19q0 -1 2 -7h3q1 0 4 -0.5t4 -0.5h22l36 -1q8 0 25 -0.5
t25 -0.5h9q8 0 25.5 1t25.5 1h10q5 0 16 -0.5t16 -0.5z" />
    <glyph glyph-name="M" unicode="M" horiz-adv-x="587" 
d="M53 308q0 12 -1.5 34.5t-1.5 34.5q0 9 0.5 28t0.5 28q4 118 23 165q14 35 51 35q11 0 22 -4q18 -7 30 -21t25.5 -38.5t19.5 -32.5q2 -2 7.5 -10t8.5 -11q4 -5 28 -43q11 9 32.5 29t33.5 29q20 16 30 23t29.5 25t36.5 30t35 18q7 3 21 3h2q51 0 51 -63q0 -11 -3 -31.5
t-3 -27.5q-4 -58 -4 -87q0 -13 1.5 -39t1.5 -40q0 -72 -6 -198q-2 -54 -11 -75q-12 -29 -32 -29h-1q-12 1 -20 7t-12 19t-5.5 23t-2 28.5t-1.5 25.5q-2 10 -2 52v16q0 17 2 69t2 81q0 21 -5 109q-9 -10 -27.5 -27t-24.5 -23q-22 -22 -70 -66q-28 -25 -45 -25q-13 0 -23 7.5
t-19.5 20t-14.5 16.5q-11 8 -33.5 23.5t-33.5 23.5v-5q0 -9 -1 -29t-1 -30q0 -2 0.5 -7t0.5 -7q0 -10 0.5 -41t1.5 -48q1 -9 1 -30q0 -19 -2 -63v-25t-0.5 -27t-2 -23.5t-3.5 -24.5t-6.5 -19.5t-11.5 -17.5q-9 -11 -22 -11h-1q-44 0 -44 87q0 14 1 39.5t1 35.5v12
q0 7 -2.5 28t-2.5 32q0 10 1 31t1 31z" />
    <glyph glyph-name="N" unicode="N" horiz-adv-x="514" 
d="M347 272q0 26 -8 34l-1 1q-2 1 -7 5t-8 6q-49 36 -59 41q-5 3 -19.5 13.5t-22.5 14.5q-33 18 -40 21q-26 10 -29 11h-6q-1 0 -2.5 -0.5t-2.5 -0.5q-6 -17 -9.5 -40t-4.5 -35.5t-1 -48v-42.5q-3 -90 -11 -181q-1 -10 -10.5 -18.5t-20.5 -8.5q-16 0 -27 18.5t-11 37.5v6.5
v7.5v6q0 4 0.5 10t0.5 10q0 6 0.5 19t0.5 20v30q0 5 0.5 15t0.5 15q0 9 0.5 27.5t0.5 27.5q1 10 1 31t1 31q0 9 1.5 28.5t1.5 29.5q0 6 0.5 18t1 21.5t1.5 17.5q1 5 2 14.5t2 13.5q1 5 1 14t1 14q6 65 43 71h7q16 0 27 -8.5t21.5 -26.5t12.5 -21l15 -19q6 -5 16 -19t16 -19
q17 -13 38 -34q1 -1 5.5 -6.5t7.5 -7.5q6 -5 19 -11.5t19 -11.5q8 -6 12 -8l1 -1l1 -1h7q1 0 3 1l1 1l1 1q8 24 13 76.5t10 73.5q15 40 42 40q20 0 32 -11.5t12 -30.5q3 -18 3 -19v-17q0 -7 1.5 -23t1.5 -23v-109q0 -4 0.5 -12t0.5 -11q3 -30 3 -60v-30q0 -5 -0.5 -15
t-0.5 -15q0 -10 -1 -30t-1 -30q0 -48 -17 -118q-8 -66 -40 -66q-9 0 -23 9q-13 6 -21 29q-5 16 -6 20t-1 27v10q0 8 -1 24.5t-1 24.5v20q0 7 0.5 22.5t0.5 22.5q0 8 1 23t1 23v40z" />
    <glyph glyph-name="O" unicode="O" horiz-adv-x="555" 
d="M502 482q4 -8 8 -22q10 -28 10 -58q0 -5 -0.5 -14.5t-0.5 -14.5q-3 -52 -4 -60q-11 -61 -36 -109q-24 -53 -39 -73q-28 -39 -38 -51q-21 -24 -35.5 -38t-43 -28t-59.5 -14q-2 0 -5.5 0.5t-5.5 0.5q-37 5 -50 9l-15 6l1 -1q-16 7 -23 14q-56 42 -98 110.5t-42 143.5
q0 3 0.5 8t0.5 7q0 1 1 13t2 18q0 3 2 9.5t2 9.5q1 4 2 16t3 18q20 65 36 89q2 4 12 24.5t17 29.5q20 25 41 46q27 29 46 40q75 43 121 43q3 0 9.5 -0.5t9.5 -0.5q38 -6 48 -14q62 -39 88 -92q7 -15 20 -38t15 -27zM435 390q0 2 0.5 5.5t0.5 5.5q0 15 -9 42q-11 30 -40 67
q-26 33 -60 33q-20 0 -41 -11t-32.5 -21t-28.5 -28q-3 -4 -8.5 -13t-8.5 -13q-1 -3 -5 -8t-5 -7q-23 -37 -39 -95q-4 -14 -8 -66q0 -3 -0.5 -11t-0.5 -12t-1.5 -13t-0.5 -14q9 -50 29.5 -81t60.5 -45q16 -6 30 -6q6 0 11.5 1.5t10 3t9.5 5t8 5.5t8 8t7 8t8 9t7 9
q18 23 41 70q6 11 11 22l12 30q30 89 32 102q2 12 2 18z" />
    <glyph glyph-name="P" unicode="P" horiz-adv-x="395" 
d="M85 -2q-20 0 -32.5 12t-12.5 32q0 15 10 70q4 25 5 52t1.5 65.5t1.5 53.5q4 160 7 240q1 38 7 70q1 7 9 11q24 13 115 32q10 3 30 3q43 0 78 -23q55 -38 71 -96q5 -18 5 -34q0 -24 -7 -47t-13 -34.5t-20 -34.5q-20 -35 -54 -65q-17 -16 -54 -29q-32 -13 -68 -13h-4
q-3 0 -10 -0.5t-10 -0.5q-5 -148 -7 -161q-1 -9 -2 -27t-3 -28.5t-6 -23t-13 -18.5t-24 -6zM138 362q7 0 20.5 -2t20.5 -2q12 0 22 4t15 8t14 12.5t13 12.5q18 14 35 36q19 24 19 61v12q-5 24 -30.5 37t-56.5 13q-13 0 -21 -2.5t-11.5 -5t-10 -10.5t-10.5 -12
q-1 -2 -4.5 -5.5t-5.5 -6.5t-2 -6q-2 -24 -4.5 -81.5t-2.5 -62.5z" />
    <glyph glyph-name="Q" unicode="Q" horiz-adv-x="408" 
d="M336 6q-20 0 -27 16l-1 1v1q-5 5 -7 8t-3.5 5t-7.5 8q0 1 -1 1t-1 1l-9 -9q-3 -3 -12 -9.5t-12 -9.5q-37 -31 -74 -31q-43 0 -68 25q-58 58 -79 144q-5 17 -5 32v2q0 103 20 183q15 62 35 109q12 32 50 70q14 14 37 19q37 8 46 8q11 0 22 -2.5t26.5 -8.5t17.5 -7
q6 -2 20 -16q1 -2 3.5 -4t3.5 -4l16 -22q29 -44 34 -91l9 -75q1 -7 1 -19v-14q0 -5 -0.5 -21.5t-0.5 -21.5q-8 -92 -43 -161l3 -3l7 -7t12 -11q21 -19 21 -34q0 -4 -10 -24l-9 -16q-7 -12 -14 -12zM186 181q0 10 13 23t26 13q8 0 12 -4q5 -4 32 -36q1 1 2 4t2 4l10 19
q17 44 17 63v51q-5 69 -8 79q-5 19 -7 25q-2 4 -6.5 12t-6.5 11q-19 43 -40 43q-6 0 -12 -4t-10 -8.5t-11 -12.5t-10 -11l-9 -10q-2 -2 -12 -20q-1 -2 -3.5 -5.5t-3.5 -5.5q-31 -76 -31 -147q0 -6 -0.5 -31t-0.5 -31q0 -3 0.5 -9.5t0.5 -9.5q4 -30 8 -42q5 -13 17 -25
q27 -16 39 -16q10 0 27 6l12 4q1 1 3 1q-50 50 -50 70z" />
    <glyph glyph-name="R" unicode="R" horiz-adv-x="503" 
d="M333 718q49 -7 87.5 -45.5t38.5 -94.5q0 -14 -10 -79q-4 -30 -26.5 -58t-48.5 -42q-6 -3 -17.5 -8.5t-17.5 -8.5q3 -16 18.5 -38t19.5 -31q13 -21 31.5 -65t23.5 -55q9 -19 29 -81q1 -2 1 -13q0 -23 -7.5 -44t-23.5 -21q-40 0 -58 22q-11 13 -30 48q-2 3 -12 19t-14 25
q-5 12 -16 36t-16 38t-23 45q-26 46 -45 62q-24 21 -40 28q-4 -58 -4 -88q0 -10 0.5 -31t0.5 -31q0 -206 -54 -239q-8 -4 -16 -4q-20 0 -30.5 13t-12 25t-2.5 40q-8 184 -8 189q0 8 0.5 24.5t0.5 24.5v17q0 60 5.5 171t5.5 170q0 24 8 32q5 12 54 28q68 25 139 25
q37 0 69 -5zM213 443q36 0 78.5 26t55.5 53q15 35 15 48q0 41 -48 63q-19 8 -54 8q-46 0 -107 -40q-3 -36 -3 -72q0 -25 4 -61q3 -17 5 -18q16 -7 54 -7z" />
    <glyph glyph-name="S" unicode="S" horiz-adv-x="338" 
d="M54 327q-20 27 -20 79q0 39 9 66q21 49 51 81q32 35 56 52q25 19 46 19q10 0 22 -6q13 -5 13 -23q0 -22 -13 -39q-26 -32 -44 -43q-35 -22 -38 -67v-5q0 -31 25 -69q15 -24 27 -35q76 -69 100 -135q9 -22 9 -60q0 -73 -68 -117q-39 -25 -110 -25q-62 0 -80 30q-5 8 -5 17
q0 22 28 40q12 7 29 10q49 10 70 24q30 24 30 54v6q-3 18 -13 35q-4 5 -12.5 14t-11.5 12q-11 13 -24 24q-36 27 -57 44q-16 13 -19 17z" />
    <glyph glyph-name="T" unicode="T" horiz-adv-x="483" 
d="M110 517q-29 2 -44.5 6t-29 18t-13.5 39q0 21 12 43q7 20 27 25q1 0 3.5 1t3.5 1q41 11 111 17q2 0 8.5 0.5t9.5 0.5h11h6q42 5 54 5q25 0 65 4t61 4h13l5 -1h5h9h14q26 0 31 -8q6 -14 6 -37q0 -32 -7 -47q-5 -14 -16 -24.5t-25 -12.5q-8 -3 -17.5 -4t-21.5 -1t-19 -1
q-12 -2 -20 -2q-3 0 -9.5 -0.5t-9.5 -0.5q-33 0 -53 -4v-1q0 -2 -0.5 -7t-0.5 -7q0 -3 -2 -12.5t-2 -14.5q-2 -38 -2 -116q0 -10 -1 -31t-1 -31v-19q0 -7 0.5 -21t0.5 -21q0 -20 -2 -60v-31q0 -6 0.5 -17t0.5 -16v-54v-7q0 -65 -23 -70h-5q-15 0 -28 13l-7 14l-3 12
q-4 17 -4 54q0 4 0.5 12.5t0.5 13.5q1 32 3.5 133t4.5 156v29q0 43 -10 79q-16 -2 -24 -2h-35q-5 0 -15.5 0.5t-15.5 0.5z" />
    <glyph glyph-name="U" unicode="U" horiz-adv-x="393" 
d="M328 571q29 0 29 -49q0 -8 -0.5 -26t-0.5 -27q0 -40 -2 -60q-2 -23 -6 -85t-8 -93q-14 -109 -61 -152q-7 -6 -22 -17t-18 -13q-20 -16 -52 -16q-40 0 -56 11q-25 15 -52 68q-9 16 -15 34.5t-9 47.5t-4.5 42t-2.5 53t-1 47v13q0 29 5 171q0 41 6 57q5 13 25 31
q14 14 27 14q37 0 37 -67q0 -3 -0.5 -10t-0.5 -10q0 -4 0.5 -13t0.5 -13q0 -13 -1 -38t-1 -38q0 -14 2.5 -38.5t2.5 -37.5q0 -70 25 -137q15 -34 35 -41h5q8 0 13.5 2t10 7t6.5 8t5.5 11t4.5 11q30 70 30 186q0 78 4 115q7 52 39 52z" />
    <glyph glyph-name="V" unicode="V" horiz-adv-x="519" 
d="M29 523q0 32 27 32q22 0 41.5 -18t27.5 -39l12 -31q5 -13 16 -38t19.5 -45t13.5 -37q2 -4 25 -83q3 -8 16 -43.5t21 -54.5q2 -7 6 -25t8 -27q1 -2 4 -5q9 17 22 56.5t21 58.5q18 41 21 52q3 9 7.5 27.5t7.5 27.5q8 24 17 53q6 22 26 76.5t27 89.5q1 6 13 30q6 11 10 17
t13.5 12t21.5 6q23 0 28 -25q6 -6 6 -15q-2 -31 -21 -115q-5 -25 -18 -56q-6 -16 -19 -56.5t-22 -61.5q-24 -70 -34 -93q-2 -6 -8 -16t-7 -13q-24 -58 -25 -59q-6 -11 -25 -51q-4 -10 -15 -27t-15 -24q-14 -26 -37 -26h-2q-23 1 -37 26q-3 4 -20 29t-23 42q-7 18 -39 89.5
t-48 117.5q-4 11 -14 47t-17 54q-26 93 -30 121q-2 14 -2 20z" />
    <glyph glyph-name="W" unicode="W" horiz-adv-x="711" 
d="M497 150q2 1 5.5 4t4.5 3v1q9 29 20.5 81.5t18.5 75.5q4 13 10.5 42.5t11.5 44.5q15 39 34 116q3 13 10 29q0 1 2 5l2.5 5l2.5 5t3 5.5t3 5t4 4.5t4.5 3.5t5 3t5.5 1.5t7 1q38 0 38 -77q0 -23 -4.5 -45t-11 -47t-9.5 -41q-2 -16 -5 -32t-7 -35.5t-6 -30.5
q-3 -18 -13 -48.5t-13 -46.5t-13.5 -44.5t-13.5 -38.5q-13 -42 -23 -57q-20 -27 -64 -27h-2q-36 0 -46 9q-13 11 -23 26q-4 5 -15.5 17t-16.5 20l-24 39q-2 3 -16.5 20.5t-20.5 27.5q-4 6 -9.5 20.5t-11.5 25.5t-14 16h-1q-7 -2 -15 -20q-29 -66 -38 -89q-5 -13 -15 -42.5
t-16 -44.5q-17 -48 -49 -48q-9 0 -15.5 3.5t-11 11.5t-7 14t-6 17t-5.5 15q-11 27 -24.5 80t-22.5 79q-3 6 -7.5 27t-6.5 26q-8 23 -17.5 71.5t-11.5 57.5q-10 40 -10 65t1 37v6q0 31 13 42q33 28 58 28q27 0 33 -39q5 -33 5 -64v-4q0 -86 10 -135q3 -13 5 -40.5t4 -38.5
q1 -8 5.5 -24t5.5 -24q5 -26 15 -33q13 11 18 18q6 15 18.5 39.5t18.5 37.5q5 14 14 29v1l18 33q15 37 33 63q0 1 2 4t3 3.5t3 3.5t3 4t3 3.5t3.5 3.5t4 2.5t4.5 2t4.5 1t5.5 0.5q32 0 44 -61q4 -18 14.5 -47.5t13.5 -46.5q2 -12 4 -16q30 -65 46 -80q20 -14 36 -19z" />
    <glyph glyph-name="X" unicode="X" horiz-adv-x="417" 
d="M43 578q0 9 9.5 18t21.5 9h2q28 -1 53 -42q15 -25 18 -31q5 -11 17 -38.5t20 -44.5q1 -2 3.5 -5.5t3.5 -5.5q7 14 18 24.5t18 26.5q2 5 13.5 27t14.5 29q1 2 3.5 6.5t4.5 8t4 6.5l13 16q16 19 29 28q21 12 29 12q19 0 19 -49q0 -11 -10 -29q-17 -30 -98 -206q2 -4 12 -22
q21 -41 54 -116t44 -99q2 -4 7.5 -14.5t8.5 -17t6 -17t3 -19.5q0 -13 -6.5 -22.5t-18.5 -9.5q-21 0 -46 25q-20 20 -35 57l-16 31q-10 20 -29.5 50t-29.5 51q-3 -7 -17.5 -29t-17.5 -29q-8 -16 -17.5 -30.5t-16.5 -27.5q-4 -7 -21 -34q-28 -44 -52 -53q-7 -3 -16 -3
q-13 0 -18 9q-8 10 -8 17q0 12 3 25.5t5.5 21t9 22.5t7.5 19q3 7 61 126q8 16 18.5 47t18.5 46q-11 24 -30.5 72t-30.5 73q-4 9 -14 28t-14 28q-10 22 -10 35z" />
    <glyph glyph-name="Y" unicode="Y" horiz-adv-x="369" 
d="M120 87q7 46 14 212q0 9 1 29t2 30v28q0 46 -29 94q-9 16 -12 20q-4 5 -11.5 16.5t-11.5 17.5q-8 10 -22 28.5t-19 25.5q-13 20 -13 34q0 8 6 19q6 18 27 18q9 0 13 -1v-2q29 -14 36 -30q8 -13 9 -16q2 -4 16 -25.5t20 -33.5l8 -15l8 -14q11 -14 20 -35q3 -5 9 -13.5
t8 -13.5l2 -1q0 2 1 2l2 -3q24 37 27 46q3 5 8.5 16t7.5 17q2 5 7.5 15t7.5 16q1 2 4 8.5t5 9.5t5.5 8t4.5 8q3 4 7 13t6 13q1 1 3.5 6t3.5 7.5t4 7t5.5 7l5.5 5.5t7 4.5t8 2.5h2q18 3 24 -15q3 -7 1 -20q-17 -64 -34 -95q-1 -2 -6.5 -12t-7.5 -15q-19 -45 -22 -52
q-19 -34 -25 -44q-16 -29 -37 -131q-11 -73 -11 -130q0 -4 -1 -13t-1 -13q0 -35 -1 -51q0 -16 -3 -31q0 -36 -40 -36q-24 0 -39 15l-6 6q-3 5 -5 16v2q-2 8 -2 14q0 1 1 3.5t1 4.5q1 5 1 16z" />
    <glyph glyph-name="Z" unicode="Z" horiz-adv-x="460" 
d="M262 -4q-14 0 -39.5 -2t-38.5 -2q-10 -2 -15 -2q-17 0 -41.5 -2t-37.5 -2q-3 0 -9.5 0.5t-9.5 0.5q-46 0 -46 58q0 20 12 39q8 14 24 38.5t23 35.5q5 6 15 26q3 4 9 13t9 14q5 9 15 27.5t16 27.5q4 9 35 66q5 11 7 13l7 9q47 83 52 90q9 15 10 17l9 24q-28 2 -42 2h-14
q-2 0 -6.5 -0.5t-6.5 -0.5h-23q-3 -1 -9 -1q-2 0 -4.5 -0.5t-5.5 -1.5t-5 -1q-8 -1 -26 -1q-20 0 -37 3q-1 0 -3 0.5t-3 0.5q-27 7 -31 23q-4 20 -4 30q0 33 33 41q8 2 12 2h18q3 0 8 0.5t8 0.5t9 0.5t10 0.5h21q7 0 20 -1t19 -1h50q2 0 4 -0.5t4 -0.5q46 -4 94 -35
q18 -12 18 -50q0 -22 -3 -32q-1 -4 -4 -10t-3 -7l-7 -12v-2l-1 -1v-1l-9 -18q-4 -7 -9.5 -22.5t-9.5 -23.5q-7 -12 -18.5 -36.5t-13.5 -28.5l-12 -25q-1 -2 -13 -23l-12 -25q-2 -3 -6.5 -10t-6.5 -11l-16 -25q-10 -16 -14 -24q-5 -9 -13.5 -28.5t-10.5 -24.5q-5 -5 -5 -9
q4 -2 7 -2q16 -2 26 -2h57q14 0 40.5 -2.5t40.5 -2.5h26q49 0 49 -40q0 -53 -116 -53q-5 0 -14 0.5t-14 0.5t-14.5 0.5t-14.5 0.5z" />
    <glyph glyph-name="bracketleft" unicode="[" horiz-adv-x="332" 
d="M286 -52q0 -14 -11 -23t-26 -9h-22h-13.5t-13.5 -1q-35 0 -79 -7q-6 -2 -28 -4q-16 0 -20 6q-14 18 -14 64q0 4 0.5 14t0.5 15q0 9 0.5 27.5t0.5 27.5q0 3 0.5 10t0.5 10t-0.5 9t-0.5 10q0 3 0.5 9.5t0.5 10.5v55q0 9 -2 27.5t-3 27.5q0 12 -2.5 43t-2.5 48q0 4 0.5 11
t0.5 10q2 32 3 91t2 78q1 11 5 31t5 24q1 6 2.5 19.5t2.5 20.5q0 1 0.5 4t0.5 4v15q0 2 1 6t1 7q0 13 1 20q0 2 0.5 7.5t0.5 7.5q0 32 46 32h5q1 0 4.5 -0.5t5.5 -0.5q9 -1 26 -3t25 -2h10q3 0 7.5 -0.5t6.5 -0.5q9 -1 27 -1q13 0 19 -1q7 0 10 -1q10 -1 21 -12.5t11 -21.5
q0 -24 -59 -24h-3h-41v-3q-3 -17 -3 -36q0 -5 -0.5 -15.5t-0.5 -14.5v-8q0 -6 0.5 -18.5t0.5 -19.5q0 -6 -0.5 -19.5t-0.5 -19.5q0 -35 -4 -111t-4 -117q0 -39 1 -58q0 -4 1 -13t1 -13v-30q0 -9 0.5 -27.5t0.5 -27.5l3 -27q1 -13 1 -40q1 -10 1.5 -12.5t4 -4.5t12.5 -2h21
q21 3 24 3q28 0 28 -35v-21z" />
    <glyph glyph-name="backslash" unicode="\" horiz-adv-x="342" 
d="M123 345q-2 5 -22 69.5t-22 69.5q-3 8 -12.5 29t-13.5 32q-16 52 -16 93v5q0 40 15 45q6 6 17 6q33 0 51 -40q4 -9 11 -27t11 -27q4 -10 12.5 -29t15 -34.5t11.5 -29.5q22 -61 58 -180q20 -59 23 -65q2 -5 10.5 -24t11.5 -30q17 -65 22 -119v-27q0 -2 -0.5 -7t-0.5 -8
q0 -1 -0.5 -3.5t-0.5 -3.5q-7 -27 -16 -33q-1 -1 -3.5 -2t-3.5 -1t-3 -0.5t-3 -0.5q-13 0 -24 11q-4 2 -5 4q-12 14 -19 26q-4 8 -20 60q-6 18 -15.5 57t-15.5 57q-4 10 -12 31t-11 29q-3 7 -10 21l-9 18q-2 5 -5.5 14t-5.5 14z" />
    <glyph glyph-name="bracketright" unicode="]" horiz-adv-x="292" 
d="M198 732q35 0 35 -60q0 -12 3 -32.5t3 -27.5v-48q-1 -47 -4 -133.5t-4 -119.5l-3 -129q0 -7 -0.5 -28t-1.5 -32q-13 -131 -15 -181v-17q0 -6 -2 -10.5t-6.5 -8t-8.5 -6.5t-11 -5t-12 -3t-13.5 -2t-13 -1.5t-13 -1.5t-11.5 -1q-34 -2 -47 -5q-3 -1 -10 -1q-33 0 -33 53
q0 16 9.5 26t22 14t28.5 8q4 1 6 1q6 1 17.5 3.5t16.5 4.5q2 4 2 8q1 0 0 7v8v21q-5 52 -5 96q0 17 -0.5 50t-0.5 50v25q5 208 8 251q1 11 1.5 33.5t0.5 29.5q0 5 0.5 15t0.5 15q0 4 0.5 12.5t0.5 12.5h-1q-14 4 -24 4h-8h-1q-2 -1 -6.5 -2t-6.5 -1q-1 0 -3 -0.5t-4 -0.5
q-16 0 -33 5q-14 4 -14 37v19q0 1 0.5 3.5t0.5 3.5q0 20 4 26q10 15 44 15h112z" />
    <glyph glyph-name="asciicircum" unicode="^" horiz-adv-x="335" 
d="M148 695q26 14 39 14q0 1 1 1q26 -1 53 -30q36 -38 44 -56q3 -6 3 -13q0 -10 -8 -17t-20 -7q-16 0 -35 13q-4 3 -17.5 13t-21.5 15h-1q-1 1 -2 1h-13q-18 -6 -45 -27q-13 -11 -21 -14q-10 -5 -14 -5h-8q-9 0 -18.5 11t-13.5 21q-1 3 -1 10q0 21 26 37q10 7 31.5 15
t29.5 12q1 1 3.5 2t4.5 2l1 1h1h1z" />
    <glyph glyph-name="underscore" unicode="_" horiz-adv-x="577" 
d="M303 -108q-15 1 -56 5.5t-64 4.5q-3 0 -10 -0.5t-11 -0.5t-12.5 -1t-12.5 -1h-10q-16 0 -42 2q-31 0 -36 26q-1 3 -1 10q0 16 12 24q2 2 10.5 8t11.5 7.5t10.5 6t12.5 6t13 3.5t17 3q28 3 87 3q10 0 31.5 1t31.5 1q9 0 27 0.5t26 0.5h29q9 0 28 -0.5t29 -0.5q50 0 78 -9
q9 -3 15.5 -12.5t6.5 -19.5t-5 -16q-6 -10 -30 -21q-17 -9 -61 -20q-30 -8 -59 -8q-8 0 -25.5 -1t-25.5 -1h-15z" />
    <glyph glyph-name="grave" unicode="`" horiz-adv-x="282" 
d="M193 445h-3q-19 0 -45 26q-16 19 -20 24q-11 13 -23 26.5t-21 24.5t-20 28q-6 10 -6 24q0 10 16.5 27.5t27.5 17.5q9 0 14 -5q28 -28 37 -35q15 -13 26.5 -24.5t23.5 -25.5t21 -23q18 -18 18 -35q0 -8 -3 -14t-20 -20.5t-23 -15.5z" />
    <glyph glyph-name="a" unicode="a" horiz-adv-x="538" 
d="M179 251q-2 -8 -4 -12q1 0 3 0.5t3 0.5q30 4 45 5q14 2 97 30q-3 7 -5 15q-5 16 -15.5 49t-18.5 55q-3 9 -10.5 28.5t-11.5 28.5q-5 13 -7 16q-1 -1 -1 -3t-1 -3q-26 -73 -32 -96q-16 -52 -28 -77q-2 -4 -4.5 -11t-3.5 -11zM379 119q-2 4 -7 15.5t-8 17.5q-4 0 -11 -1
t-10 -1l-34 -4q-21 -2 -70.5 -5t-75.5 -6l-25 -3q-5 -8 -12 -24.5t-11 -24.5q-9 -17 -16.5 -41.5t-16.5 -41.5q-6 -12 -12 -18q-20 -27 -39 -27q-9 0 -16 3q-27 14 -27 42q0 19 9 45.5t10 33.5q15 53 30 84q2 4 4 12q14 41 17 57q6 30 23.5 81t22.5 67q3 9 15 38t16 46
q1 4 7.5 26t8.5 33q11 43 20 58q2 4 6.5 12t6.5 12q15 33 48 33q18 0 32.5 -10t20 -18t16.5 -30t13 -25q6 -12 25.5 -47t28.5 -55l12 -28q7 -16 14 -27l13 -24q15 -34 23 -59q3 -8 7.5 -25.5t7.5 -25.5q7 -15 20 -54q2 -6 20 -54.5t23 -63.5q6 -18 6 -41q0 -55 -40 -55h-1
q-26 0 -49 27q-9 11 -24 44t-21 51v1z" />
    <glyph glyph-name="b" unicode="b" 
d="M264 666q5 -2 22 -8.5t24.5 -9.5t19.5 -9t21 -13t16 -16q26 -31 26 -69q0 -2 -0.5 -7t-0.5 -8q-7 -84 -43 -123q-8 -9 -33 -25q26 -23 53 -57q27 -32 27 -79v-5v-5.5v-4.5q-15 -112 -51 -143q-42 -36 -80 -56.5t-90 -25.5q-5 0 -26.5 -2.5t-33.5 -2.5q-55 0 -59 35
q-4 37 -4 88v6q0 10 0.5 30.5t0.5 30.5q0 15 -1 22q-2 27 -2 80q0 1 3 142q3 52 3 53q6 52 6 56q2 47 5 59q0 1 2 10t4 17t5.5 18t9.5 19.5t14 15.5q9 8 30 8q11 0 31 -2.5t23 -2.5q50 -3 78 -16zM159 508q-6 -66 -6 -68q18 -6 50 -6q43 0 55 11q1 1 7.5 4.5t11.5 9t9 15.5
q6 12 6 43q0 22 -19 41q-9 7 -32.5 13.5t-44.5 6.5q-14 0 -28 -6q-1 -9 -4.5 -30t-4.5 -34zM299 242q1 3 1 10q0 46 -58 74q-22 11 -73 11q-11 0 -23 -2q-6 -25 -6 -52v-33q0 -6 -1 -19.5t-2 -19.5v-20q0 -9 0.5 -28t0.5 -27v-5q15 -5 36 -5q48 0 68 13q14 11 38 39
q8 10 19 64z" />
    <glyph glyph-name="c" unicode="c" horiz-adv-x="401" 
d="M229 137l29 -5h3q9 0 17 3q16 3 29 3q53 0 53 -43q0 -23 -15 -56q-11 -25 -53 -46q-21 -12 -45 -12q-46 4 -64 15q-22 14 -32 24q-53 38 -83 112.5t-30 159.5q0 25 3 49q1 2 1 6.5v6.5q2 20 15 62q19 63 76 135q2 3 10.5 11t11.5 12q36 41 50 53q17 12 33 17q15 5 21 5h4
q2 0 17 -3h4q1 0 14 -3q14 -3 24 -15.5t10 -27.5v-9q-1 -16 -6.5 -26.5t-11 -15.5t-20.5 -15q-12 -8 -26 -15q-53 -27 -83.5 -97t-30.5 -152q0 -39 22.5 -83t52.5 -50z" />
    <glyph glyph-name="d" unicode="d" horiz-adv-x="455" 
d="M418 356v-9q0 -2 0.5 -6.5t0.5 -6.5v-1q0 -69 -9 -103q-15 -57 -49 -113q-11 -18 -43 -48q-36 -32 -70 -43q-12 -4 -33 -13t-39.5 -14.5t-38.5 -5.5h-9q-18 0 -29 1t-25.5 4t-21.5 11.5t-7 21.5q0 11 2 31.5t2 31.5t-0.5 32.5t-0.5 32.5t0.5 31.5t0.5 31.5v14q0 24 3 68
t4 54q1 30 7 84.5t7 71.5q4 66 10 98q2 9 8 12q7 9 40 9h29q71 0 137 -43q31 -20 48 -36.5t34 -46.5q38 -64 42 -151zM158 231q0 -23 -3.5 -64t-3.5 -50q7 -2 25 -2q36 0 61 8t41 26.5t25 37.5t20 53q10 36 10 83q0 61 -27 138q-14 33 -93 33h-2q-6 0 -17.5 -2t-13.5 -2
q-1 -24 -4 -65.5t-4 -58.5q-3 -54 -9 -88q-4 -28 -4 -42z" />
    <glyph glyph-name="e" unicode="e" horiz-adv-x="444" 
d="M70 166q0 78 -15 156v4q0 3 -1 8.5t-1.5 10t-0.5 8.5v27q0 2 -0.5 6.5t-0.5 6.5q0 3 -0.5 9t-0.5 9q0 15 -1 23l-3 19q-2 11 -4 31q0 3 -0.5 8t-0.5 7v10q0 2 -0.5 5t-0.5 5t-0.5 5.5t-0.5 5.5q-1 7 -1 23v27q0 12 7 33q9 37 31 45q32 13 50 16q50 16 105 16h11
q5 0 14.5 -0.5t14.5 -0.5h5q33 0 62 -9q36 -15 36 -45v-8q-4 -34 -41 -53h-2q-6 -3 -8 -3q-16 -2 -23 -2q-2 0 -6 0.5t-6 0.5h-90q-33 0 -50 -6h-1q2 -10 4.5 -27.5t5.5 -32t7 -26.5q0 -2 1.5 -7t2.5 -7l3 -15q1 0 3.5 0.5t3.5 0.5q4 1 11 1h33q4 0 14 0.5t15 0.5h15
q4 -1 25 -3.5t31.5 -5.5t21 -13.5t10.5 -27.5q0 -2 -0.5 -5t-0.5 -4v-2q-4 -24 -15 -34q-12 -10 -31 -15h-2q-2 -1 -10 -3.5t-13 -3.5t-16.5 -2t-12.5 -1l-1 -1q-5 -1 -14.5 -2t-14.5 -2h-3q-2 0 -7 -0.5t-8 -0.5q-13 -1 -43 -9v-18q0 -3 0.5 -9.5t0.5 -9.5q0 -2 0.5 -8
t0.5 -9t0.5 -8.5t0.5 -7.5q0 -3 0.5 -11t0.5 -12q0 -30 7 -61q1 -2 1 -6.5v-6.5q2 -18 5 -26l1 -2v-2q14 2 43 5.5t53.5 7t44.5 7.5q14 2 21 2q27 0 47 -12.5t20 -36.5q0 -1 -0.5 -2.5t-0.5 -2.5q-2 -14 -5 -22t-9.5 -15.5t-16.5 -10.5q-11 -3 -38 -10.5t-42 -10.5
q-5 -1 -32 -7.5t-46 -6.5h-22l-16 1q-73 0 -91 35q-2 2 -7 19q-8 20 -8 32q0 4 -2 14.5t-2 15.5q-1 4 -1 14v15v15z" />
    <glyph glyph-name="f" unicode="f" 
d="M54 325q1 20 2 60.5t2 60.5q0 6 0.5 18t0.5 17q0 7 -1.5 22t-1.5 23v5q0 3 0.5 8t0.5 8q0 6 2 16q6 46 34 59q22 13 80 17q36 2 54 2q13 0 34 -0.5t29 -0.5q36 0 70 -3q57 -9 57 -39q0 -15 -8 -28.5t-19 -17.5l-9 -3q-1 0 -4 -0.5t-4 -0.5h-6q-6 0 -16.5 0.5t-16.5 0.5
h-25q-5 0 -15 0.5t-15 0.5t-15.5 1t-15.5 1q-3 0 -9 0.5t-9 0.5h-10q-9 -1 -25 -1q-20 -5 -27 -7l-1 -1h-1q-8 -5 -8 -12v-8v-17v-33q0 -4 0.5 -14t0.5 -15t0.5 -14t0.5 -14q0 -2 1 -7t1 -7h4q1 0 25 3h32q24 0 62 -4q2 0 5.5 -0.5t5.5 -0.5h16q37 -4 48 -21v-1l1 -1
q4 -6 4 -11v-1q0 -13 -15.5 -25.5t-30.5 -14.5q-6 -1 -19 -1h-13q-10 1 -30.5 1t-30.5 1q-6 0 -20 0.5t-20 0.5h-18q-27 -4 -27 -10q-3 -8 -4 -17.5t-1 -22t-1 -19.5q-1 -17 -2.5 -80t-4.5 -96q0 -5 -2 -15.5t-2 -15.5q0 -1 -0.5 -3.5t-0.5 -4.5q0 -22 -13 -32
q-10 -8 -19 -8h-1q-18 0 -29 17t-11 38v10q0 2 0.5 6.5t0.5 6.5v11q0 2 -0.5 8t-0.5 9v30q0 21 2 61t2 61v63z" />
    <glyph glyph-name="g" unicode="g" horiz-adv-x="578" 
d="M173 28q-33 3 -78 41l-15 12q-23 23 -36 64q-16 34 -16 62q0 73 11 119l6 27q6 38 17 58q8 24 20 49t20 39t27 44t24 38q17 30 48 58q1 1 5.5 6t6.5 6.5t6 5.5t7 5.5t7.5 4.5t8 4.5t9 3t11 2t11.5 0.5h2q50 -5 60 -19q12 -16 13 -26v-20q0 -16 -8 -29t-14 -17.5
t-21 -15.5q-31 -22 -48 -42q-3 -3 -23 -26t-26 -30.5t-22 -28.5t-23 -35t-15 -34.5t-11 -39.5q-2 -13 -2 -39v-13q0 -42 15 -89q14 -35 25 -45q2 -1 7 -4.5t8 -5.5q18 -7 47 -7l12 3q35 9 68 32q8 7 19 14q28 20 38 80q1 5 1 15q0 11 -2 33v42q-5 -1 -16 -1l-36 3
q-2 0 -7 0.5t-7 0.5q-12 1 -18.5 3t-12.5 8t-6 17q0 8 10 38q5 18 23 14h4q24 -4 39 -4q32 -5 43 -5q49 8 60 9l21 6l12 3q22 6 25 6h2q36 0 54 -27q4 -7 4 -15q0 -13 -13 -24t-27 -14q-38 -8 -50 -13q-1 -1 -2 -1t-2 -1q-4 -14 -5 -21q0 -1 -0.5 -2.5t-0.5 -2.5
q-1 -6 -4 -18.5t-4 -18.5q-1 -5 -2 -15.5t-1 -15.5q-6 -39 -27 -82t-46 -62q-7 -4 -24.5 -14.5t-23.5 -14t-20.5 -11.5t-21.5 -10.5t-19.5 -7.5t-22 -6.5t-22 -3t-25.5 -1.5q-11 0 -31 2z" />
    <glyph glyph-name="h" unicode="h" horiz-adv-x="466" 
d="M90 -2q-18 0 -27.5 8.5t-12.5 19t-5 29.5q0 1 -0.5 5t-0.5 5q-1 4 -1 13v4q0 4 0.5 11t0.5 10q0 23 3.5 63t3.5 63v27v3l1 13v17q0 15 1 22q0 6 2 18q2 18 3 28q1 7 1 24q0 2 3 44q1 5 2.5 14t2.5 16.5t1 14.5q7 79 12 95q11 32 33 32h1q25 0 34 -26l3 -6v-11v-68
q0 -2 0.5 -7t0.5 -8v-8q0 -1 0.5 -3.5t0.5 -4.5t-0.5 -5.5t-0.5 -4.5q-1 -5 -1 -15v-2q0 -3 0.5 -9t0.5 -8v-16q0 -3 -0.5 -8.5t-0.5 -8.5q0 -2 0.5 -6.5t0.5 -6.5v-1q0 -2 -0.5 -6t-0.5 -5h1q24 4 33 8q8 3 26.5 11t28.5 11q5 1 14 3t13 4q21 5 47 20l2 1q2 1 2 2v1l3 6
q1 8 1 25q0 9 0.5 27t0.5 26v8q0 19 1 28l3 30q4 22 16 34q2 1 5.5 5t5.5 5q10 6 21 6h2q4 0 10 -2q10 0 17 -13t7 -26q0 -2 0.5 -6.5t0.5 -6.5v-14q0 -4 -0.5 -14t-0.5 -14q-1 -19 -2 -80t-3 -94q0 -5 -1 -15.5t-1 -15.5q0 -8 2 -23.5t2 -21.5q0 -4 -1 -14t-1 -14v-19
q0 -13 -2 -35q0 -7 -2 -21t-2 -20v-12q-1 -20 -7 -51q-2 -18 -4 -25q0 -1 -0.5 -5t-0.5 -5q0 -28 -7 -42q-3 -7 -12.5 -12.5t-18.5 -5.5h-5q-29 6 -29 38v1q0 4 0.5 11t0.5 10l4 58q3 58 3 121q0 5 -0.5 15.5t-0.5 15.5v10q0 3 -0.5 9.5t-0.5 9.5h-3q-5 -2 -17 -7t-20 -7
q-12 -5 -38 -13q-5 -1 -10.5 -2t-12.5 -2t-11 -2q-58 -10 -72 -17l-4 -5v-1h-1l-1 -2v-2q0 -4 -2 -12q0 -6 0.5 -18t0.5 -17q0 -28 -2 -84q0 -5 -0.5 -14.5t-0.5 -14.5q0 -37 -19 -56q-5 -12 -18 -12h-1z" />
    <glyph glyph-name="i" unicode="i" horiz-adv-x="200" 
d="M101 642q-56 6 -56 45q0 32 17 49q7 7 30.5 17t33.5 10h3q27 -7 32 -13q12 -20 12 -37q0 -29 -17.5 -50t-45.5 -21h-9zM92 -5q-18 0 -28 15t-10 35q-3 27 -3 29q0 24 -0.5 71t-0.5 73q0 9 1 28t1 28q0 41 1 61q0 5 0.5 15t0.5 14v27q-3 24 -3 53q0 38 5 59q1 19 3 28
t9 18t21 11q1 0 3.5 0.5t4.5 0.5h1q14 0 29 -23v1q13 -16 13 -42v-10q0 -3 -0.5 -10t-0.5 -10q-5 -35 -5 -46v-12q0 -3 -0.5 -10t-0.5 -10q-5 -94 -5 -288v-24v-2q0 -46 -10 -62q-11 -18 -26 -18z" />
    <glyph glyph-name="j" unicode="j" horiz-adv-x="449" 
d="M393 382q0 -32 -10 -86v-5q-4 -38 -19 -122q-11 -42 -18 -56q-15 -34 -51 -63.5t-74 -35.5q-6 -1 -17 -1q-41 0 -61 6q-43 11 -81 54.5t-49 90.5l-3 14q-1 6 -1 17q0 29 16 35q1 0 3.5 1t3.5 2h5q13 0 23.5 -6.5t14.5 -12.5t11 -18q5 -9 11 -24t11.5 -24.5t15.5 -18.5
l14 -9q22 -8 33 -10h17q36 7 54 23.5t25 49.5q5 18 8 35l4 27q1 4 1 12t1 12q6 50 6 52q0 33 2 103v48q0 3 0.5 12.5t0.5 17.5q0 10 1 30t1 29q0 5 0.5 15t0.5 15q0 12 2 30q4 26 17.5 48.5t32.5 24.5q1 0 3 0.5t3 0.5q11 0 21 -4q41 -11 41 -59v-30q0 -12 -5 -54l-4 -29
q-1 -10 -1.5 -10t-1.5 -10q-6 -55 -6 -59q-1 -10 -1 -29t-1 -29z" />
    <glyph glyph-name="k" unicode="k" horiz-adv-x="520" 
d="M135 721q46 -6 46 -82v-45q0 -5 -0.5 -15t-0.5 -15q-3 -95 -3 -97q14 6 28.5 14.5t32.5 20t27 16.5q19 12 24 17q18 18 57.5 41.5t47.5 28.5q6 5 19 15.5t20 14.5q22 16 40 16q11 0 22 -7.5t11 -18.5q0 -6 -1 -8q-1 -6 -7 -14q-22 -26 -35 -39q-5 -5 -37 -29
q-11 -7 -30.5 -25.5t-30.5 -25.5q-1 -2 -6 -4t-6 -4q16 -53 21 -74q8 -45 24 -90q3 -8 10.5 -24.5t9.5 -24.5q24 -80 26 -89q12 -41 15 -58q1 -5 2.5 -16t2.5 -16q4 -20 4 -32v-8q-2 -19 -5.5 -30.5t-13.5 -21.5t-26 -10q-19 0 -34.5 13.5t-21.5 26t-14 35.5q-32 98 -35 114
q-2 10 -6.5 27.5t-7.5 32t-4 29.5q-1 12 -5 31l-9 61q-9 50 -17 66q-1 0 -2.5 -0.5t-2.5 -0.5q-12 -6 -30 -18q-52 -45 -63 -91q-16 -68 -16 -112q-1 -5 -1 -14v-13v-21q0 -60 -13 -98q-15 -33 -37 -33q-3 0 -11 2q-35 14 -35 104v33q0 10 -1.5 30.5t-1.5 29.5q0 5 0.5 15.5
t0.5 15.5q0 10 -1 30t-1 30t-0.5 30t-0.5 30v28q0 86 4 153q2 49 4 59q6 42 25 82q13 32 43 32h6z" />
    <glyph glyph-name="l" unicode="l" horiz-adv-x="441" 
d="M314 31h-8q-3 0 -9 -0.5t-9 -0.5q-68 -10 -98 -20q-21 -7 -39 -7h-9q-70 6 -93 47q-7 13 -7 30v4q0 22 8 58q3 25 3 52q1 20 2 61t2 62l5 123q0 9 1.5 27.5t1.5 27.5q0 5 0.5 14t0.5 14q4 47 19 57q12 8 20 8h1q13 0 21.5 -7t13.5 -24t6 -24.5t4 -28.5q3 -33 3 -35v-30
q0 -1 -0.5 -3.5t-0.5 -3.5q0 -3 0.5 -9.5t0.5 -9.5v-3q0 -4 -0.5 -11t-0.5 -11q0 -6 -1 -47t-1 -47v-20v-9q0 -3 1 -8t1 -7v-5q0 -1 -0.5 -5t-0.5 -6v-11v-13v-9.5t-1 -9.5v-15v-5v-6q-1 -5 -1 -17v-2q0 -2 0.5 -8t0.5 -8h27q4 0 12 0.5t11 0.5q8 0 22.5 1.5t21.5 1.5
q16 0 23 1v1h1q22 2 34 2q5 0 14 -0.5t14 -0.5q82 0 82 -42q0 -27 -19.5 -44.5t-47.5 -17.5q-20 -2 -32 -2z" />
    <glyph glyph-name="m" unicode="m" horiz-adv-x="645" 
d="M484 511q-9 0 -22 -21q-52 -75 -70 -118q-19 -35 -41 -60q-16 -20 -35 -20q-17 0 -29 11t-22 28.5t-16 23.5q-24 24 -26 28q-3 4 -8.5 13.5t-8.5 13.5t-11 13t-12 13q-1 2 -3.5 5t-4.5 5.5t-4 4.5l-12 12q-2 2 -20 9l-1 1l-1 -2q-1 -2 -1 -3q-1 -6 -1 -17
q0 -39 -7.5 -130t-7.5 -143q0 -5 -0.5 -15t-0.5 -15q-1 -5 -1 -15t-1 -15q0 -18 -24 -47q-11 -13 -20 -13q-7 0 -11.5 2.5t-7.5 9t-4 9.5t-3 13.5t-2 11.5q-2 12 -2 19v4q0 20 1 30q0 146 31 416q2 12 13 22.5t25 10.5q1 0 2 -0.5t2 -0.5q44 -4 77 -45q9 -12 30.5 -31.5
t31.5 -31.5l12 -13q1 -1 3 -2t3 -2v-1h1q4 -4 8 -7.5t8.5 -7.5t7.5 -6q1 -1 3 -2.5t3 -1.5q8 7 23 22q4 5 14 14.5t14 14.5q2 3 12 16t16 19q4 5 13 15t13 15q2 3 6.5 8t6.5 7l12 12q36 32 66 41q9 3 19 3q17 0 32.5 -8t21.5 -18q6 -9 8 -29q1 -3 1.5 -9t0.5 -9q2 -10 2 -14
v-15q0 -12 1 -17q5 -50 5 -59v-68q0 -2 -0.5 -8t-0.5 -9q0 -2 0.5 -5t0.5 -4q2 -20 2 -30v-30q3 -117 3 -123q0 -44 -3 -88v-35v-14t-1 -14q-1 -3 -3 -11t-2 -11q-1 -5 -4 -8.5t-8.5 -7.5t-8.5 -6q-11 -11 -25 -11q-1 0 -2.5 0.5t-2.5 0.5q-25 5 -33 13q-10 9 -14 34
q0 2 -1.5 9.5t-1.5 12.5v2q0 2 0.5 7t0.5 7v25q0 6 0.5 18t0.5 18v19q-3 27 -3 59q0 13 0.5 38.5t0.5 38.5v27q0 3 -0.5 8t-0.5 7z" />
    <glyph glyph-name="n" unicode="n" horiz-adv-x="559" 
d="M53 579v6q0 28 16 50q18 24 32 24l1 -1q2 0 11 -3q6 -4 20.5 -13.5t22.5 -14.5q0 -1 2 -1t2 -1q19 -19 88 -68q12 -7 31.5 -24t22.5 -19q2 -2 5.5 -5t5.5 -5q6 -4 17.5 -12.5t17.5 -13.5q12 -10 38 -33q9 -9 15 -9h3v6q0 3 1 9t1 8q0 5 0.5 16t0.5 17q0 8 0.5 34.5
t2 39.5t5.5 32t12.5 29.5t22.5 15.5q6 2 9 2q15 0 24 -12.5t12 -28.5q2 -9 3 -19t1.5 -22.5t1.5 -19.5v-1q3 -27 3 -29v-28q0 -5 -0.5 -14t-0.5 -13t0.5 -13t0.5 -14v-60q0 -42 1 -64q2 -20 2 -31q0 -5 -0.5 -15t-0.5 -15q0 -10 -1 -30.5t-1 -30.5q0 -7 -0.5 -22t-0.5 -23
q0 -2 0.5 -7t0.5 -7q0 -4 0.5 -15t0.5 -15q0 -39 -9 -61q-17 -52 -53 -52q-21 0 -34.5 13.5t-13.5 33.5v12q0 9 1.5 27.5t1.5 27.5q1 19 4 57.5t4 56.5v57q0 12 -11 25q-6 8 -20 22q-6 5 -19.5 12.5t-17.5 10.5q-8 5 -33.5 27t-42.5 29q-12 6 -26 14q-28 20 -47 41
q-17 17 -27 24v-6q0 -4 -0.5 -12t-0.5 -12q0 -8 -0.5 -25.5t-0.5 -25.5t-0.5 -24t-0.5 -23v-14q0 -4 0.5 -14.5t0.5 -14.5q0 -5 0.5 -15.5t0.5 -15.5t0.5 -14.5t0.5 -14.5t0.5 -16t0.5 -16q1 -22 1 -67v-82q0 -75 -36 -75h-2q-15 2 -28.5 13.5t-16.5 25.5q-3 13 -5 46
q-2 12 -2 39v13q0 15 -1 22v2q-1 90 -10 232q-1 31 -5 96q-1 40 -5 104z" />
    <glyph glyph-name="o" unicode="o" horiz-adv-x="455" 
d="M29 136q-10 45 -10 62v2q0 33 4 60q5 40 21 90q18 55 51 109q1 2 6 11.5t9 13.5q25 29 40.5 44.5t42 29.5t55.5 14q20 0 44 -6q3 -1 8.5 -3.5t8.5 -3.5q20 -9 23 -11q6 -4 25 -28q28 -35 36 -51q2 -5 7.5 -15t8.5 -16.5t5.5 -17t2.5 -20.5v-29q0 -5 -0.5 -14.5
t-0.5 -14.5q-5 -98 -32 -153q-5 -11 -15 -31q-3 -4 -9 -12.5t-8 -12.5q-3 -4 -7.5 -12t-6.5 -12q-14 -23 -41 -48q-30 -26 -56 -32q-27 -5 -48 -5h-13q-5 0 -14.5 0.5t-14.5 0.5q-20 0 -31 5q-31 12 -32 13q-15 8 -44 55q-9 13 -15 38zM282 443h-15q-11 -2 -33 -10
q-27 -9 -41 -23.5t-28 -42.5q-4 -7 -11.5 -22t-11.5 -22q-2 -4 -9 -23t-9.5 -26.5t-5.5 -23.5t-3 -32q0 -4 -0.5 -12.5t-0.5 -12.5v-9q0 -31 42 -45q7 -1 20 -1q2 0 6.5 -0.5t6.5 -0.5h10q36 7 66 41q50 66 56 163q3 42 3 44v10q-6 40 -42 48z" />
    <glyph glyph-name="p" unicode="p" horiz-adv-x="430" 
d="M89 -16h-3q-43 8 -43 81v19q0 17 1 25q0 5 2 15t2 15v30q0 5 0.5 15.5t0.5 15.5q4 78 6 97q1 5 1 13v13t2 21t2 25q0 11 1 16q0 1 1 4t1 5v6q0 1 1 5t1 6v4l1 13q0 2 0.5 8t0.5 9t0.5 9t0.5 8q0 1 0.5 3t0.5 3v6q1 8 1 26v6l1 15q0 27 1.5 43t6 35.5t16 30t30.5 12.5h4
q8 2 14 2h1q28 -1 101 -16q28 -7 37 -10q2 0 5.5 -2t5.5 -2q1 0 3 -0.5l2 -0.5q2 -1 7.5 -2t8.5 -3q5 -1 14 -5t11 -5q38 -15 53 -55l1 -1q13 -34 13 -44v-30q-2 -43 -9 -64q-1 -2 -15 -31q-7 -13 -41 -55q-17 -20 -42 -34q-17 -10 -49 -33q-2 -1 -6 -4t-7 -4
q-21 -9 -24 -11q-9 -6 -30.5 -13.5t-30.5 -13.5q-1 -1 -3 -1.5t-3 -0.5v-4q0 -4 -1.5 -14t-1.5 -15q0 -11 -4 -29v-16q0 -9 -2 -27l-3 -30q-1 -9 -5.5 -24.5t-5.5 -18.5q-12 -41 -34 -41zM234 541h-36q-16 0 -23.5 -3t-18.5 -3l-1 -51v-2l1 -3v-3v-38q0 -7 -1 -26.5
t-1 -26.5v-6v-12v-15v-20q26 11 32 18q27 12 31 15q3 3 17.5 13t17.5 13q31 30 39 48.5t8 74.5q0 2 -2 10q-17 17 -27 17h-11h-25z" />
    <glyph glyph-name="q" unicode="q" horiz-adv-x="454" 
d="M153 186q0 8 7 16t15 8h1q9 0 13 -5l19 -19q6 -6 36 -31l2 -1l3 -3q28 17 34 30q55 106 55 206q0 19 -1 28q-5 38 -36 79t-65 41q-27 0 -62.5 -55.5t-53.5 -99.5q-6 -13 -9.5 -27.5t-6.5 -35.5t-5 -31q-3 -21 -3 -44v-13q4 -27 13 -46l9.5 -9.5t9 -9.5t8.5 -8t11 -7.5
t12 -5t15 -4.5q-16 26 -21 42v5zM248 56q-20 -6 -45 -6h-8q-35 3 -68 16q-3 1 -22 12q-80 41 -80 149v6q0 82 18 150q11 40 18 57q19 58 39 87q5 8 22 27q43 52 105 75q9 3 21 3h8q53 0 90.5 -42.5t54.5 -104.5q18 -62 18 -139q0 -23 -1 -34q-3 -58 -18 -110
q-20 -62 -89 -117l13 -15q2 -2 4 -5t3 -5q17 -17 17 -35q0 -23 -25 -27h-1q-29 0 -65 49z" />
    <glyph glyph-name="r" unicode="r" horiz-adv-x="506" 
d="M61 94q0 8 0.5 24.5t0.5 24.5q0 24 -5 176q0 3 -0.5 9.5t-0.5 8.5v18l-1 12v39q0 14 -1 21q0 1 -0.5 5t-0.5 5q-1 7 -1 22v3q0 4 -0.5 13t-0.5 14q0 3 0.5 8t0.5 7q0 12 -1 18q0 78 16 106q8 13 32 23q8 4 43.5 5.5t45.5 3.5q1 0 7.5 1.5t9.5 1.5h43q2 0 7 -0.5t7 -0.5
l30 -3h4q104 -12 119 -87q2 -10 2 -14t-0.5 -14t-0.5 -14l-1 -2q-7 -73 -34 -113q-3 -3 -9.5 -12t-11.5 -14q-2 -3 -6 -7t-6 -7l-4 -4l-4 -4q2 -4 7.5 -18t9.5 -21q3 -4 6.5 -12.5t5.5 -12.5l18 -37q16 -32 24 -49q1 -3 5.5 -10t6.5 -11q27 -44 36 -80q4 -12 4 -21
q1 -6 1 -19v-7q0 -5 -2 -15v-2q-6 -25 -15 -32q-16 -14 -32 -14q-10 0 -24 7q-17 9 -26 25l-14 28q-9 19 -10 23t-5.5 20t-8.5 24q-16 32 -23 53q-2 4 -5 12.5t-5 12.5q-2 3 -12.5 19.5t-14.5 25.5q-16 30 -24 41q-6 9 -12 13q-1 0 -2 1l-2 2q-1 0 -3.5 -1t-3.5 -1
q-2 -1 -7 -1q-17 -4 -29 -5l-15 -3q-4 -1 -22 -1v-2q0 -1 -0.5 -5t-0.5 -7q0 -32 2 -99t2 -98q0 -2 -1 -6t-1 -6v-4q0 -55 -21 -82q-5 -7 -18 -7q-1 0 -3.5 0.5t-3.5 0.5q-41 13 -41 108zM153 453q0 -2 -6 -62v-1h1q14 -2 19 -2h6q41 6 85 20q70 28 72 89v1q0 25 -24 49
q-8 6 -43 14q-16 3 -35 3h-33q-20 -1 -37 -10v-5q0 -6 -1 -17.5t-1 -16.5q0 -4 -0.5 -12.5t-0.5 -12.5t-0.5 -10t-0.5 -9l-1 -12v-6z" />
    <glyph glyph-name="s" unicode="s" horiz-adv-x="484" 
d="M423 551h-14q-3 0 -9 1t-8 1q-8 0 -13 5q-4 0 -6 1q-54 18 -77 18q-39 0 -57 -37q-12 -31 -12 -61v-5v-27q4 -30 23 -62q3 -5 12.5 -14.5t13.5 -15.5q69 -95 69 -192q0 -88 -66 -131l-14 -7q-30 -16 -50 -16h-34q-4 0 -13 0.5t-13 0.5q-6 0 -17.5 1.5t-13.5 1.5
q-27 5 -31 7t-5 2q-34 10 -54 33q-21 23 -21 40q0 11 5 19q10 28 42 28q12 0 23 -4.5t23.5 -12.5t17.5 -10q22 -9 37 -9h27q38 7 55 41l3 13q1 6 1 18q0 3 -0.5 9.5t-0.5 9.5q-1 10 -7 28v1q-9 23 -25 41q-46 63 -60 77q-43 43 -43 92q0 100 40 151q27 35 71 55t86 23h29
q25 -1 38 -3t30 -8.5t29 -19.5q3 -3 6 -8.5t5 -7.5q7 -14 7 -27q0 -29 -29 -40z" />
    <glyph glyph-name="t" unicode="t" horiz-adv-x="506" 
d="M85 485q-63 2 -63 43q0 15 12 31l12 12q21 18 45 24q48 10 92 14q110 17 115 18q4 1 9.5 2t9.5 2l22 3q9 1 27 1q4 0 12.5 0.5t12.5 0.5q51 6 59 6q40 0 53 -25q0 -1 2 -6t2 -8v-4q0 -1 -0.5 -3t-0.5 -4v-2l-1 -2q-4 -16 -18 -27.5t-21.5 -14.5t-31.5 -12
q-24 -11 -78.5 -19.5t-64.5 -11.5l-12 -3t-11 -3l-1 -1h-2l-1 -3v-3q-2 -22 -2 -31q0 -11 -2 -31q-1 -20 -2 -60.5t-2 -60.5q0 -7 -0.5 -20t-0.5 -19q0 -3 0.5 -9t0.5 -9q0 -2 0.5 -6t0.5 -7v-18v-14v-17v-27q-1 -1 -1 -2v-30l-1 -24l-2 -37l-3 -25.5t-8.5 -20t-20.5 -11.5
q-14 0 -22.5 7t-11.5 14.5t-6 22.5q-1 4 -4 19.5t-3 24.5q0 52 3.5 158.5t3.5 158.5v37q0 17 -4 43h-9q-7 -1 -34.5 -6t-44.5 -5h-4z" />
    <glyph glyph-name="u" unicode="u" horiz-adv-x="508" 
d="M423 677h3q9 0 19.5 -8t13.5 -15q7 -13 7 -30q0 -143 -24 -274q-4 -16 -5 -24v-1q-10 -75 -25 -123q-5 -13 -17 -39q-2 -4 -8 -19t-8.5 -21t-9 -16t-13.5 -16q-21 -17 -41 -32q-40 -34 -76 -34q-5 -1 -16 -1q-68 0 -106 50q-3 4 -9 11.5t-9 11.5q-16 20 -21 29
q-10 16 -22 47q-15 30 -15 58q0 21 2 61l3 58q0 10 3 29t3 29l3 30q1 14 5 38.5t5 32.5q3 29 16 58q1 2 3.5 7.5t3.5 8t3.5 7.5t4.5 7.5t4.5 6.5t5.5 6.5t6.5 5t7.5 4t8 2.5q2 0 4.5 0.5t3.5 0.5q38 0 38 -41q0 -3 -0.5 -8t-0.5 -7q-3 -32 -11 -60q-8 -33 -11 -79
q0 -1 -3 -7q-1 -24 -2 -72.5t-2 -72.5v-25q0 -28 6 -46l6 -12q20 -24 35 -29q3 -1 11 0t10 1q12 0 31 12l24 16q17 12 32 37q2 4 16 44t15 44q1 7 7 39t8 50q2 20 4 28q1 7 2 21t2 21q2 15 8 45q2 10 5.5 43t7.5 50q5 18 9 28.5t14.5 22t25.5 11.5z" />
    <glyph glyph-name="v" unicode="v" horiz-adv-x="421" 
d="M185 6q-25 0 -35 33q-7 21 -17.5 61t-15.5 57q-3 10 -9.5 27.5t-11 33t-7.5 29.5q-4 23 -29 124l-2.5 7.5t-2.5 8.5t-1 8q-3 13 -7.5 38t-7.5 39l-6 22q-3 16 -7 48q-2 14 -2 17q1 8 16.5 17.5t30.5 9.5q7 0 13 -3q4 -3 7.5 -7t6.5 -11t5 -11.5t4.5 -13.5t3.5 -11
q12 -40 22 -82l2 -12l4 -15q2 -8 3.5 -17t2.5 -20.5t2 -18.5q1 -6 4.5 -17.5t4.5 -17.5q1 -3 2 -9t2 -9l6 -15q5 -11 11.5 -31t8.5 -25q6 -22 11 -34q3 7 22 62t20 62q3 10 10 28.5t10 27.5l19 55l6 15t5 14q23 74 44 112q23 41 45 41q13 -2 26 -15q12 -10 12 -43
q0 -47 -25 -110q-4 -9 -9.5 -30t-9.5 -30l-24 -57q-8 -23 -9 -29q-2 -9 -8 -23.5t-8 -21.5q-2 -10 -10 -21q-5 -11 -20 -58t-27.5 -82t-35 -66t-45.5 -31z" />
    <glyph glyph-name="w" unicode="w" horiz-adv-x="604" 
d="M551 610q28 0 28 -39q0 -26 -4 -51t-12.5 -58.5t-10.5 -45.5l-6 -31l-3 -21l-1 -1v-2v-3q-1 -5 -2.5 -15t-2.5 -15v5q-3 -21 -10.5 -57t-9.5 -50q-7 -25 -18 -102q-6 -36 -7 -38q-16 -43 -52 -43q-11 0 -22 4q-5 1 -10 3.5t-8.5 4.5t-8 6t-7 6t-7 7t-6 7l-6 8t-5.5 7.5
t-5.5 8.5t-5.5 8q-28 34 -56 103q-1 2 -37 62q-1 1 -2.5 5t-2.5 5q-3 -8 -19 -47t-25 -59q-2 -4 -5 -12.5t-5 -13.5l-16 -34q-4 -8 -14 -22l-3 -4q-4 -5 -4.5 -6t-4 -4.5t-5 -4.5t-5 -3.5t-6.5 -3t-7 -1.5t-9 -1q-19 0 -36 31q-11 22 -20 69l-7 31q-6 38 -6 60
q0 9 -2.5 27.5t-2.5 27.5q0 15 -5 90v16q0 68 6 110q0 2 1.5 11.5t2.5 13t3 12t3.5 12.5t5 10t7.5 9t9.5 5t12.5 2q40 0 40 -59v-38q-1 -20 -1 -61v-63q0 -5 1 -15.5t1 -14.5v-10q6 -44 6 -65q0 -1 0.5 -5t0.5 -5q10 15 21 39q2 5 7 13.5t7 13.5q22 57 39 74q25 30 43 30
q9 0 15.5 -5t9.5 -10.5t6.5 -15.5t5.5 -13q3 -6 12 -23t12 -27l1 -1v-1q2 -2 2 -6q0 -1 0.5 -1t0.5 -1q3 -8 11.5 -22.5t10.5 -19.5q2 -4 5 -12t5 -11q3 -6 15 -22t17 -26q16 -30 26 -40q5 11 22 78q6 19 25 114q13 97 43 183q5 14 9 23t14 17.5t23 8.5z" />
    <glyph glyph-name="x" unicode="x" horiz-adv-x="452" 
d="M169 328q-23 39 -57 91.5t-51 80.5q-15 25 -19 47q-1 2 -1 5q0 26 9 39q6 8 18 8q18 0 34 -11.5t23 -21.5t18 -30q2 -3 3 -5q15 -24 38.5 -56.5t38.5 -58.5q3 6 6 8q2 2 5 6q28 42 42 59q41 56 50 71q23 32 34 41.5t26 9.5q12 0 30 -3q9 -2 16 -10.5t7 -18.5q0 -7 -3 -13
l-6 -15q-5 -11 -10.5 -20.5t-17.5 -25.5t-13 -18q-9 -15 -30 -44t-31 -43q-17 -25 -42 -57q-3 -3 -9 -11t-9 -11q25 -49 77 -133l19 -30q12 -24 12 -37q0 -18 -9 -32q-4 -6 -16.5 -14.5t-16.5 -8.5h-2l-2 1q-18 7 -42 33q-8 8 -14 17.5t-12.5 20.5t-10.5 17q-33 48 -48 72
q-1 -2 -2.5 -7t-4.5 -11.5t-8 -12.5q-26 -33 -59 -90q-23 -40 -40 -57q-16 -16 -31 -16h-3q-28 4 -28 33q0 31 32 86q12 22 37 61.5t35 56.5q6 10 15.5 22t15.5 21q2 2 4 7t3 8z" />
    <glyph glyph-name="y" unicode="y" horiz-adv-x="366" 
d="M293 655q8 10 20 13q4 2 14 2q19 0 25 -18q2 -8 2 -12q-1 -40 -15 -78q-14 -34 -31 -82q-11 -29 -56 -135q-3 -7 -3 -26q0 -17 2 -47q0 -10 2 -22.5t4 -29.5q7 -72 7 -81v-28q0 -15 -1 -26t-2.5 -16.5t-5 -16t-5.5 -17.5q-7 -24 -25 -24q-4 0 -7.5 1t-6 3.5t-4 4.5
t-3 6.5t-2 6.5t-2 7t-1.5 7q-19 92 -19 189q0 40 -2 59q-1 11 -3.5 39.5t-5.5 48.5t-8 36q-16 33 -87 93q-38 31 -48 75q-1 4 -1 11q0 13 6.5 23t17.5 10q16 0 37 -19q20 -14 29 -24q8 -8 20 -23.5t18 -21.5q22 -20 45 -40q7 7 21 33t28 46q6 9 13.5 24.5t15 27.5t17.5 21z
" />
    <glyph glyph-name="z" unicode="z" horiz-adv-x="465" 
d="M247 16q-10 0 -40.5 2t-48.5 2q-3 0 -63 6q-36 4 -49 16q-12 9 -12 31q0 2 0.5 6.5t0.5 6.5q2 23 5 32q3 11 17 29q5 8 13.5 25.5t14.5 25.5q3 4 9.5 11.5t9.5 11.5q16 23 46 71q3 5 22 37q5 7 19 24t20 27q16 26 30 43q16 24 18 28q6 13 9 29v7v8.5v6.5v3l-2 1h-2
q-30 3 -32 3q-76 6 -112 11q-16 2 -27 6l-12 6q-14 10 -14 25q0 13 10 27.5t20 21.5t29 7q2 0 7 0.5t7 0.5q3 0 7.5 -0.5t6.5 -0.5q33 0 91 -6q18 -2 29 -4l16 -3h4q4 0 11 -0.5t10 -0.5q43 0 69 -26q13 -13 13 -42q-4 -49 -37 -117q-9 -15 -26.5 -42t-22.5 -36t-17.5 -25.5
t-17.5 -25.5q-20 -32 -32 -46q-17 -20 -19 -23q-12 -18 -20 -26q-3 -3 -10 -9t-11 -11t-7 -10q-2 -4 -2 -6v-11v-1q3 0 8 -0.5t7 -0.5q4 0 14 0.5t14 0.5h7q7 0 21 -0.5t20 -0.5l59 -3q6 0 20 -0.5t21.5 -1t20 -2t19 -4.5t14 -7.5t11 -12.5t3.5 -18q0 -20 -26 -46
q-7 -7 -15 -11.5t-19.5 -7.5t-18.5 -4t-24 -2.5t-23 -2.5q-20 -2 -29 -2h-32z" />
    <glyph glyph-name="braceleft" unicode="{" horiz-adv-x="316" 
d="M38 451q6 6 23 13t22 15q11 24 11 59v56q0 103 26 137q2 4 5.5 12.5t5.5 12.5q5 11 18 17t22 7.5t31 3.5h3h20q3 0 8 -0.5t8 -0.5h4h12q22 -6 22 -35q0 -2 0.5 -8t0.5 -9q0 -12 -4 -20q-7 -13 -37 -15q-13 -1 -39 -5h-3l-15 -6q-9 -9 -16 -27q0 -1 -1 -4t-1 -4
q-1 -9 -1 -26v-30q0 -40 1 -59q0 -5 0.5 -16t0.5 -16q0 -14 -7 -44l-3 -16q-1 -5 -13 -24q-10 -15 -22 -21l-2 -1l-2 -1q28 -28 35 -42q1 -1 9 -29q9 -49 9 -101v-25q0 -3 0.5 -10t0.5 -11t1 -11.5t1 -10.5l3 -25q5 -31 6 -33q6 -14 17 -25l1 -1h1q12 -8 23 -14l8 -2t9 -2
t8 -2l15 -3q23 -7 23 -23v-4q-1 -4 -1.5 -14t-1.5 -14.5t-3 -11t-6 -10t-10 -5.5t-13 0h-2q-5 -1 -16 -1q-9 0 -25.5 4t-20.5 5q-26 5 -46 20q-16 16 -25 56q-14 60 -17 146q-1 10 -1 30t-1 30v11q0 46 -6 63q-2 7 -6 19q-3 3 -11.5 6t-10.5 4q-31 7 -31 55q0 2 -0.5 6.5
t-0.5 6.5q0 16 7 23z" />
    <glyph glyph-name="bar" unicode="|" horiz-adv-x="207" 
d="M147 689q6 -18 6 -49v-13q0 -5 -1 -14.5t-1 -14.5q-1 -16 -1 -73q0 -44 1 -130.5t1 -104.5q0 -4 -2.5 -14t-2.5 -15q-1 -5 -1 -16t-1 -16q-8 -47 -8 -126q0 -37 2 -121q-4 -47 -15 -61q-6 -10 -15 -12q-1 0 -2 -0.5t-2 -0.5q-2 -1 -8 -1q-18 0 -26 8q-12 11 -14 46v7
q0 7 -0.5 72t-0.5 72v34q0 5 0.5 16t0.5 16q2 35 3 101.5t2 87.5v25q0 26 -0.5 99t-0.5 98v25q0 5 0.5 15.5t0.5 15.5q0 20 1 29q0 22 11.5 38t30.5 16q25 0 40 -33q2 -4 2 -6z" />
    <glyph glyph-name="braceright" unicode="}" horiz-adv-x="317" 
d="M75 783q5 0 17.5 0.5t18.5 0.5h3q49 -5 61 -15q6 -6 9 -13q2 -4 6 -12.5t6 -12.5q18 -25 24 -103q1 -11 1 -34v-56q0 -58 26 -71q24 -9 31 -16t7 -23q0 -2 -0.5 -6.5t-0.5 -6.5q0 -46 -33 -55q-17 -7 -21 -10q-7 -19 -10 -40q-2 -17 -2 -53q0 -10 -1 -30t-1 -30
q-3 -90 -16 -146q-6 -26 -16 -42q-8 -12 -10 -14q-13 -10 -68 -25q-16 -4 -24 -4q-10 0 -15 1h-2q-3 -1 -8 -1q-21 0 -25 27q0 4 -1 14t-1 15v4q0 13 10 18.5t29 8.5t23 5q15 7 24 14h1l1 1v1q17 23 20 38q2 12 4 34.5t3 31.5q0 4 0.5 11t0.5 10v25q0 63 13 114q0 1 2 7t4 9
q8 16 34 42q-1 0 -2 1t-2 1q-28 14 -34 45l-3 16q-7 30 -7 44q0 5 0.5 16t0.5 16q1 19 1 59v30q0 17 -1 26q0 1 -1 4t-1 4q-6 15 -18 27q-2 1 -6.5 3t-6.5 3h-3q-26 4 -39 5q-31 2 -38 15q-3 6 -3 20q0 3 0.5 9t0.5 8q0 31 20 35h14h4z" />
    <glyph glyph-name="asciitilde" unicode="~" horiz-adv-x="336" 
d="M289 719q21 0 21 -27q0 -32 -8 -43q-5 -8 -7 -9q-15 -12 -55 -22q-7 -1 -20 -1q-27 0 -48 12q-35 18 -37 18h-8q-1 -1 -2 -1q-4 -2 -17 -21q-8 -8 -20 -10q-2 0 -5 -0.5t-4 -0.5q-13 0 -21 8t-8 20q0 33 27 56q20 18 44 18h12q29 -5 49 -25q35 -26 56 -26q8 0 12.5 7.5
t7.5 18.5t7 15q9 13 24 13z" />
    <glyph glyph-name="exclamdown" unicode="&#xa1;" horiz-adv-x="225" 
d="M52 372q0 16 6 46q0 5 2 25t2 30q0 4 1.5 13t1.5 10q0 2 0.5 5.5t0.5 5.5q0 7 -2 21.5t-2 20.5q0 5 -1 15t-1 14v13q0 5 2.5 15t2.5 15q0 1 1 6.5t2 9.5q4 9 9 16q15 22 31 22q8 1 18 -11q12 -16 16 -59q2 -55 6.5 -153.5t5.5 -121.5v-13q1 -13 0 -13q0 -4 -0.5 -12.5
t-0.5 -12.5q0 -20 -2 -54q-2 -16 -4 -26q-17 -69 -44 -69h-5q-14 0 -26 16q-8 12 -12 39q-7 35 -9 114q0 3 -0.5 8.5t-0.5 8.5q0 8 1 27.5t1 28.5zM168 -37q-18 -21 -48 -21q-20 0 -37 12t-24 27q-6 11 -6 28q0 22 9 31q23 23 54 23q26 0 50 -30q10 -15 10 -40q0 -21 -8 -30
z" />
    <glyph glyph-name="cent" unicode="&#xa2;" horiz-adv-x="339" 
d="M306 187q0 -21 -32.5 -44.5t-55.5 -23.5h-2q3 -13 3 -20v-6q0 -9 2 -21q2 -10 2 -15q0 -36 -12 -49l-2 -1q-9 -7 -19 -7q-16 0 -23 14q-6 9 -9 44q-2 19 -2 26q0 5 2 41q-39 8 -68 37q-2 2 -15 13.5t-15 15.5q-2 3 -5 10t-5 10q-13 26 -13 91v17q0 7 9 55l6 18q4 12 7 17
l10 21q9 25 10 26t3.5 4t3.5 5t3 5.5t3 5.5q11 18 24 31q10 10 27 22l2 1q0 3 -0.5 9t-0.5 8q-2 19 -2 42q0 8 1 29.5t1 46.5q0 6 8 14q7 7 15 7q11 0 20 -13t12 -26l4 -21q3 -14 3 -22v-5q0 -9 2 -21q2 -20 2 -31q75 -15 84 -51q3 -9 3 -24q0 -30 -24 -30h-5q-14 0 -18 5
q-2 3 -4.5 5t-4 3t-5.5 1.5t-5.5 1t-8 0.5h-9.5h-10q-2 -1 -7.5 -2t-9.5 -2t-5 -2l-10 -11q-6 -6 -12 -14l-13 -18q-1 -2 -3.5 -6t-3.5 -5q-7 -11 -11 -19t-5 -11t-3.5 -15t-3.5 -18v-4v-7v-13q1 -4 1 -13q0 -1 0.5 -3.5t0.5 -3.5q7 -37 15 -46q2 -3 5.5 -9.5t5.5 -9.5
q19 -22 69 -22q5 0 30.5 7t29.5 7q4 1 14 1q7 0 10 -2q9 -6 9 -30z" />
    <glyph glyph-name="sterling" unicode="&#xa3;" horiz-adv-x="468" 
d="M176 510q-1 -5 -1 -17v-21q0 -15 1 -22h3v1q5 1 15 1h25q5 0 14 0.5t13 0.5q2 0 15 0.5t23 0.5q51 0 70 -19q11 -11 11 -21q0 -26 -34 -35l-13 -3l-68 -11q-5 -1 -37 -2.5t-47 -5.5l-1 -2q-2 -30 -2 -45q0 -7 -0.5 -22.5t-0.5 -22.5q0 -2 0.5 -5t0.5 -5q0 -9 1 -28t1 -28
q0 -48 10 -84q0 -1 1 -3q2 0 7 0.5t7 0.5h20q2 0 8 0.5t9 0.5h18q7 0 22 -0.5t23 -0.5q14 0 29.5 2.5t22.5 3.5h9q18 0 27 -1l24 -3q29 -7 29 -35q0 -17 -7 -32.5t-17 -17.5q-4 0 -16.5 -2.5t-19.5 -2.5q-6 -1 -21 -1h-26h-1h-23h-11q-5 0 -15.5 -1t-15.5 -1h-31
q-5 0 -14.5 0.5t-14.5 0.5h-4q-8 0 -21.5 -2t-20.5 -2q-14 0 -53 -4t-50 -5q-1 0 -7.5 -1t-11.5 -1q-26 0 -30 27v8q0 30 12 49q7 10 24.5 13.5t31.5 3.5t14 2q0 3 -2.5 12t-2.5 12v17q0 11 2 35q0 3 0.5 10t0.5 11q0 3 0.5 9t0.5 9q1 14 5 37q3 18 5.5 52t4.5 47h-4
q-12 0 -38 8q-12 3 -22.5 10t-11.5 17q0 3 -0.5 8t-0.5 7q0 19 19 23q51 6 62 6h3v4l7 65q10 97 51 133t146 36q22 0 59.5 -20t52.5 -35q10 -9 5 -25q0 -1 -0.5 -2t-0.5 -2q-5 -18 -15 -27.5t-29 -13.5h-1l-2 -1q-2 0 -5 -0.5t-4 -0.5q-36 30 -73 30h-6q-57 -6 -81 -22
t-31 -50z" />
    <glyph glyph-name="currency" unicode="&#xa4;" horiz-adv-x="551" 
d="M154 282v-9q0 -12 6 -30q12 -28 28 -49q20 -24 44 -24q33 0 74 43q2 3 6 9.5t7 9.5q1 2 4 6t4 5q16 23 28 69q0 1 6 49v17q0 2 1 8.5t0 10.5q-13 74 -64 91q-18 6 -23 6q-7 0 -12.5 -2t-11.5 -6.5t-9 -7.5t-9 -10.5t-8 -9.5q-12 -15 -29 -51q-8 -13 -9 -16l-9 -22
q-21 -63 -23 -74q0 -3 -0.5 -7t-0.5 -6zM105 214q-5 8 -6 16q-8 19 -8 42q0 4 0.5 11t0.5 11q0 1 1 18t2 25q11 50 27 80q23 47 28 53q1 2 4 6.5t5 6.5q-42 32 -70 106q-6 14 -6 22q0 12 8 17q16 10 21 10q8 0 21 -14q21 -21 32 -41q3 -4 7 -10.5t6 -10.5q3 -7 12 -17
t11 -13q37 33 78 33h8q23 -2 36 -7q2 0 5.5 -2t5.5 -2h-1q13 -5 17 -9q22 -17 42 -40q9 15 49 67l31 31q4 5 10 7h1q6 2 7 2q11 0 23 -14q0 -2 2 -8q2 -8 2 -11q0 -10 -5.5 -19.5t-15 -20.5t-11.5 -15q-6 -10 -10 -14q-8 -13 -23.5 -36.5t-19.5 -29.5q21 -47 21 -85
q0 -1 -0.5 -5t-0.5 -6q-1 -4 -1.5 -11t-0.5 -11q0 -1 -2 -6.5t-2 -7.5q-1 -4 -2 -12.5t-2 -12.5q-15 -51 -25 -65q-3 -4 -10.5 -18.5t-12.5 -21.5q-2 -2 -5.5 -6.5t-5.5 -6.5q4 -2 13 -11q24 -27 32 -41q2 -4 6.5 -10.5t6.5 -10.5q3 -5 16 -21.5t13 -27.5q0 -4 -1 -6
q-2 -11 -12 -21.5t-20 -10.5q-6 0 -10 4q-13 10 -26 23.5t-20.5 24t-20.5 30t-20 28.5q-1 2 -4 10q-6 -6 -18 -12q-3 -2 -9 -5.5t-8.5 -5t-8 -4.5t-9 -4.5t-9 -3.5t-9.5 -3t-10 -1.5t-12 -0.5h-14q-25 4 -34 11q-15 9 -27 20q-3 -4 -10 -13t-10 -13q-1 -1 -4.5 -6t-5.5 -8
q-9 -15 -60 -89q-9 -15 -22 -15q-20 0 -25 30v5q0 27 17 52q30 47 56 80q3 4 25 26q-5 10 -14 26t-10 19z" />
    <glyph glyph-name="yen" unicode="&#xa5;" horiz-adv-x="485" 
d="M204 479q9 -9 29 -27l1 2q6 6 19 16t18 15q12 9 34.5 31t35.5 32q36 27 51 33q8 3 19 3h1q25 -2 32 -15q5 -10 5 -21q0 -7 -5 -32q0 -2 -0.5 -6.5t-1.5 -6.5q-11 -25 -23 -40q-2 -3 -24 -19q-24 -17 -40 -32q-18 -16 -41 -33q-3 -3 -9 -7q-21 -18 -31 -35q-1 -7 -1 -21
q35 0 68 -12q18 -7 18 -29q0 -12 -8 -19q-9 -6 -17 -6q-7 0 -23 5t-24 5q-5 1 -15 1q-1 -14 -1 -42q1 0 3.5 -0.5t3.5 -0.5h5q6 0 17 1t16 1q18 0 28 -7q12 -6 12 -22q0 -11 -8 -17q-29 -22 -54 -22h-26v-2q0 -4 -0.5 -12.5t-0.5 -12.5q-1 -8 -1 -27.5t-1.5 -32.5t-5.5 -23
q-10 -31 -38 -42q-5 -3 -12 -3q-6 0 -20 8q-24 14 -24 78q0 2 0.5 7.5t0.5 8.5v14.5t1 13.5v15v13v1q-7 0 -10 1q-41 0 -61 21q-6 6 -6 16t6.5 19t15.5 11q27 6 49 6q7 0 10 -1q0 7 1 10l2 27q0 1 1 2q-12 2 -18 2q-3 1 -11 1q-3 0 -9 -0.5t-8 -0.5q-17 0 -29 11q-5 5 -5 15
q0 15 14 22q12 6 21 6q7 0 22.5 -4t23.5 -4h2v28v14q0 2 -0.5 5.5t-1.5 5.5q-6 5 -39 34q-4 3 -22 21q-3 4 -35.5 33t-41.5 50q-3 9 -3 17q0 30 36 39q3 1 8 1q10 0 19 -3q45 -12 71 -38q16 -14 34 -42q1 -1 1 -2z" />
    <glyph glyph-name="brokenbar" unicode="&#xa6;" horiz-adv-x="207" 
d="M139 442q0 -25 -15 -43t-33 -18q-29 0 -33 43q0 2 -0.5 6t-0.5 6q0 6 0.5 13t1.5 15.5t1 13.5q0 13 1 36.5t1 36.5q2 49 14 82q5 13 8 19t11.5 12.5t20.5 6.5h1h1l-1 -1h1q18 -3 24 -15t6 -38v-21q-1 -23 -4.5 -83t-4.5 -71zM153 281q4 -8 4 -28v-6q1 -5 1 -17
q0 -11 -1 -16q0 -4 -0.5 -14t-0.5 -14v-29q0 -2 -1 -2v-29q0 -4 -0.5 -12.5t-0.5 -12.5q-2 -14 -8 -40q-10 -55 -37 -55h-7q-43 8 -48 77q0 4 -1 11.5t-1.5 13.5t-0.5 11v19q0 30 1 44q0 12 1.5 32.5t1.5 39.5q0 25 16.5 43.5t37.5 18.5q29 0 44 -35z" />
    <glyph glyph-name="section" unicode="&#xa7;" horiz-adv-x="353" 
d="M53 238q-16 21 -16 63q0 28 7 54q18 40 42 66q22 24 34 34q-16 23 -16 61q0 27 9 54q16 39 41 66q28 30 45 42q21 15 37 15q10 0 18 -4q11 -5 11 -19q0 -17 -11 -32q-23 -28 -36 -35q-28 -17 -31 -53v-4q0 -26 21 -58q10 -16 22 -27q61 -55 80 -110q7 -17 7 -48
q0 -61 -54 -95q-21 -13 -50 -18q21 -28 30 -54q7 -17 7 -48q0 -61 -54 -95q-34 -21 -91 -21q-49 0 -64 25q-4 7 -4 14q0 17 23 32q11 7 23 8q39 8 56 20q26 20 26 44v5q-3 14 -11 27q-3 5 -10.5 12t-9.5 9q-12 14 -19 20q-28 20 -46 36q-13 11 -16 14zM145 265q2 1 7 1
q38 8 56 20q24 20 24 44v5q-2 12 -10 27q-3 5 -10.5 12t-9.5 10q-13 13 -20 19l-7 7q-15 -17 -24 -22q-29 -17 -31 -54v-4q0 -25 19 -57q1 -2 3 -4t3 -4z" />
    <glyph glyph-name="dieresis" unicode="&#xa8;" horiz-adv-x="300" 
d="M96 762h2q9 2 22 -4q13 -4 21 -12q15 -15 16 -26q0 -1 0.5 -2.5t0.5 -2.5t0.5 -4t0.5 -5q0 -26 -20 -42q-20 -15 -34 -15q-8 0 -15 4q-41 21 -41 50q0 39 33 55q6 3 7 3t3.5 0.5t3.5 0.5zM187 713q3 19 13.5 33.5t27.5 14.5q6 0 9 -1q8 -2 16.5 -10.5t9.5 -15.5v-13v-18
q-4 -47 -32 -52q-1 0 -3 -0.5t-3 -0.5q-14 0 -25 12.5t-13 26.5q0 2 -0.5 6.5t-0.5 6.5t0.5 6t0.5 5z" />
    <glyph glyph-name="copyright" unicode="&#xa9;" horiz-adv-x="738" 
d="M463 175q0 -39 -57 -39q-3 0 -9 0.5t-9 0.5h-17q-2 0 -17 3q-42 5 -76 39q-12 12 -16 21q-2 3 -5 9.5t-5 9.5q-27 54 -28 83v17q0 7 9 55l7 18q4 12 7 17l9 21q9 25 10 26t3.5 4t3.5 5t3.5 5.5t3.5 5.5q12 20 23 31q8 8 28 22l9 7q26 12 44 12q28 0 54.5 -22.5
t26.5 -46.5q0 -9 -10 -13.5t-17 3.5q-3 4 -5 6t-5.5 2.5t-6 1t-9.5 0.5h-11h-10q-2 -1 -7 -2t-9 -2t-5 -2l-11 -10q-6 -6 -12 -14l-12 -19q-1 -2 -3.5 -5.5t-3.5 -4.5q-9 -14 -13 -26t-7.5 -32t-4.5 -27v-11v-13q1 -4 1 -13q0 -1 0.5 -3.5t0.5 -3.5q7 -35 16 -46
q2 -3 5.5 -9.5t5.5 -9.5q19 -22 68 -22q10 0 30 2q18 2 24 -1q9 -6 9 -30zM624 569q22 -30 41 -67q13 -26 26 -80q5 -22 5 -41v-3q0 -6 -0.5 -19t-0.5 -20q-5 -103 -11 -126q-16 -50 -33 -79q-6 -11 -20 -33q-27 -45 -74 -68l-37 -19q-29 -14 -35 -17q-42 -17 -85 -17h-5
q-14 0 -40 2q-69 5 -123 22q-30 9 -78 47q-34 28 -57 63q-35 58 -38 66q-10 24 -18 84q-2 11 -2 34v13q0 69 17 123q2 6 7 22.5t8 25t8.5 20.5t11.5 21q18 25 31 34q14 15 28 31q23 27 47 40q22 14 36 21q42 27 54 32q8 4 19 7t24 5.5t19 4.5q18 4 29 4h30
q76 -5 123.5 -38.5t92.5 -94.5zM523 566q-81 65 -140 65q-33 0 -72 -16q-5 -2 -54 -31q-1 0 -3 -1t-3 -1q-12 -11 -23 -23l-25 -30t-29 -39l-12 -21q-16 -37 -21 -67q-3 -24 -5 -63q0 -7 -0.5 -21.5t-0.5 -21.5q0 -4 0.5 -11t0.5 -10q2 -16 10 -43q10 -38 24 -60
q5 -6 11 -12.5t13 -14t11 -11.5q3 -3 11.5 -12t13 -13t12.5 -10t16 -10q22 -9 57 -16q9 -1 62 -4q5 0 17 -0.5t17 -0.5q18 0 44 4q35 10 77 41q32 25 41 35q13 17 32 67q15 41 15 43q3 22 3 48q0 4 -0.5 12t-0.5 11q-4 22 -6 32q-2 7 -11 43t-15 55q-2 5 -27 49
q-2 4 -10.5 19.5t-13.5 23.5q-3 3 -8.5 8t-7.5 7z" />
    <glyph glyph-name="ordfeminine" unicode="&#xaa;" horiz-adv-x="309" 
d="M193 502q-33 -42 -78 -42q-38 0 -65 24t-27 60q0 47 28 90q29 45 77 62q9 3 11 3q8 1 20 1h1q15 0 21 -17q14 0 27.5 -8.5t15.5 -19.5q0 -1 1 -5.5t1 -6.5q2 -7 5 -23t5.5 -24.5t7.5 -19.5t12 -18q3 -3 14 -10t13 -13l5 -8v-7q0 -5 -1 -7q0 -1 -1 -3l-2 -2
q-2 -5 -4.5 -14t-3.5 -13q-10 -15 -29 -15q-26 0 -45 23q-1 1 -9 13zM104 537q3 -3 8 -3q14 0 35 18q18 20 18 37q0 2 -0.5 6.5t-0.5 5.5q0 2 -0.5 6.5t-0.5 6.5v14q0 1 0.5 3t0.5 3q-4 0 -5 -1q-3 -2 -16.5 -9t-23 -13.5t-13.5 -12.5q-9 -18 -9 -37q0 -14 7 -24z" />
    <glyph glyph-name="guillemotleft" unicode="&#xab;" horiz-adv-x="655" 
d="M611 421v-2v-4q0 -19 -27 -30q-14 -8 -34 -11q-16 -4 -34 -11t-28 -12l-11 -5q-48 -13 -59 -25q0 -2 21.5 -15t24.5 -14q9 -2 14.5 -4t10 -3.5t21 -6.5t40.5 -13l6 -3l11 -6q11 -7 14 -9.5t7.5 -9.5t4.5 -15q0 -5 -4 -11q-11 -16 -32 -16q-6 0 -10 1q-20 6 -29.5 9t-13 4
t-4.5 1.5t-2 1.5t-8 3.5t-19 6.5q-11 4 -34.5 15t-36.5 16q-6 3 -19 8t-19 7v1h-2l-12 7q-13 7 -17 10.5t-9.5 12t-5.5 18.5q0 22 3.5 31t15.5 14q3 1 9 5q23 15 58 24q19 4 28 10q65 28 91 38q2 1 18 4q27 9 39 9q11 0 22 -10.5t11 -19.5v-1zM344 222q1 0 1 -1
q0 -9 -12 -20t-24 -11q-13 0 -40 9q-15 3 -18 5q-26 9 -95 39q-9 6 -29 10q-28 7 -60 26q-5 4 -11 5q-13 5 -13 22q0 2 0.5 11t0.5 15q0 20 14.5 42t29.5 32h1l1 1q6 3 19.5 8t19.5 7q14 5 38.5 16.5t35.5 15.5q19 7 45.5 18.5t73.5 25.5h4q6 0 11.5 -5t8.5 -10.5t8 -14.5
t6 -11q5 -8 5 -12q0 -7 -2 -12t-8 -10.5t-8.5 -7.5t-11.5 -7l-9 -5q-3 -2 -5 -3q-45 -14 -83 -27.5t-47 -16.5q-4 -1 -26 -14t-22 -15q13 -14 63 -27q38 -20 76 -29q18 -3 34 -11q29 -14 29 -31l-1 -2v-3v-2z" />
    <glyph glyph-name="logicalnot" unicode="&#xac;" horiz-adv-x="388" 
d="M281 322q7 0 13 -0.5t10.5 -0.5t7.5 -2.5t5.5 -3t4.5 -4.5t3 -5t2.5 -7.5t1.5 -8.5t1.5 -11t1.5 -12q3 -24 3 -30q0 -4 -0.5 -11.5t-0.5 -13.5v-16q2 -16 0 -32q-2 -35 -16 -48l-2 -1q-8 -5 -17 -5q-17 0 -24 15q-7 10 -7 32v13q1 8 1 19q0 6 -1.5 17t-1.5 27q0 3 -1 4.5
t-3.5 1.5h-5t-7 -0.5t-7.5 -0.5q-62 0 -107 5q-19 2 -29.5 3.5t-27 6t-24 13.5t-7.5 23q0 20 27 26q38 7 86 7q9 0 27.5 -1.5t26.5 -1.5q12 0 33.5 1.5t33.5 1.5z" />
    <glyph glyph-name="uni00AD" unicode="&#xad;" horiz-adv-x="390" 
d="M108 326q12 0 32 -3.5t32 -3.5q8 0 26.5 1.5t27.5 1.5q48 0 86 -7q27 -6 27 -26q0 -11 -7.5 -18.5t-22.5 -11t-26 -5t-31 -2.5t-25 -1q-45 -5 -83 -5q-19 0 -31.5 1t-28 5t-23.5 13t-8 24q0 37 55 37z" />
    <glyph glyph-name="registered" unicode="&#xae;" horiz-adv-x="737" 
d="M278 146q-5 25 -5 36l1 1v2q0 7 0.5 20t0.5 20q0 25 1 38q0 7 2 21.5t2 18.5q1 14 1 42v42q0 7 0.5 21t0.5 20q0 10 5 43q1 3 1 10t1 11q0 2 0.5 5.5t0.5 5.5q0 9 1 13q0 18 27 23l16 3q18 3 40 3q68 0 88 -52q10 -22 10 -41q0 -3 0.5 -9.5t0.5 -9.5v-1q0 -32 -18 -68
q-4 -8 -12.5 -15t-14 -10t-19.5 -9t-17 -8l12 -25q7 -17 25 -47q3 -3 9.5 -14.5t11.5 -16.5q4 -4 7.5 -13t4.5 -10l15 -31q3 -6 4 -15v-7q0 -20 -15 -22q-1 0 -3.5 -0.5t-3.5 -0.5h-1q-15 0 -26 6.5t-14.5 11.5t-11 20.5t-9.5 19.5q-1 2 -2.5 6.5t-2.5 6.5l-6 13
q-11 18 -16 43q-8 18 -11 27q-1 4 -3.5 12t-3.5 11v1l-1 2q-1 1 -1 2.5t-1 2.5h-1q-4 -1 -12 -6t-9 -5v-3q0 -1 0.5 -4t0.5 -4t-0.5 -2t-0.5 -2t-0.5 -5t-0.5 -6v-18q0 -1 -0.5 -4.5t-0.5 -5.5v-21q0 -6 -0.5 -13t-1.5 -15t-1 -13q0 -2 -0.5 -5.5t-0.5 -5.5v-8t-0.5 -9
t-1 -8t-1.5 -7.5t-2.5 -6.5t-4 -5.5t-6 -3t-7.5 -1.5h-2l-2 1q-16 8 -16 27zM328 472v-4q0 -5 -0.5 -14.5t-0.5 -13.5q0 -2 0.5 -6t0.5 -6q1 -5 1 -17q0 -2 0.5 -7.5t0.5 -8.5q0 -4 1 -12.5t2 -12.5v-1h2q4 1 9.5 3t11.5 4l9 3l12 6l11 6q11 6 15 10q6 8 11 22v21
q-1 3 -2.5 11t-2.5 11.5t-3.5 9t-5.5 9t-8 5.5l-1 1q-1 1 -2 1h-23q-22 -5 -37 -11h-2q0 -2 0.5 -5t0.5 -4zM623 559q23 -30 41 -67q13 -26 26 -80q5 -22 5 -41v-3q0 -6 -0.5 -19t-0.5 -20q-5 -143 -44 -205q-6 -11 -20 -33q-27 -45 -74 -68l-37 -19q-29 -14 -35 -17
q-44 -18 -85 -18h-5q-14 0 -40 2q-66 4 -123 23q-30 9 -78 47q-36 29 -57 62q-32 55 -38 67q-10 24 -18 84q-2 11 -2 34v13q0 69 17 123q30 90 87 150t144 97q8 4 19 7t24 5.5t19 4.5q18 4 29 4h30q76 -5 123.5 -38.5t92.5 -94.5zM382 621q-33 0 -72 -16q-54 -21 -83 -56
l-25 -30t-29 -39l-12 -21q-16 -37 -21 -67q-3 -23 -5 -63q0 -7 -0.5 -21.5t-0.5 -21.5q0 -4 0.5 -11t0.5 -10q2 -16 10 -43q10 -38 24 -60q5 -6 11 -12.5t13 -14t11 -11.5q3 -3 11.5 -12t13 -13t12.5 -10t16 -10q28 -11 57 -17q9 -1 62 -4q6 0 17 -0.5t17 -0.5q18 0 44 4
q35 10 77 41q85 67 85 196q0 74 -27 151q-2 5 -27 49q-29 51 -77 87t-103 36z" />
    <glyph glyph-name="macron" unicode="&#xaf;" horiz-adv-x="384" 
d="M337 657l-2 -2q-13 -13 -49 -13q-16 0 -31 3h-16q-6 0 -18 -0.5t-17 -0.5t-7 1q-35 0 -63 5q-5 1 -15 3.5t-15 3.5q-29 9 -29 28q0 5 2 8q5 13 25 24t44 13l24 2q1 0 4.5 0.5t5.5 0.5q8 0 24 -1.5t24 -1.5h11h11q8 0 24 -1t23 -1q37 0 45 -25q1 -2 1 -10q0 -29 -6 -36z
" />
    <glyph glyph-name="degree" unicode="&#xb0;" horiz-adv-x="277" 
d="M142 453q-4 -1 -11 -1q-28 0 -55.5 28t-27.5 57q0 12 3 23t5.5 17t9 17.5t8.5 15.5q19 40 60 54h9q2 1 7 1q19 0 39 -11.5t25 -24.5q0 -2 2.5 -8.5l5 -13t2.5 -7.5q3 -29 3 -51q0 -27 -4.5 -43.5t-18 -27t-24.5 -14.5t-38 -11zM171 570q-3 8 -14.5 17t-21.5 9
q-7 0 -15 -6q-8 -8 -14 -27q-2 -8 -2 -18q0 -11 10 -20.5t22 -9.5q3 0 9 2q11 5 19 20t8 26q0 5 -1 7z" />
    <glyph glyph-name="plusminus" unicode="&#xb1;" horiz-adv-x="350" 
d="M131 137q-10 -1 -30 -1q-23 0 -35 6.5t-13 27.5q0 36 50 38h6q6 0 36 -3h21q92 0 120 -5q26 -4 26 -27q0 -11 -15 -18.5t-39 -10.5t-47 -4t-48 -1.5t-32 -1.5zM70 441q9 3 31 5.5t25 3.5h7v5q2 90 45 90h2q34 -1 34 -51q0 -14 -5 -42q34 0 61 -10q30 -12 30 -30
q0 -41 -68 -41h-25q-1 -44 -9 -77q-6 -26 -27 -26h-1q-11 0 -18 7t-10 20.5t-4 24t-1.5 29t-0.5 23.5q-9 0 -25 0.5t-20 0.5q-16 1 -33.5 12.5t-17.5 30.5q0 12 23 23q4 2 7 2z" />
    <glyph glyph-name="uni00B2" unicode="&#xb2;" horiz-adv-x="291" 
d="M117 402l17 2q14 2 26.5 4.5t25.5 4.5q2 0 6.5 0.5t7.5 0.5q5 0 8 -1q17 -3 21 -15q3 -8 3 -21q0 -9 -11.5 -19t-19.5 -12q-36 -4 -64 -4h-8q-36 0 -53 -3q-3 0 -4 1h-1q-18 0 -20 18q-2 22 -2 34q0 93 65 127q60 32 68 50q4 12 4 16q0 25 -23 25q-15 0 -49 -13.5
t-40 -13.5q-12 0 -15 14q-2 16 -2 21q0 20 17 30q20 14 22 14q26 13 44 13q24 0 44 -3q19 -2 35 -14t21 -29q0 -2 1 -7.5t1 -8.5q0 -2 0.5 -6.5t0.5 -6.5q0 -38 -7 -55t-29 -30q-90 -56 -90 -113z" />
    <glyph glyph-name="uni00B3" unicode="&#xb3;" horiz-adv-x="306" 
d="M201 571q0 36 -42 41q-5 0 -60 -5q-1 0 -1 -0.5t-1 -0.5q-10 0 -20.5 12.5t-10.5 22.5v1q0 34 64 34q46 0 85 -22q3 -2 8 -8.5t8 -8.5l11 -10q14 -19 14 -42v-1q0 -37 -32 -69q34 -40 34 -82v-7q-1 -10 -9 -32q-6 -19 -13 -29q-42 -60 -92 -60q-4 0 -14 1t-14 1
q-19 0 -57 12q-22 7 -22 28q0 14 8.5 27t19.5 13q21 0 28 -5q15 -8 21 -9h3q5 -3 11 -4q32 0 45 14.5t13 51.5v1q0 49 -59 49q-12 0 -19 12t-7 20q0 7 8 16.5t20 9.5q3 0 14.5 -0.5t15.5 -0.5h2q10 0 20 2q17 8 20 27z" />
    <glyph glyph-name="acute" unicode="&#xb4;" horiz-adv-x="281" 
d="M86 621q-10 1 -26 16t-16 25q0 5 1 8q3 16 25 38q24 26 49.5 49.5t47.5 45.5q5 5 14 5q11 0 24.5 -13.5t13.5 -22.5q0 -20 -10 -34q-12 -17 -30 -37t-26 -31q-9 -12 -21 -24q-25 -25 -44 -25h-2z" />
    <glyph glyph-name="mu" unicode="&#xb5;" horiz-adv-x="443" 
d="M79 571q33 0 39 -52q4 -37 4 -115q0 -116 30 -186q1 -2 6 -13t7 -14t9 -7.5t17 -4.5h6q19 7 34 41q26 69 26 137q0 13 2 37.5t2 38.5q0 13 -1 38t-1 38q0 4 0.5 13t0.5 13q0 3 -0.5 10t-0.5 10q0 67 38 67q13 0 27 -14q18 -17 24 -31q6 -16 6 -57q5 -142 5 -171v-13
q-2 -50 -2 -90q0 -132 32 -159q2 -2 6 -4.5t6 -4.5l5 -5t4 -6t1 -6q0 -13 -0.5 -20t-2.5 -16.5t-7 -15.5t-14 -9q-7 -3 -13 -3q-17 0 -48 29q-24 22 -31 35q-6 -7 -20 -17q-16 -11 -56 -11q-31 0 -51 16q-3 2 -18 13t-22 17q-1 -9 -1 -28q0 -10 1.5 -31t1.5 -31v-25
q0 -26 -2 -35q-2 -8 -13 -16.5t-22 -8.5q-15 0 -21 18q-3 8 -3 21q0 4 0.5 13t0.5 14q0 260 -18 439q-2 20 -2 60q0 9 -0.5 27t-0.5 26q0 49 30 49z" />
    <glyph glyph-name="paragraph" unicode="&#xb6;" horiz-adv-x="501" 
d="M122 319q-5 1 -11.5 5.5t-7.5 4.5q-7 4 -19 12q-16 12 -33 55q-4 8 -6 18.5t-2.5 18.5t-1.5 22.5t-1 20.5q0 2 0.5 4t0.5 4q0 55 29 84q2 2 5.5 5t4.5 4q5 5 13.5 9.5t15.5 6.5t19 5t17 5q15 6 25 7q6 1 18.5 2t18.5 2l2 1q27 5 49 5q10 0 29 -1t29 -1h9q6 0 16 1t17 1h7
h10q6 0 10 1t9 1q2 0 10.5 1.5t12.5 1.5q8 0 9 -4q3 -6 4.5 -36t2.5 -66t2 -46q6 -52 9 -107.5t4.5 -131.5t3.5 -121v-1q0 -1 -1 -5t-1 -6q-2 -44 -5 -53q-3 -8 -8 -17q-12 -19 -29 -19t-26 17q-10 16 -10 38q0 5 0.5 14t0.5 14v7v30q1 22 1 70v63q0 17 0.5 47t0.5 43
q0 139 -6 149v5v5q0 8 -3 12q-1 2 -8 2q-5 0 -18 -2.5t-17 -2.5t-7.5 -2t-6.5 -3q1 -21 5 -54q1 -9 4 -62q4 -41 11 -186l2 -40l1 -21v-11v-11.5t1 -11.5v-28q0 -4 0.5 -11.5t0.5 -11.5v-7q0 -16 -8 -31t-22 -15h-7q-4 0 -11 7q-11 11 -17 47q-2 17 -5.5 49t-4.5 47
q-1 11 -1.5 33t-0.5 29q-2 30 -2 47q0 16 -1 23q0 10 -1 15h-6q-1 0 -9 -0.5t-20 -1t-23 -0.5q-41 0 -73 7z" />
    <glyph glyph-name="periodcentered" unicode="&#xb7;" horiz-adv-x="244" 
d="M129 424q33 0 49.5 -20.5t16.5 -55.5q0 -72 -37 -96q-13 -8 -31 -8q-37 0 -58.5 21.5t-21.5 58.5q0 36 16 58q9 12 36 30q14 12 30 12z" />
    <glyph glyph-name="cedilla" unicode="&#xb8;" horiz-adv-x="246" 
d="M92 -127q-2 -1 -6 -1q-17 0 -29 8.5t-12 23.5q0 19 6.5 33.5t19.5 32t19 27.5q23 38 37 64q3 9 12 10q4 2 8 2q14 0 23.5 -14.5t9.5 -28.5q0 -2 -1 -4.5t-1 -3.5l-6 -22q-5 -15 -7.5 -24t-7 -18t-6.5 -12t-10 -15.5t-12 -19.5q-19 -32 -35 -38h-2z" />
    <glyph glyph-name="uni00B9" unicode="&#xb9;" horiz-adv-x="208" 
d="M53 573q-11 0 -11 49q0 8 3 12q14 26 52 41q9 3 19 3q16 0 29 -10t14 -27q0 -33 -6 -101.5t-7 -94.5l-2 -37q0 -4 -1 -11.5t-1.5 -13.5t-0.5 -11l-2 -19q0 -13 -4 -21t-6.5 -10.5t-10.5 -8.5q-2 -2 -6 -2h-3q-3 0 -4 1h-1q-5 0 -15 13q-9 15 -9 52v32q0 3 0.5 8.5
t0.5 8.5q2 27 2 63t1 57q0 3 1 21t2 25v3q-1 -1 -5.5 -3.5t-7.5 -5.5q-13 -13 -21 -13z" />
    <glyph glyph-name="ordmasculine" unicode="&#xba;" horiz-adv-x="307" 
d="M123 407h4q8 0 29.5 -0.5t26.5 -0.5q8 0 20.5 1t16.5 1q16 0 34 -11q6 -5 6 -13q0 -20 -15 -27q-10 -5 -18 -7.5t-17.5 -4t-14 -2t-18 -0.5h-19.5q-4 0 -23 -2t-29 -2q-21 0 -34 8q-18 11 -18 32q0 12 9 18q16 12 27 12q3 0 12.5 -1t16.5 -1h4zM153 675q29 -8 41.5 -12.5
t27 -16t19.5 -30t5 -48.5q0 -22 -3 -56q0 -1 -2.5 -8t-6 -14.5t-3.5 -8.5q-5 -14 -27 -27t-43 -13q-4 0 -7 1q-7 0 -11 1q-44 13 -65 58q-3 5 -9.5 17.5t-10 20t-6.5 19.5t-3 25q0 31 30 62t61 31q9 0 13 -1zM178 542q2 8 2 15q0 40 -22 50q-6 3 -13 3q-14 0 -25.5 -11.5
t-11.5 -24.5q0 -15 2 -21q10 -27 16 -33q8 -8 17 -8q20 0 35 30z" />
    <glyph glyph-name="guillemotright" unicode="&#xbb;" horiz-adv-x="654" 
d="M42 421v1q0 9 11.5 19.5t23.5 10.5q11 0 38 -9q14 -3 17 -4q26 -10 91 -38q9 -6 28 -10q35 -9 58 -24q6 -4 9 -5q13 -5 16 -14t3 -31q0 -10 -5.5 -18.5t-9.5 -12t-16 -10.5l-13 -7h-2v-1q-4 -2 -17.5 -7t-19.5 -8q-14 -5 -38 -16t-34 -15q-24 -8 -28 -11q-3 -2 -48 -15
q-4 -1 -10 -1q-20 0 -31 16q-5 7 -5 11q0 6 2 11.5t7.5 10t8.5 6.5t11 6.5t9 5.5q2 2 5 3q24 8 40.5 13t21 6.5t10 3.5t14.5 4q3 1 25 14t22 15q-10 12 -60 25q-37 20 -73 28q-17 3 -33 11q-28 11 -28 30v4v2zM309 222v2q0 1 -1 3v2q0 17 29 31q15 8 35 11q17 4 36 11.5
t30 12.5l11 5q49 13 61 27q0 2 -22 15t-26 14q-9 3 -46.5 16.5t-82.5 27.5l-5 3l-9 5q-9 5 -11.5 7t-8.5 7.5t-8 10.5t-2 12q0 6 4 12q1 2 4.5 8.5t6.5 11t7 10t8 8.5t9 3h4q47 -14 73.5 -25.5t45.5 -18.5q11 -4 35 -15.5t38 -16.5q6 -2 19.5 -7t19.5 -8l1 -1h1
q15 -10 29.5 -32t14.5 -42q0 -6 0.5 -15t0.5 -11q0 -17 -13 -22q-4 -1 -10 -5q-28 -17 -61 -26q-19 -3 -28 -10q-68 -30 -96 -39q-4 -2 -18 -5q-27 -9 -40 -9q-12 0 -23.5 11t-11.5 20v1z" />
    <glyph glyph-name="onequarter" unicode="&#xbc;" horiz-adv-x="502" 
d="M47 573q-11 0 -11 49q0 8 3 12q14 26 52 41q9 3 19 3q16 0 29 -10t14 -27q0 -33 -6 -101.5t-7 -94.5l-2 -37q0 -4 -1 -11.5t-1.5 -13.5t-0.5 -11l-2 -19q0 -13 -4 -21t-6.5 -10.5t-10.5 -8.5q-2 -2 -7 -2h-3q-2 0 -3 1h-1q-5 0 -15 13q-9 15 -9 52v32q0 3 0.5 8.5
t0.5 8.5q2 27 2 63t1 57q0 3 1 21t2 25v3q-1 -1 -5.5 -3.5t-7.5 -5.5q-13 -13 -21 -13zM109 10q-5 -5 -12 -5q-9 0 -15 11v2l-1 2q-9 20 -9 35q0 9 3 18q5 16 40.5 118.5t49.5 148.5q6 20 14 40.5t18 45.5t16 39l47 120q15 42 24 60q12 26 19 33q12 10 19 10q9 -2 15 -9
q10 -14 10 -36q0 -2 -0.5 -7.5t-0.5 -7.5q-1 -12 -4.5 -25t-7 -22.5t-10 -25t-9.5 -23.5q-57 -153 -120 -310q-2 -7 -11 -29t-13 -35l-12 -32q-8 -20 -13 -30q-4 -9 -10.5 -28.5t-9.5 -27.5q-11 -24 -17 -30zM273 179q0 6 1 65.5t1 68.5q0 42 12 66q6 10 17 10q7 -2 12 -7
t7.5 -14t3.5 -15t2 -18.5t2 -17.5q0 -2 1.5 -60t2.5 -61v-14q14 3 23 8t37 12h7q0 5 -0.5 15t-0.5 15v37q0 3 -0.5 9t-0.5 9t-0.5 9t-0.5 10l1 40q0 13 7 21t14 8q32 0 36 -49q0 -3 3 -72v-22v-10q0 -28 -3.5 -86t-3.5 -87q0 -8 -6 -20q-2 -5 -8.5 -11t-14.5 -6q-5 0 -7 2
q-10 5 -16.5 22.5t-6.5 33.5v18q0 9 2 21v2q0 5 1 16t1 16v2q-15 -5 -31 -12t-24.5 -10.5t-11.5 -3.5q-4 0 -4 -1h-8h-8q-19 0 -27.5 14.5t-8.5 33.5q0 2 -1 6.5t-1 6.5z" />
    <glyph glyph-name="onehalf" unicode="&#xbd;" horiz-adv-x="492" 
d="M329 76l18 3q13 2 25.5 4t26.5 4q2 0 6.5 0.5t7.5 0.5q5 0 8 -1q1 0 3.5 -1t3.5 -1t3.5 -1t3.5 -2.5t2.5 -3t2.5 -4t2 -6t1.5 -8t0.5 -9.5q0 -10 -11 -20t-19 -11q-36 -4 -64 -4h-8q-28 0 -53 -3q-3 0 -4 1h-1q-18 0 -20 19q-2 20 -2 34q0 92 64 127q60 30 69 50
q3 8 3 15q0 26 -22 26q-16 0 -49 -14t-40 -14q-12 0 -15 13q-2 16 -2 23q0 19 17 30q18 12 21 13q24 12 45 12q31 0 44 -2q19 -3 35 -15t21 -28q1 -3 1.5 -8t0.5 -8q0 -1 0.5 -6t0.5 -7q0 -38 -7 -55t-30 -30q-90 -58 -90 -113zM47 573q-11 0 -11 49q0 8 3 12q14 26 52 41
q9 3 19 3q16 0 29 -10t14 -27q0 -33 -6 -101.5t-7 -94.5l-2 -37q0 -4 -1 -11.5t-1.5 -13.5t-0.5 -11l-2 -19q0 -13 -4 -21t-6.5 -10.5t-10.5 -8.5q-2 -2 -7 -2h-3q-2 0 -3 1h-1q-5 0 -15 13q-9 15 -9 52v32q0 3 0.5 8.5t0.5 8.5q2 27 2 63t1 57q0 3 1 21t2 25v3
q-1 -1 -5.5 -3.5t-7.5 -5.5q-13 -13 -21 -13zM109 10q-5 -5 -12 -5q-9 0 -15 11v2l-1 2q-9 20 -9 35q0 9 3 18q5 16 40.5 118.5t49.5 148.5q6 20 14 40.5t18 45.5t16 39l47 120q15 42 24 60q12 26 19 33q12 10 19 10q9 -2 15 -9q10 -14 10 -36q0 -2 -0.5 -7.5t-0.5 -7.5
q-1 -12 -4.5 -25t-7 -22.5t-10 -25t-9.5 -23.5q-57 -153 -120 -310q-2 -7 -11 -29t-13 -35l-12 -32q-8 -20 -13 -30q-4 -9 -10.5 -28.5t-9.5 -27.5q-11 -24 -17 -30z" />
    <glyph glyph-name="threequarters" unicode="&#xbe;" horiz-adv-x="619" 
d="M195 571q0 36 -42 41q-5 0 -60 -5q-1 0 -1 -0.5t-1 -0.5q-10 0 -21 12.5t-11 22.5v1q0 34 65 34q46 0 85 -22q3 -2 8 -8.5t8 -8.5l11 -10q14 -19 14 -42v-1q0 -37 -32 -69q34 -40 34 -82v-7q-1 -10 -9 -32q-5 -16 -14 -29q-42 -60 -91 -60q-4 0 -14 1t-14 1q-19 0 -57 12
q-22 7 -22 28q0 14 8 27t19 13q22 0 29 -5q15 -8 21 -9h3q5 -3 11 -4q32 0 45 14.5t13 51.5v1q0 49 -59 49q-12 0 -19 12t-7 20q0 7 8 16.5t20 9.5q3 0 14.5 -0.5t15.5 -0.5h2q10 0 20 2q17 8 20 27zM224 18q-5 -5 -10 -5q-10 0 -17 16q-10 27 -10 34q0 9 3 18
q3 11 39.5 114.5t51.5 153.5q7 25 25 68t23 56l47 121q4 9 11.5 29t11.5 30q11 24 20 33q10 10 20 10q9 0 15 -9q9 -13 9 -35v-16q-1 -15 -6 -30t-13.5 -34.5t-11.5 -29.5q-4 -11 -121 -312q-2 -7 -11 -29t-13 -35l-12 -32q-8 -20 -12 -29t-10.5 -28.5t-10.5 -28.5
q-9 -22 -18 -30zM537 384q18 0 26 -14q8 -12 10 -35q2 -12 2 -39v-13v-20q0 -3 1 -10t1 -11t-2 -12q0 -28 -3.5 -86t-3.5 -86q0 -10 -4 -20q-2 -5 -9 -11.5t-14 -6.5l-9 3q-10 5 -16 22t-6 33v18q0 10 2 22v1q1 6 1.5 18t0.5 15v2q-16 -5 -31.5 -12t-24.5 -11t-12 -4h-3
l-8 -1h-7q-19 0 -28 14.5t-9 33.5q0 2 -0.5 6.5t-0.5 7.5q0 6 1 66t1 69q0 75 29 75q7 -2 12 -7t7 -13.5t3 -15t2 -18.5t2 -18q1 -7 2.5 -68.5t2.5 -66.5q15 3 23.5 8t35.5 11q3 1 8 1q0 5 -0.5 15t-0.5 15q0 25 -1 37v18v19v39q0 13 7 21.5t13 8.5z" />
    <glyph glyph-name="questiondown" unicode="&#xbf;" horiz-adv-x="456" 
d="M286 532q-53 0 -53 62q0 58 30 78q11 7 25 7q30 0 47 -18t17 -48q0 -27 -13 -47q-7 -10 -29 -23q-13 -11 -24 -11zM259 447q20 30 36 30q25 0 42 -66q3 -14 3 -32q0 -29 -8 -61t-18 -44q-8 -11 -22.5 -20.5t-23.5 -13.5t-31.5 -13t-28.5 -11q-39 -12 -66 -44
q-6 -13 -12 -45v-9.5t-1 -9.5v-19q3 -16 19 -40l9 -8q8 -6 37 -14h16q24 0 46 15q3 2 12.5 8t14.5 8l12 7q1 1 17 6q20 6 36 6q9 0 12 -1q12 0 22.5 -10t10.5 -22q3 -8 3 -15q0 -15 -12 -29q-20 -23 -53 -36q-16 -8 -39 -8q-1 0 -23 -3.5t-33 -3.5h-30q-63 0 -117 38
q-11 6 -28 33q-3 5 -8.5 17t-8.5 17q-8 13 -8 45q0 3 -0.5 9t-0.5 9q0 38 26 82l16 21q7 9 17 18q5 4 15.5 11t14.5 10q47 31 56 35t25 16q3 2 8.5 5.5t9.5 7.5t6 9q9 22 17 65.5t13 49.5z" />
    <glyph glyph-name="Agrave" unicode="&#xc0;" horiz-adv-x="521" 
d="M261 694h-2q-19 0 -45 26q-1 1 -8.5 9.5t-11.5 13.5q-10 13 -22.5 26.5t-21.5 25t-20 28.5q-6 10 -6 24q0 10 16.5 27.5t27.5 17.5q8 0 13 -5q28 -28 37 -35q15 -13 26.5 -24t24.5 -26t21 -23q17 -17 17 -36q0 -7 -3 -13t-20 -20.5t-23 -15.5zM312 358h14q1 3 1 10
t-2.5 14.5t-7 17.5t-5.5 13q-11 30 -34 62q-5 5 -14 5q-4 0 -12 -20t-15.5 -43t-9.5 -26q-6 -15 -9 -30v-2q24 -2 39 -2h18q6 0 18 0.5t19 0.5zM502 11q-2 -49 -37 -49h-2q-50 1 -61 80q-9 52 -9 55q-3 23 -13 62t-12 52q-4 20 -14 22q-11 2 -31 5.5t-36.5 6t-34.5 2.5h-14
q-6 0 -18.5 0.5t-19.5 0.5q-24 -4 -42 -15q-28 -46 -36 -69q-25 -69 -27 -83v-2q-2 -15 -8 -45q-8 -54 -47 -54h-2q-5 0 -9.5 1.5t-7.5 3t-6 5.5l-4.5 6t-4 8t-3 7.5t-3 8.5t-2.5 8q-3 9 -3 19q0 7 2 25q1 15 14.5 42.5t17.5 39.5q3 9 15 37t16 45q4 18 17.5 46t15.5 32
l13.5 31.5t15.5 38.5q4 14 14.5 37t13.5 30l12 30h1q2 6 7 17t7 16q2 4 11 30t16.5 43.5t19 40t25 34.5t27.5 12h3q18 -1 32 -15t20 -30t13.5 -40.5t11.5 -33.5q7 -15 19 -47l4 -11q6 -15 16 -45.5t13 -38.5t7 -31t9 -33q3 -7 7.5 -25.5t8.5 -26.5q6 -13 12 -42.5t9 -39.5
t7 -31.5t7 -31.5q4 -10 24 -81q3 -8 3 -28v-32z" />
    <glyph glyph-name="Aacute" unicode="&#xc1;" horiz-adv-x="521" 
d="M299 694q-10 1 -26 16t-16 25q0 5 1 8q3 16 25 38q19 21 31 32.5t28.5 27t37.5 36.5q5 5 14 5q11 0 24.5 -13.5t13.5 -22.5q0 -20 -10 -34q-12 -17 -30 -37.5t-26 -31.5q-6 -8 -21 -23q-26 -26 -44 -26h-2zM312 358h14q1 3 1 10t-2.5 14.5t-7 17.5t-5.5 13q-11 30 -34 62
q-5 5 -14 5q-4 0 -12 -20t-15.5 -43t-9.5 -26q-6 -15 -9 -30v-2q24 -2 39 -2h18q6 0 18 0.5t19 0.5zM502 11q-2 -49 -37 -49h-2q-50 1 -61 80q-9 52 -9 55q-3 23 -13 62t-12 52q-4 20 -14 22q-11 2 -31 5.5t-36.5 6t-34.5 2.5h-14q-6 0 -18.5 0.5t-19.5 0.5q-24 -4 -42 -15
q-28 -46 -36 -69q-25 -69 -27 -83v-2q-2 -15 -8 -45q-8 -54 -47 -54h-2q-5 0 -9.5 1.5t-7.5 3t-6 5.5l-4.5 6t-4 8t-3 7.5t-3 8.5t-2.5 8q-3 9 -3 19q0 7 2 25q1 15 14.5 42.5t17.5 39.5q3 9 15 37t16 45q4 18 17.5 46t15.5 32l13.5 31.5t15.5 38.5q4 14 14.5 37t13.5 30
l12 30h1q2 6 7 17t7 16q2 4 11 30t16.5 43.5t19 40t25 34.5t27.5 12h3q18 -1 32 -15t20 -30t13.5 -40.5t11.5 -33.5q7 -15 19 -47l4 -11q6 -15 16 -45.5t13 -38.5t7 -31t9 -33q3 -7 7.5 -25.5t8.5 -26.5q6 -13 12 -42.5t9 -39.5t7 -31.5t7 -31.5q4 -10 24 -81q3 -8 3 -28
v-32z" />
    <glyph glyph-name="Acircumflex" unicode="&#xc2;" horiz-adv-x="521" 
d="M263 795q24 13 39 13q0 1 1 1q25 -1 52 -30q36 -38 44 -56q3 -6 3 -12q0 -11 -7.5 -18t-19.5 -7q-15 0 -35 13q-4 3 -17.5 13t-21.5 15q-1 0 -3 1h-13q-18 -6 -45 -27q-13 -11 -21 -14q-10 -5 -14 -5h-8q-9 0 -18.5 11t-13.5 22q-1 3 -1 9q0 22 25 37q10 7 32 15t30 12
q2 0 4 2t4 3q1 0 1 0.5t1 0.5t1 0.5t1 0.5zM312 358h14q1 3 1 10t-2.5 14.5t-7 17.5t-5.5 13q-11 30 -34 62q-5 5 -14 5q-4 0 -12 -20t-15.5 -43t-9.5 -26q-6 -15 -9 -30v-2q24 -2 39 -2h18q6 0 18 0.5t19 0.5zM502 11q-2 -49 -37 -49h-2q-50 1 -61 80q-9 52 -9 55
q-3 23 -13 62t-12 52q-4 20 -14 22q-11 2 -31 5.5t-36.5 6t-34.5 2.5h-14q-6 0 -18.5 0.5t-19.5 0.5q-24 -4 -42 -15q-28 -46 -36 -69q-25 -69 -27 -83v-2q-2 -15 -8 -45q-8 -54 -47 -54h-2q-5 0 -9.5 1.5t-7.5 3t-6 5.5l-4.5 6t-4 8t-3 7.5t-3 8.5t-2.5 8q-3 9 -3 19
q0 7 2 25q1 15 14.5 42.5t17.5 39.5q3 9 15 37t16 45q4 18 17.5 46t15.5 32l13.5 31.5t15.5 38.5q4 14 14.5 37t13.5 30l12 30h1q2 6 7 17t7 16q2 4 11 30t16.5 43.5t19 40t25 34.5t27.5 12h3q18 -1 32 -15t20 -30t13.5 -40.5t11.5 -33.5q7 -15 19 -47l4 -11q6 -15 16 -45.5
t13 -38.5t7 -31t9 -33q3 -7 7.5 -25.5t8.5 -26.5q6 -13 12 -42.5t9 -39.5t7 -31.5t7 -31.5q4 -10 24 -81q3 -8 3 -28v-32z" />
    <glyph glyph-name="Atilde" unicode="&#xc3;" horiz-adv-x="521" 
d="M389 799q10 0 16 -8t6 -19q0 -30 -9 -43q-5 -8 -7 -9q-15 -12 -55 -22q-7 -1 -19 -1q-28 0 -49 12q-4 2 -11 6.5t-13 7.5t-12 4h-9q-1 -1 -2 -1q-4 -2 -17 -21q-8 -8 -20 -10q-2 0 -5 -0.5t-4 -0.5q-12 0 -20 8t-8 20q0 34 26 56q20 18 44 18h12q30 -5 50 -25
q2 -1 9 -6.5t10.5 -8t10 -6t12.5 -5t13 -1.5q8 0 13 7.5t8 18.5t7 15q10 14 23 14zM312 358h14q1 3 1 10t-2.5 14.5t-7 17.5t-5.5 13q-11 30 -34 62q-5 5 -14 5q-4 0 -12 -20t-15.5 -43t-9.5 -26q-6 -15 -9 -30v-2q24 -2 39 -2h18q6 0 18 0.5t19 0.5zM502 11q-2 -49 -37 -49
h-2q-50 1 -61 80q-9 52 -9 55q-3 23 -13 62t-12 52q-4 20 -14 22q-11 2 -31 5.5t-36.5 6t-34.5 2.5h-14q-6 0 -18.5 0.5t-19.5 0.5q-24 -4 -42 -15q-28 -46 -36 -69q-25 -69 -27 -83v-2q-2 -15 -8 -45q-8 -54 -47 -54h-2q-5 0 -9.5 1.5t-7.5 3t-6 5.5l-4.5 6t-4 8t-3 7.5
t-3 8.5t-2.5 8q-3 9 -3 19q0 7 2 25q1 15 14.5 42.5t17.5 39.5q3 9 15 37t16 45q4 18 17.5 46t15.5 32l13.5 31.5t15.5 38.5q4 14 14.5 37t13.5 30l12 30h1q2 6 7 17t7 16q2 4 11 30t16.5 43.5t19 40t25 34.5t27.5 12h3q18 -1 32 -15t20 -30t13.5 -40.5t11.5 -33.5
q7 -15 19 -47l4 -11q6 -15 16 -45.5t13 -38.5t7 -31t9 -33q3 -7 7.5 -25.5t8.5 -26.5q6 -13 12 -42.5t9 -39.5t7 -31.5t7 -31.5q4 -10 24 -81q3 -8 3 -28v-32z" />
    <glyph glyph-name="Adieresis" unicode="&#xc4;" horiz-adv-x="521" 
d="M220 807h2q9 2 22 -4q15 -5 21 -11q15 -15 16 -27q0 -1 0.5 -2.5t0.5 -2.5q0 -2 0.5 -5t0.5 -4q0 -26 -20 -42q-20 -15 -34 -15q-8 0 -15 4q-41 20 -41 51q0 37 33 54q6 3 7 3t3.5 0.5t3.5 0.5zM311 758q3 19 13.5 33.5t27.5 14.5q5 0 8 -1q8 -2 17 -10.5t10 -15.5v-13
v-17q-4 -48 -32 -53q-1 0 -3 -0.5t-3 -0.5q-14 0 -25 12.5t-13 26.5q0 2 -0.5 7t-0.5 7t0.5 5t0.5 5zM312 358h14q1 3 1 10t-2.5 14.5t-7 17.5t-5.5 13q-11 30 -34 62q-5 5 -14 5q-4 0 -12 -20t-15.5 -43t-9.5 -26q-6 -15 -9 -30v-2q24 -2 39 -2h18q6 0 18 0.5t19 0.5z
M502 11q-2 -49 -37 -49h-2q-50 1 -61 80q-9 52 -9 55q-3 23 -13 62t-12 52q-4 20 -14 22q-11 2 -31 5.5t-36.5 6t-34.5 2.5h-14q-6 0 -18.5 0.5t-19.5 0.5q-24 -4 -42 -15q-28 -46 -36 -69q-25 -69 -27 -83v-2q-2 -15 -8 -45q-8 -54 -47 -54h-2q-5 0 -9.5 1.5t-7.5 3t-6 5.5
l-4.5 6t-4 8t-3 7.5t-3 8.5t-2.5 8q-3 9 -3 19q0 7 2 25q1 15 14.5 42.5t17.5 39.5q3 9 15 37t16 45q4 18 17.5 46t15.5 32l13.5 31.5t15.5 38.5q4 14 14.5 37t13.5 30l12 30h1q2 6 7 17t7 16q2 4 11 30t16.5 43.5t19 40t25 34.5t27.5 12h3q18 -1 32 -15t20 -30t13.5 -40.5
t11.5 -33.5q7 -15 19 -47l4 -11q6 -15 16 -45.5t13 -38.5t7 -31t9 -33q3 -7 7.5 -25.5t8.5 -26.5q6 -13 12 -42.5t9 -39.5t7 -31.5t7 -31.5q4 -10 24 -81q3 -8 3 -28v-32z" />
    <glyph glyph-name="Aring" unicode="&#xc5;" horiz-adv-x="521" 
d="M314 764q-3 9 -13.5 18t-21.5 9q-8 0 -16 -8q-6 -5 -13 -26q-2 -6 -2 -19q0 -11 10 -20t21 -9q4 0 10 2q10 5 18 20t8 27q0 5 -1 6zM502 11q-2 -49 -37 -49h-2q-50 1 -61 80q-9 52 -9 55q-3 23 -13 62t-12 52q-4 20 -14 22q-11 2 -31 5.5t-36.5 6t-34.5 2.5h-14
q-6 0 -18.5 0.5t-19.5 0.5q-24 -4 -42 -15q-28 -46 -36 -69q-25 -69 -27 -83v-2q-2 -15 -8 -45q-8 -54 -47 -54h-2q-5 0 -9.5 1.5t-7.5 3t-6 5.5l-4.5 6t-4 8t-3 7.5t-3 8.5t-2.5 8q-3 9 -3 19q0 7 2 25q1 15 14.5 42.5t17.5 39.5q3 9 15 37t16 45q4 18 17.5 46t15.5 32
l13.5 31.5t15.5 38.5q4 14 14.5 37t13.5 30l12 30h1q2 6 7 17t7 16q0 1 10 28t16 41.5t17.5 36.5t22.5 34q-21 12 -36.5 34t-15.5 42q0 12 3 23t5.5 17.5t9 18t8.5 16.5q18 38 61 52q3 1 9 1h6q19 0 39 -11.5t25 -24.5q1 -1 6 -13.5t5 -14.5q3 -29 3 -52q0 -42 -13 -59.5
t-43 -27.5q10 -12 17.5 -30t14 -40t9.5 -30q7 -15 19 -47l4 -11q6 -15 16 -45.5t13 -38.5t7 -31t9 -33q3 -7 7.5 -25.5t8.5 -26.5q6 -13 12 -42.5t9 -39.5t7 -31.5t7 -31.5q4 -10 24 -81q3 -8 3 -28v-32zM312 358h14q1 3 1 10t-2.5 14.5t-7 17.5t-5.5 13q-11 30 -34 62
q-5 5 -14 5q-4 0 -12 -20t-15.5 -43t-9.5 -26q-6 -15 -9 -30v-2q24 -2 39 -2h18q6 0 18 0.5t19 0.5z" />
    <glyph glyph-name="AE" unicode="&#xc6;" horiz-adv-x="695" 
d="M567 6q-22 0 -67 -3t-67 -3h-19q-2 0 -6 0.5t-5 0.5h-3q-31 4 -52.5 21.5t-21.5 45.5v16l1 4v26v76v48q-40 8 -81 9h-15q-6 0 -18 0.5t-19 0.5q-24 -4 -42 -15q-28 -46 -36 -69q-22 -59 -35 -130q-8 -54 -47 -54h-2q-5 0 -9.5 1.5t-7.5 3t-6 5.5l-4.5 6t-4 8t-3 7.5
t-3 8.5t-2.5 8q-3 9 -3 19q0 7 2 25q5 58 61 173t64 139q4 14 14.5 38t12.5 29l13 30h1q2 6 7 17t7 16q2 4 11 30t16.5 43.5t19 40t25 34.5t27.5 12h2q44 -2 82 -2q10 0 35 1t68 1h94q3 0 9.5 -0.5t10.5 -0.5q60 -3 94 -20q16 -8 21 -21q2 -4 2 -6q1 -2 1 -11v-2
q0 -3 -5 -13q-14 -27 -73 -27h-70q-17 0 -45 -2h-2q-5 -1 -17 -1h-5q-1 0 -11 1t-15 1q-7 0 -8 -1q-7 -7 -7 -133q0 -2 0.5 -8t0.5 -8t3 -11h2q8 -1 23.5 -1.5t20.5 -0.5h6q17 0 45 -2q24 0 41 -10.5t17 -30.5q0 -54 -79 -60h-2l-3 -1h-6l-2 -1h-3h-1q-30 -3 -34 -3h-18
q-14 -2 -21 -4q-11 -11 -11 -23v-6q0 -33 5 -84.5t13 -59.5l1 -1l1 -1q2 -1 8 -1h6q6 0 10 -2l36 -1h19l19 -1q25 0 37 -1q67 0 67 -42q0 -29 -18.5 -48.5t-46.5 -19.5zM333 358q1 3 1 12l1 17v7v7v14v13q1 2 1 5.5v5.5v27q0 6 0.5 20t0.5 20t2 36q0 6 0.5 18t0.5 15
q0 8 -1 8q-5 0 -20.5 -2t-16.5 -2q-4 0 -23 -45t-38 -93t-20 -50q-5 -8 -9 -30v-2q24 -2 39 -2h18q6 0 18 0.5t19 0.5h13q2 1 4 1q1 0 4.5 -0.5t5.5 -0.5z" />
    <glyph glyph-name="Ccedilla" unicode="&#xc7;" horiz-adv-x="424" 
d="M302 590h9q1 0 4 -0.5t4 -0.5q21 0 34 -14.5t13 -35.5v-3q0 -26 -17.5 -45t-41.5 -25q-45 -11 -62 -22l-9 -6q-1 0 -3 -1.5t-3 -2.5q-3 -3 -11.5 -11t-13.5 -13q-4 -4 -16 -24q-6 -8 -14 -24q-1 -3 -4 -8t-4 -8q-5 -10 -17 -60q-2 -10 -2 -16q0 -4 -0.5 -10t-0.5 -10v-37
q8 -51 32 -75q36 -30 76 -30q3 0 11 0.5t12 0.5q3 0 25 4t31 4q44 0 50 -27v-3q1 -3 1 -5v-1q0 -1 -0.5 -4t-0.5 -4q-3 -10 -11 -18l-8 -8q-32 -30 -82 -30h-7l-6 -20q-5 -15 -7.5 -24t-7 -18t-6.5 -12t-10 -15.5t-12 -19.5q-20 -33 -34 -38h-3q-2 -1 -6 -1q-17 0 -29 8.5
t-12 23.5q0 19 6.5 33.5t19.5 32t19 27.5q8 15 17 28q-34 6 -47 11q-16 7 -43 25q-34 21 -48 44q-19 31 -33 68q-9 28 -9 77q0 74 31 145q5 11 11 22l12 21q6 12 26 38q26 31 55 50q7 6 21 16q2 1 7 5.5t8 5.5q47 28 53 30q28 10 53 10z" />
    <glyph glyph-name="Egrave" unicode="&#xc8;" 
d="M229 675h-2q-20 0 -45 25q-16 19 -20 24q-10 13 -22.5 26.5t-21.5 25t-20 28.5q-6 10 -6 23q0 10 16.5 27.5t27.5 17.5q9 0 14 -5q27 -27 36 -34q15 -13 26.5 -24t24.5 -26t21 -23q17 -17 17 -36q0 -7 -3 -13t-20 -20.5t-23 -15.5zM234 25h-7q-2 0 -7 -0.5t-8 -0.5
q-2 0 -8 -0.5t-8 -0.5h-14q-5 0 -15 -1.5t-15 -1.5h-20q-2 0 -5.5 1t-4.5 1h-3q-31 4 -53 21t-22 45v16l1 5v25q0 13 2.5 36t2.5 34v13l1 3v17l1 5v4q0 2 0.5 8t0.5 8v6q0 4 0.5 12.5t0.5 12.5l1 7v3q0 3 0.5 9t0.5 9l1 31q1 6 1 16v15v28q2 20 3 29q2 16 2 27q0 5 -1 17
t-1 18q0 14 7 37q0 1 0.5 3.5t0.5 3.5q3 20 15 38t28 23q9 4 41 14q16 4 26 4h94q3 0 10 -0.5t11 -0.5q59 -3 93 -20q18 -9 22 -21q2 -4 2 -6q1 -2 1 -11v-2q0 -3 -5 -13q-13 -27 -73 -27h-71q-17 0 -45 -2h-2q-5 -1 -16 -1h-5q-1 0 -11 1t-15 1q-7 0 -8 -1q-7 -7 -7 -44v-9
q0 -2 0.5 -7.5t0.5 -8.5t3 -12h2q6 -1 17 -1h2l25 -1h6q17 0 45 -2q24 0 40.5 -10.5t16.5 -30.5q0 -53 -79 -59h-2l-3 -1h-6h-2q-2 -1 -3 -1h-1q-30 -3 -34 -3h-17q-16 -2 -22 -4q-1 -1 -3 -1q0 -1 -0.5 -1t-0.5 -1l-4 -12q-1 -7 -1 -24v-7q0 -6 -0.5 -18t-0.5 -17
q0 -3 -0.5 -13t-0.5 -15q0 -61 14 -75l1 -1l1 -1q2 -1 6 -1q9 0 29.5 -1.5t25.5 -1.5h18l20 -1q25 0 37 -1q66 0 66 -42q0 -29 -18 -48t-46 -19q-1 0 -4 -0.5t-4 -0.5h-7q-12 -1 -37 -1z" />
    <glyph glyph-name="Eacute" unicode="&#xc9;" 
d="M227 675q-10 1 -26 16t-16 25q0 5 1 8q3 16 25 38q24 26 49.5 49.5t47.5 45.5q5 5 15 5q11 0 24 -13.5t13 -22.5q0 -19 -10 -33q-12 -17 -30 -37.5t-26 -31.5q-9 -12 -21 -24q-25 -25 -44 -25h-2zM234 25h-7q-2 0 -7 -0.5t-8 -0.5q-2 0 -8 -0.5t-8 -0.5h-14
q-5 0 -15 -1.5t-15 -1.5h-20q-2 0 -5.5 1t-4.5 1h-3q-31 4 -53 21t-22 45v16l1 5v25q0 13 2.5 36t2.5 34v13l1 3v17l1 5v4q0 2 0.5 8t0.5 8v6q0 4 0.5 12.5t0.5 12.5l1 7v3q0 3 0.5 9t0.5 9l1 31q1 6 1 16v15v28q2 20 3 29q2 16 2 27q0 5 -1 17t-1 18q0 14 7 37q0 1 0.5 3.5
t0.5 3.5q3 20 15 38t28 23q9 4 41 14q16 4 26 4h94q3 0 10 -0.5t11 -0.5q59 -3 93 -20q18 -9 22 -21q2 -4 2 -6q1 -2 1 -11v-2q0 -3 -5 -13q-13 -27 -73 -27h-71q-17 0 -45 -2h-2q-5 -1 -16 -1h-5q-1 0 -11 1t-15 1q-7 0 -8 -1q-7 -7 -7 -44v-9q0 -2 0.5 -7.5t0.5 -8.5
t3 -12h2q6 -1 17 -1h2l25 -1h6q17 0 45 -2q24 0 40.5 -10.5t16.5 -30.5q0 -53 -79 -59h-2l-3 -1h-6h-2q-2 -1 -3 -1h-1q-30 -3 -34 -3h-17q-16 -2 -22 -4q-1 -1 -3 -1q0 -1 -0.5 -1t-0.5 -1l-4 -12q-1 -7 -1 -24v-7q0 -6 -0.5 -18t-0.5 -17q0 -3 -0.5 -13t-0.5 -15
q0 -61 14 -75l1 -1l1 -1q2 -1 6 -1q9 0 29.5 -1.5t25.5 -1.5h18l20 -1q25 0 37 -1q66 0 66 -42q0 -29 -18 -48t-46 -19q-1 0 -4 -0.5t-4 -0.5h-7q-12 -1 -37 -1z" />
    <glyph glyph-name="Ecircumflex" unicode="&#xca;" 
d="M234 784q26 14 39 14q0 1 1 1q26 -1 53 -30q36 -38 44 -56q3 -6 3 -13q0 -10 -8 -17t-20 -7q-16 0 -35 13q-4 3 -17.5 13t-21.5 15l-1 1h-2h-13q-18 -6 -45 -27q-13 -11 -21 -14q-10 -5 -14 -5h-8q-9 0 -18.5 11t-13.5 22q-1 3 -1 9q0 21 26 37q10 7 31.5 15t29.5 12
q1 0 4 2t4 2h1l1 1l1 1h1zM234 25h-7q-2 0 -7 -0.5t-8 -0.5q-2 0 -8 -0.5t-8 -0.5h-14q-5 0 -15 -1.5t-15 -1.5h-20q-2 0 -5.5 1t-4.5 1h-3q-31 4 -53 21t-22 45v16l1 5v25q0 13 2.5 36t2.5 34v13l1 3v17l1 5v4q0 2 0.5 8t0.5 8v6q0 4 0.5 12.5t0.5 12.5l1 7v3q0 3 0.5 9
t0.5 9l1 31q1 6 1 16v15v28q2 20 3 29q2 16 2 27q0 5 -1 17t-1 18q0 14 7 37q0 1 0.5 3.5t0.5 3.5q3 20 15 38t28 23q9 4 41 14q16 4 26 4h94q3 0 10 -0.5t11 -0.5q59 -3 93 -20q18 -9 22 -21q2 -4 2 -6q1 -2 1 -11v-2q0 -3 -5 -13q-13 -27 -73 -27h-71q-17 0 -45 -2h-2
q-5 -1 -16 -1h-5q-1 0 -11 1t-15 1q-7 0 -8 -1q-7 -7 -7 -44v-9q0 -2 0.5 -7.5t0.5 -8.5t3 -12h2q6 -1 17 -1h2l25 -1h6q17 0 45 -2q24 0 40.5 -10.5t16.5 -30.5q0 -53 -79 -59h-2l-3 -1h-6h-2q-2 -1 -3 -1h-1q-30 -3 -34 -3h-17q-16 -2 -22 -4q-1 -1 -3 -1q0 -1 -0.5 -1
t-0.5 -1l-4 -12q-1 -7 -1 -24v-7q0 -6 -0.5 -18t-0.5 -17q0 -3 -0.5 -13t-0.5 -15q0 -61 14 -75l1 -1l1 -1q2 -1 6 -1q9 0 29.5 -1.5t25.5 -1.5h18l20 -1q25 0 37 -1q66 0 66 -42q0 -29 -18 -48t-46 -19q-1 0 -4 -0.5t-4 -0.5h-7q-12 -1 -37 -1z" />
    <glyph glyph-name="Edieresis" unicode="&#xcb;" 
d="M179 787h2q9 2 22 -4q15 -5 21 -11q15 -15 16 -27q0 -1 0.5 -2.5t0.5 -2.5q0 -2 0.5 -5t0.5 -4q0 -26 -20 -42q-19 -14 -34 -14q-8 0 -15 4q-41 21 -41 50q0 37 33 54q6 3 7 3t3.5 0.5t3.5 0.5zM270 738q3 19 13.5 33.5t27.5 14.5q5 0 8 -1q8 -2 17 -10t10 -15v-14v-17
q-4 -47 -32 -52q-1 0 -3 -0.5t-3 -0.5q-14 0 -25 12.5t-13 26.5q0 2 -0.5 6.5t-0.5 6.5t0.5 5t0.5 5zM234 25h-7q-2 0 -7 -0.5t-8 -0.5q-2 0 -8 -0.5t-8 -0.5h-14q-5 0 -15 -1.5t-15 -1.5h-20q-2 0 -5.5 1t-4.5 1h-3q-31 4 -53 21t-22 45v16l1 5v25q0 13 2.5 36t2.5 34v13
l1 3v17l1 5v4q0 2 0.5 8t0.5 8v6q0 4 0.5 12.5t0.5 12.5l1 7v3q0 3 0.5 9t0.5 9l1 31q1 6 1 16v15v28q2 20 3 29q2 16 2 27q0 5 -1 17t-1 18q0 14 7 37q0 1 0.5 3.5t0.5 3.5q3 20 15 38t28 23q9 4 41 14q16 4 26 4h94q3 0 10 -0.5t11 -0.5q59 -3 93 -20q18 -9 22 -21
q2 -4 2 -6q1 -2 1 -11v-2q0 -3 -5 -13q-13 -27 -73 -27h-71q-17 0 -45 -2h-2q-5 -1 -16 -1h-5q-1 0 -11 1t-15 1q-7 0 -8 -1q-7 -7 -7 -44v-9q0 -2 0.5 -7.5t0.5 -8.5t3 -12h2q6 -1 17 -1h2l25 -1h6q17 0 45 -2q24 0 40.5 -10.5t16.5 -30.5q0 -53 -79 -59h-2l-3 -1h-6h-2
q-2 -1 -3 -1h-1q-30 -3 -34 -3h-17q-16 -2 -22 -4q-1 -1 -3 -1q0 -1 -0.5 -1t-0.5 -1l-4 -12q-1 -7 -1 -24v-7q0 -6 -0.5 -18t-0.5 -17q0 -3 -0.5 -13t-0.5 -15q0 -61 14 -75l1 -1l1 -1q2 -1 6 -1q9 0 29.5 -1.5t25.5 -1.5h18l20 -1q25 0 37 -1q66 0 66 -42q0 -29 -18 -48
t-46 -19q-1 0 -4 -0.5t-4 -0.5h-7q-12 -1 -37 -1z" />
    <glyph glyph-name="Igrave" unicode="&#xcc;" horiz-adv-x="220" 
d="M116 678h-2q-20 0 -45 25q-1 1 -9 10t-12 14q-10 12 -22.5 26.5t-21 25t-19.5 28.5q-7 12 -7 23q0 10 17 28t28 18q7 0 13 -6q24 -24 37 -34q15 -13 26.5 -24.5t23.5 -25.5t21 -23q18 -18 18 -36q0 -7 -3 -13t-20 -20.5t-23 -15.5zM155 351q0 -21 4 -63t4 -62
q0 -61 -3 -121q-2 -63 -7 -78q-13 -40 -43 -40q-23 0 -37 15.5t-17.5 32.5t-6.5 46q-2 16 -2 22q0 3 -0.5 11t-0.5 12q-1 10 -1 32v14q0 170 11 277q6 56 7 63q2 12 6.5 24t11 26.5t9.5 22.5q9 32 35 32h1q12 0 20.5 -11.5t8.5 -24.5q1 -6 1 -20q0 -6 -0.5 -18t-0.5 -18
q0 -7 -0.5 -20t-0.5 -20v-19q0 -5 0.5 -15.5t0.5 -15.5v-84z" />
    <glyph glyph-name="Iacute" unicode="&#xcd;" horiz-adv-x="220" 
d="M126 675q-10 1 -26 16t-16 25q0 5 1 8q3 16 25 38q24 26 49.5 49.5t47.5 45.5q5 5 14 5q11 0 24.5 -13.5t13.5 -22.5q0 -19 -10 -33q-12 -17 -30 -37.5t-26 -31.5q-9 -12 -21 -24q-25 -25 -44 -25h-2zM155 351q0 -21 4 -63t4 -62q0 -61 -3 -121q-2 -63 -7 -78
q-13 -40 -43 -40q-23 0 -37 15.5t-17.5 32.5t-6.5 46q-2 16 -2 22q0 3 -0.5 11t-0.5 12q-1 10 -1 32v14q0 170 11 277q6 56 7 63q2 12 6.5 24t11 26.5t9.5 22.5q9 32 35 32h1q12 0 20.5 -11.5t8.5 -24.5q1 -6 1 -20q0 -6 -0.5 -18t-0.5 -18q0 -7 -0.5 -20t-0.5 -20v-19
q0 -5 0.5 -15.5t0.5 -15.5v-84z" />
    <glyph glyph-name="Icircumflex" unicode="&#xce;" horiz-adv-x="220" 
d="M108 787q26 14 38 14q0 1 1 1q26 -1 53 -30q36 -38 44 -56q3 -6 3 -13q0 -10 -8 -17t-20 -7q-15 0 -35 13q-4 3 -17.5 13t-21.5 15h-1l-2 1h-13q-18 -6 -45 -27q-13 -11 -21 -14q-10 -5 -14 -5h-8q-9 0 -18.5 11t-13.5 22q-1 3 -1 9q0 21 26 37q10 7 31.5 15t29.5 12l4 2
l4 2q1 0 1 0.5t1 0.5h1zM155 351q0 -21 4 -63t4 -62q0 -61 -3 -121q-2 -63 -7 -78q-13 -40 -43 -40q-23 0 -37 15.5t-17.5 32.5t-6.5 46q-2 16 -2 22q0 3 -0.5 11t-0.5 12q-1 10 -1 32v14q0 170 11 277q6 56 7 63q2 12 6.5 24t11 26.5t9.5 22.5q9 32 35 32h1
q12 0 20.5 -11.5t8.5 -24.5q1 -6 1 -20q0 -6 -0.5 -18t-0.5 -18q0 -7 -0.5 -20t-0.5 -20v-19q0 -5 0.5 -15.5t0.5 -15.5v-84z" />
    <glyph glyph-name="Idieresis" unicode="&#xcf;" horiz-adv-x="220" 
d="M50 794h2q9 2 22 -4q14 -4 21 -12q15 -15 16 -26q0 -1 0.5 -3t0.5 -3q0 -2 0.5 -5t0.5 -4q0 -26 -20 -42q-19 -14 -34 -14q-8 0 -15 4q-41 21 -41 50q0 39 33 55q6 3 7 3t3.5 0.5t3.5 0.5zM141 744q3 19 13.5 34t27.5 15q5 0 8 -1q8 -2 17 -10.5t10 -15.5v-13v-18
q-4 -47 -32 -52q-1 0 -3 -0.5t-3 -0.5q-14 0 -25 12.5t-13 26.5q0 2 -0.5 6.5t-0.5 6.5t0.5 5t0.5 5zM155 351q0 -21 4 -63t4 -62q0 -61 -3 -121q-2 -63 -7 -78q-13 -40 -43 -40q-23 0 -37 15.5t-17.5 32.5t-6.5 46q-2 16 -2 22q0 3 -0.5 11t-0.5 12q-1 10 -1 32v14
q0 170 11 277q6 56 7 63q2 12 6.5 24t11 26.5t9.5 22.5q9 32 35 32h1q12 0 20.5 -11.5t8.5 -24.5q1 -6 1 -20q0 -6 -0.5 -18t-0.5 -18q0 -7 -0.5 -20t-0.5 -20v-19q0 -5 0.5 -15.5t0.5 -15.5v-84z" />
    <glyph glyph-name="Eth" unicode="&#xd0;" horiz-adv-x="505" 
d="M200 269q0 -10 -0.5 -31t-0.5 -30q0 -17 2 -48.5t2 -49.5q0 -3 0.5 -9.5t0.5 -9.5v-2v-3l1 -2q11 5 55 33q14 9 32.5 31.5t22.5 26.5q9 11 27 40q46 79 46 151v15q-8 67 -23 91q-2 3 -13.5 21t-15.5 23t-15 19t-19.5 18.5t-21.5 12.5t-27.5 10.5t-32.5 2.5h-15q-1 0 -3 1
v-21q2 -32 2 -50v-6q0 -18 -1.5 -53.5t-1.5 -53.5v-8h4q22 0 49 -5q27 -6 27 -27q0 -9 -3.5 -16t-7.5 -10.5t-13 -6t-15 -3t-18.5 -1.5t-17.5 -2q-1 -1 -4 -1q0 -17 -2 -47zM465 458q9 -43 9 -66v-32q-1 -10 -5 -30q-5 -49 -28 -102q-23 -56 -52 -91v1l-24 -33
q-4 -6 -32 -31q-36 -32 -62 -50q-49 -36 -93 -36q-42 0 -57 19q-1 2 -4 10q0 1 -0.5 3l-0.5 2q-5 15 -5 21q0 2 -0.5 5.5t-0.5 5.5q-2 14 -2 24q0 6 0.5 16.5t0.5 15.5q0 2 -0.5 7t-0.5 8q-5 32 -5 40v60v16v8q0 3 -0.5 9t-0.5 9q0 6 0.5 18t0.5 18v9q-71 2 -71 43
q0 27 27 34q3 1 9 2t7 1h11q8 0 10 9q2 5 0 14v11q0 5 -0.5 14.5t-0.5 14.5q0 4 -0.5 14t-0.5 15q0 4 0.5 14t0.5 15v28q1 5 1 15.5v15.5q0 70 30 81q37 15 76 15q77 0 163 -48q11 -6 20 -15t19 -22.5t15 -18.5q12 -14 39 -77q7 -14 7 -29z" />
    <glyph glyph-name="Ntilde" unicode="&#xd1;" horiz-adv-x="514" 
d="M378 736q21 0 21 -26q0 -32 -8 -43q-6 -10 -7 -10q-13 -10 -55 -21q-7 -1 -20 -1q-29 0 -48 11q-1 0 -15 8.5t-22 10.5h-8q-1 -1 -2 -1q-2 -1 -17 -22q-7 -7 -20 -9q-1 0 -4 -0.5t-5 -0.5q-13 0 -21 8t-8 19q0 34 27 57q19 17 44 17h12q30 -5 49 -24q2 -1 7.5 -5.5
t8.5 -6.5t8.5 -5.5t10 -5t10 -3t11.5 -1.5q8 0 12.5 7.5t7.5 18.5t7 15q9 13 24 13zM347 272q0 26 -8 34l-1 1q-2 1 -7 5t-8 6q-49 36 -59 41q-5 3 -19.5 13.5t-22.5 14.5q-33 18 -40 21q-26 10 -29 11h-6q-1 0 -2.5 -0.5t-2.5 -0.5q-6 -17 -9.5 -40t-4.5 -35.5t-1 -48
v-42.5q-3 -90 -11 -181q-1 -10 -10.5 -18.5t-20.5 -8.5q-16 0 -27 18.5t-11 37.5v6.5v7.5v6q0 4 0.5 10t0.5 10q0 6 0.5 19t0.5 20v30q0 5 0.5 15t0.5 15q0 9 0.5 27.5t0.5 27.5q1 10 1 31t1 31q0 9 1.5 28.5t1.5 29.5q0 6 0.5 18t1 21.5t1.5 17.5q1 5 2 14.5t2 13.5
q1 5 1 14t1 14q6 65 43 71h7q16 0 27 -8.5t21.5 -26.5t12.5 -21l15 -19q6 -5 16 -19t16 -19q17 -13 38 -34q1 -1 5.5 -6.5t7.5 -7.5q6 -5 19 -11.5t19 -11.5q8 -6 12 -8l1 -1l1 -1h7q1 0 3 1l1 1l1 1q8 24 13 76.5t10 73.5q15 40 42 40q20 0 32 -11.5t12 -30.5q3 -18 3 -19
v-17q0 -7 1.5 -23t1.5 -23v-109q0 -4 0.5 -12t0.5 -11q3 -30 3 -60v-30q0 -5 -0.5 -15t-0.5 -15q0 -10 -1 -30t-1 -30q0 -48 -17 -118q-8 -66 -40 -66q-9 0 -23 9q-13 6 -21 29q-5 16 -6 20t-1 27v10q0 8 -1 24.5t-1 24.5v20q0 7 0.5 22.5t0.5 22.5q0 8 1 23t1 23v40z" />
    <glyph glyph-name="Ograve" unicode="&#xd2;" horiz-adv-x="555" 
d="M281 684h-2q-20 0 -46 26q-1 1 -8.5 9.5t-11.5 13.5q-10 12 -22.5 26.5t-21 25t-19.5 28.5q-7 12 -7 24q0 10 16.5 27.5t27.5 17.5q9 0 14 -5q28 -28 37 -35q15 -13 26.5 -24.5t23.5 -25.5t21 -23q18 -18 18 -36q0 -7 -3 -13t-20 -20.5t-23 -15.5zM502 482q4 -8 8 -22
q10 -28 10 -58q0 -5 -0.5 -14.5t-0.5 -14.5q-3 -52 -4 -60q-11 -61 -36 -109q-24 -53 -39 -73q-28 -39 -38 -51q-21 -24 -35.5 -38t-43 -28t-59.5 -14q-2 0 -5.5 0.5t-5.5 0.5q-37 5 -50 9l-15 6l1 -1q-16 7 -23 14q-56 42 -98 110.5t-42 143.5q0 3 0.5 8t0.5 7q0 1 1 13
t2 18q0 3 2 9.5t2 9.5q1 4 2 16t3 18q20 65 36 89q2 4 12 24.5t17 29.5q20 25 41 46q27 29 46 40q75 43 121 43q3 0 9.5 -0.5t9.5 -0.5q38 -6 48 -14q62 -39 88 -92q7 -15 20 -38t15 -27zM435 390q0 2 0.5 5.5t0.5 5.5q0 15 -9 42q-11 30 -40 67q-26 33 -60 33
q-20 0 -41 -11t-32.5 -21t-28.5 -28q-3 -4 -8.5 -13t-8.5 -13q-1 -3 -5 -8t-5 -7q-23 -37 -39 -95q-4 -14 -8 -66q0 -3 -0.5 -11t-0.5 -12t-1.5 -13t-0.5 -14q9 -50 29.5 -81t60.5 -45q16 -6 30 -6q6 0 11.5 1.5t10 3t9.5 5t8 5.5t8 8t7 8t8 9t7 9q18 23 41 70q6 11 11 22
l12 30q30 89 32 102q2 12 2 18z" />
    <glyph glyph-name="Oacute" unicode="&#xd3;" horiz-adv-x="555" 
d="M346 678q-10 1 -26 16t-16 25q0 5 1 8q3 16 25 38q24 26 49.5 49.5t47.5 45.5q5 5 14 5q11 0 24.5 -13.5t13.5 -22.5q0 -19 -10 -33q-12 -17 -30 -37.5t-26 -31.5q-9 -12 -21 -24q-25 -25 -44 -25h-2zM502 482q4 -8 8 -22q10 -28 10 -58q0 -5 -0.5 -14.5t-0.5 -14.5
q-3 -52 -4 -60q-11 -61 -36 -109q-24 -53 -39 -73q-28 -39 -38 -51q-21 -24 -35.5 -38t-43 -28t-59.5 -14q-2 0 -5.5 0.5t-5.5 0.5q-37 5 -50 9l-15 6l1 -1q-16 7 -23 14q-56 42 -98 110.5t-42 143.5q0 3 0.5 8t0.5 7q0 1 1 13t2 18q0 3 2 9.5t2 9.5q1 4 2 16t3 18
q20 65 36 89q2 4 12 24.5t17 29.5q20 25 41 46q27 29 46 40q75 43 121 43q3 0 9.5 -0.5t9.5 -0.5q38 -6 48 -14q62 -39 88 -92q7 -15 20 -38t15 -27zM435 390q0 2 0.5 5.5t0.5 5.5q0 15 -9 42q-11 30 -40 67q-26 33 -60 33q-20 0 -41 -11t-32.5 -21t-28.5 -28
q-3 -4 -8.5 -13t-8.5 -13q-1 -3 -5 -8t-5 -7q-23 -37 -39 -95q-4 -14 -8 -66q0 -3 -0.5 -11t-0.5 -12t-1.5 -13t-0.5 -14q9 -50 29.5 -81t60.5 -45q16 -6 30 -6q6 0 11.5 1.5t10 3t9.5 5t8 5.5t8 8t7 8t8 9t7 9q18 23 41 70q6 11 11 22l12 30q30 89 32 102q2 12 2 18z" />
    <glyph glyph-name="Ocircumflex" unicode="&#xd4;" horiz-adv-x="555" 
d="M294 787q26 14 39 14q0 1 1 1q25 -1 52 -30q36 -38 44 -56q3 -6 3 -13q0 -11 -7.5 -17.5t-19.5 -6.5q-16 0 -35 13q-4 3 -17.5 13t-21.5 15h-1q-1 1 -2 1h-14q-18 -6 -45 -27q-14 -12 -20 -14q-10 -5 -14 -5h-9q-9 0 -18 11t-13 22q-1 3 -1 9q0 22 25 37q10 7 32 15
t30 12q2 1 4.5 2t3.5 2l1 1h1h1zM502 482q4 -8 8 -22q10 -28 10 -58q0 -5 -0.5 -14.5t-0.5 -14.5q-3 -52 -4 -60q-11 -61 -36 -109q-24 -53 -39 -73q-28 -39 -38 -51q-21 -24 -35.5 -38t-43 -28t-59.5 -14q-2 0 -5.5 0.5t-5.5 0.5q-37 5 -50 9l-15 6l1 -1q-16 7 -23 14
q-56 42 -98 110.5t-42 143.5q0 3 0.5 8t0.5 7q0 1 1 13t2 18q0 3 2 9.5t2 9.5q1 4 2 16t3 18q20 65 36 89q2 4 12 24.5t17 29.5q20 25 41 46q27 29 46 40q75 43 121 43q3 0 9.5 -0.5t9.5 -0.5q38 -6 48 -14q62 -39 88 -92q7 -15 20 -38t15 -27zM435 390q0 2 0.5 5.5t0.5 5.5
q0 15 -9 42q-11 30 -40 67q-26 33 -60 33q-20 0 -41 -11t-32.5 -21t-28.5 -28q-3 -4 -8.5 -13t-8.5 -13q-1 -3 -5 -8t-5 -7q-23 -37 -39 -95q-4 -14 -8 -66q0 -3 -0.5 -11t-0.5 -12t-1.5 -13t-0.5 -14q9 -50 29.5 -81t60.5 -45q16 -6 30 -6q6 0 11.5 1.5t10 3t9.5 5t8 5.5
t8 8t7 8t8 9t7 9q18 23 41 70q6 11 11 22l12 30q30 89 32 102q2 12 2 18z" />
    <glyph glyph-name="Otilde" unicode="&#xd5;" horiz-adv-x="555" 
d="M411 795q21 0 21 -27q0 -32 -8 -43q-5 -8 -7 -9q-14 -12 -56 -22q-7 -1 -19 -1q-27 0 -48 12q-35 18 -37 18h-8q-1 -1 -2 -1q-4 -3 -18 -22q-7 -7 -19 -9q-2 0 -5 -0.5t-4 -0.5q-13 0 -21 8t-8 20q0 33 27 56q20 18 44 18h12q29 -5 49 -25q2 -1 9 -6.5t10.5 -8t10 -6
t12.5 -5t13 -1.5q8 0 13 7.5t8 18.5t7 15q10 14 24 14zM502 482q4 -8 8 -22q10 -28 10 -58q0 -5 -0.5 -14.5t-0.5 -14.5q-3 -52 -4 -60q-11 -61 -36 -109q-24 -53 -39 -73q-28 -39 -38 -51q-21 -24 -35.5 -38t-43 -28t-59.5 -14q-2 0 -5.5 0.5t-5.5 0.5q-37 5 -50 9l-15 6
l1 -1q-16 7 -23 14q-56 42 -98 110.5t-42 143.5q0 3 0.5 8t0.5 7q0 1 1 13t2 18q0 3 2 9.5t2 9.5q1 4 2 16t3 18q20 65 36 89q2 4 12 24.5t17 29.5q20 25 41 46q27 29 46 40q75 43 121 43q3 0 9.5 -0.5t9.5 -0.5q38 -6 48 -14q62 -39 88 -92q7 -15 20 -38t15 -27zM435 390
q0 2 0.5 5.5t0.5 5.5q0 15 -9 42q-11 30 -40 67q-26 33 -60 33q-20 0 -41 -11t-32.5 -21t-28.5 -28q-3 -4 -8.5 -13t-8.5 -13q-1 -3 -5 -8t-5 -7q-23 -37 -39 -95q-4 -14 -8 -66q0 -3 -0.5 -11t-0.5 -12t-1.5 -13t-0.5 -14q9 -50 29.5 -81t60.5 -45q16 -6 30 -6
q6 0 11.5 1.5t10 3t9.5 5t8 5.5t8 8t7 8t8 9t7 9q18 23 41 70q6 11 11 22l12 30q30 89 32 102q2 12 2 18z" />
    <glyph glyph-name="Odieresis" unicode="&#xd6;" horiz-adv-x="555" 
d="M255 787h2q9 2 22 -4q15 -5 21 -11q14 -14 15 -27q0 -1 0.5 -2.5t0.5 -2.5q0 -2 0.5 -5t0.5 -4q0 -27 -19 -42q-19 -14 -34 -14q-8 0 -15 4q-41 21 -41 50q0 37 33 54q6 3 7 3t3.5 0.5t3.5 0.5zM346 738q3 19 13.5 33.5t27.5 14.5q5 0 8 -1q8 -2 17 -10t10 -15v-14v-17
q-4 -47 -32 -52q-1 0 -3 -0.5t-3 -0.5q-14 0 -25 12.5t-13 26.5q0 2 -0.5 6.5t-0.5 6.5t0.5 5t0.5 5zM502 482q4 -8 8 -22q10 -28 10 -58q0 -5 -0.5 -14.5t-0.5 -14.5q-3 -52 -4 -60q-11 -61 -36 -109q-24 -53 -39 -73q-28 -39 -38 -51q-21 -24 -35.5 -38t-43 -28t-59.5 -14
q-2 0 -5.5 0.5t-5.5 0.5q-37 5 -50 9l-15 6l1 -1q-16 7 -23 14q-56 42 -98 110.5t-42 143.5q0 3 0.5 8t0.5 7q0 1 1 13t2 18q0 3 2 9.5t2 9.5q1 4 2 16t3 18q20 65 36 89q2 4 12 24.5t17 29.5q20 25 41 46q27 29 46 40q75 43 121 43q3 0 9.5 -0.5t9.5 -0.5q38 -6 48 -14
q62 -39 88 -92q7 -15 20 -38t15 -27zM435 390q0 2 0.5 5.5t0.5 5.5q0 15 -9 42q-11 30 -40 67q-26 33 -60 33q-20 0 -41 -11t-32.5 -21t-28.5 -28q-3 -4 -8.5 -13t-8.5 -13q-1 -3 -5 -8t-5 -7q-23 -37 -39 -95q-4 -14 -8 -66q0 -3 -0.5 -11t-0.5 -12t-1.5 -13t-0.5 -14
q9 -50 29.5 -81t60.5 -45q16 -6 30 -6q6 0 11.5 1.5t10 3t9.5 5t8 5.5t8 8t7 8t8 9t7 9q18 23 41 70q6 11 11 22l12 30q30 89 32 102q2 12 2 18z" />
    <glyph glyph-name="multiply" unicode="&#xd7;" horiz-adv-x="305" 
d="M93 450q16 -27 23 -36q3 -5 24 -43l3 -6q23 48 38 70l6 7q20 25 55 25q10 -3 10 -8q0 -7 -6 -15q-40 -78 -58 -118q3 -6 7 -12q8 -16 17 -33.5t19.5 -39t16.5 -33.5q10 -21 10 -36q0 -24 -24 -24q-11 0 -22.5 7t-16.5 19l-17 35q-4 10 -13.5 30.5t-14.5 30.5
q-1 -2 -13 -23q-17 -35 -22 -45l-5 -7q-4 -7 -6 -11q-1 -2 -5 -7t-6.5 -8t-6.5 -6.5t-8 -4.5q-1 0 -15 -1t-15 -1q-8 0 -9 4q-4 4 -4 8q0 13 12 44l31 62q4 8 11.5 24.5t10.5 23.5q-5 13 -17 36t-17 36q-2 5 -15 28q-4 12 -4 17q0 10 7.5 15.5t16.5 5.5q15 0 22 -10z" />
    <glyph glyph-name="Oslash" unicode="&#xd8;" horiz-adv-x="555" 
d="M435 390q0 2 0.5 5.5t0.5 5.5q0 15 -9 42q-8 19 -23 43q-47 -127 -116 -301q-3 -9 -12 -30.5t-13 -33.5l-7 -21q4 -1 12 -1q6 0 11.5 1.5t10 3t9.5 5t8 5.5t8 8t7 8t8 9t7 9q18 23 41 70q6 11 11 22l12 30q30 89 32 102q2 12 2 18zM502 482q4 -8 8 -22q10 -28 10 -58
q0 -5 -0.5 -14.5t-0.5 -14.5q-3 -52 -4 -60q-11 -61 -36 -109q-24 -53 -39 -73q-28 -39 -38 -51q-21 -24 -35.5 -38t-43 -28t-59.5 -14q-2 0 -5.5 0.5t-5.5 0.5q-23 2 -34 5q0 -2 -1 -3q-9 -23 -17 -30q-5 -5 -12 -5q-9 0 -14 12q-1 1 -1 2q0 2 -1 2q-9 25 -9 34q0 2 0.5 6
t0.5 5q-55 44 -97 111.5t-42 142.5q0 3 0.5 8t0.5 7q0 1 1 13t2 18q0 3 2 9.5t2 9.5q1 4 2 16t3 18q20 65 36 89q2 4 12 24.5t17 29.5q20 25 41 46q27 29 46 40q75 43 121 43q3 0 9.5 -0.5t9.5 -0.5q38 -6 48 -14q6 -4 10 -6q4 6 7 8q9 11 19 10q9 0 15 -9q9 -11 9 -35v-16
q0 -1 -1 -3q19 -20 29 -41q7 -15 20 -38t15 -27zM349 540q-9 3 -22 3q-20 0 -41 -11t-32.5 -21t-28.5 -28q-3 -4 -8.5 -13t-8.5 -13q-1 -3 -5 -8t-5 -7q-23 -37 -39 -95q-4 -14 -8 -66q0 -3 -0.5 -11t-0.5 -12t-1.5 -13t-0.5 -14q13 -72 51 -104q6 19 19 57t23 68t17 52
q5 19 13 39.5t19 46t16 38.5z" />
    <glyph glyph-name="Ugrave" unicode="&#xd9;" horiz-adv-x="393" 
d="M223 629h-2q-20 0 -45 25q-16 19 -20 24q-10 13 -22.5 26.5t-21.5 25t-20 28.5q-6 10 -6 23q0 10 16.5 27.5t27.5 17.5q8 0 13 -5q28 -28 37 -35q15 -13 72 -72q17 -17 17 -36q0 -7 -3 -13t-20 -20.5t-23 -15.5zM328 571q29 0 29 -49q0 -8 -0.5 -26t-0.5 -27
q0 -40 -2 -60q-2 -23 -6 -85t-8 -93q-14 -109 -61 -152q-7 -6 -22 -17t-18 -13q-20 -16 -52 -16q-40 0 -56 11q-25 15 -52 68q-9 16 -15 34.5t-9 47.5t-4.5 42t-2.5 53t-1 47v13q0 29 5 171q0 41 6 57q5 13 25 31q14 14 27 14q37 0 37 -67q0 -3 -0.5 -10t-0.5 -10
q0 -4 0.5 -13t0.5 -13q0 -13 -1 -38t-1 -38q0 -14 2.5 -38.5t2.5 -37.5q0 -70 25 -137q15 -34 35 -41h5q8 0 13.5 2t10 7t6.5 8t5.5 11t4.5 11q30 70 30 186q0 78 4 115q7 52 39 52z" />
    <glyph glyph-name="Uacute" unicode="&#xda;" horiz-adv-x="393" 
d="M224 592q-10 1 -26 16t-16 25q0 5 1 8q3 16 25 38q24 26 49.5 49.5t47.5 45.5q5 5 14 5q11 0 24.5 -13.5t13.5 -22.5q0 -19 -10 -33q-12 -17 -30 -37.5t-26 -31.5q-9 -12 -21 -24q-25 -25 -44 -25h-2zM328 571q29 0 29 -49q0 -8 -0.5 -26t-0.5 -27q0 -40 -2 -60
q-2 -23 -6 -85t-8 -93q-14 -109 -61 -152q-7 -6 -22 -17t-18 -13q-20 -16 -52 -16q-40 0 -56 11q-25 15 -52 68q-9 16 -15 34.5t-9 47.5t-4.5 42t-2.5 53t-1 47v13q0 29 5 171q0 41 6 57q5 13 25 31q14 14 27 14q37 0 37 -67q0 -3 -0.5 -10t-0.5 -10q0 -4 0.5 -13t0.5 -13
q0 -13 -1 -38t-1 -38q0 -14 2.5 -38.5t2.5 -37.5q0 -70 25 -137q15 -34 35 -41h5q8 0 13.5 2t10 7t6.5 8t5.5 11t4.5 11q30 70 30 186q0 78 4 115q7 52 39 52z" />
    <glyph glyph-name="Ucircumflex" unicode="&#xdb;" horiz-adv-x="393" 
d="M206 751q24 13 39 13q0 1 1 1q25 -1 52 -30q36 -38 44 -56q3 -6 3 -12q0 -11 -8 -18t-20 -7q-15 0 -34 13q-4 3 -17.5 13t-21.5 15l-1 1h-2h-14q-18 -6 -45 -27q-14 -12 -20 -14q-10 -5 -15 -5h-8q-9 0 -18 11t-13 22q-2 6 -2 9q0 21 26 37q10 7 32 15t30 12q2 0 4 2t4 3
l1 1h1h1zM328 571q29 0 29 -49q0 -8 -0.5 -26t-0.5 -27q0 -40 -2 -60q-2 -23 -6 -85t-8 -93q-14 -109 -61 -152q-7 -6 -22 -17t-18 -13q-20 -16 -52 -16q-40 0 -56 11q-25 15 -52 68q-9 16 -15 34.5t-9 47.5t-4.5 42t-2.5 53t-1 47v13q0 29 5 171q0 41 6 57q5 13 25 31
q14 14 27 14q37 0 37 -67q0 -3 -0.5 -10t-0.5 -10q0 -4 0.5 -13t0.5 -13q0 -13 -1 -38t-1 -38q0 -14 2.5 -38.5t2.5 -37.5q0 -70 25 -137q15 -34 35 -41h5q8 0 13.5 2t10 7t6.5 8t5.5 11t4.5 11q30 70 30 186q0 78 4 115q7 52 39 52z" />
    <glyph glyph-name="Udieresis" unicode="&#xdc;" horiz-adv-x="393" 
d="M170 744h2q9 2 22 -4q15 -5 21 -11q14 -14 15 -27q0 -1 0.5 -2.5t0.5 -2.5t0.5 -4t0.5 -5q0 -27 -19 -42q-19 -14 -34 -14q-8 0 -15 4q-41 20 -41 50q0 38 33 54q6 3 7 3t3.5 0.5t3.5 0.5zM261 695q3 19 13.5 33.5t27.5 14.5q5 0 8 -1q8 -2 17 -10t10 -15v-14v-17
q-4 -47 -32 -52q-1 0 -3 -0.5t-3 -0.5q-14 0 -25 12.5t-13 26.5q0 2 -0.5 6.5t-0.5 6.5q0 1 0.5 5t0.5 5zM328 571q29 0 29 -49q0 -8 -0.5 -26t-0.5 -27q0 -40 -2 -60q-2 -23 -6 -85t-8 -93q-14 -109 -61 -152q-7 -6 -22 -17t-18 -13q-20 -16 -52 -16q-40 0 -56 11
q-25 15 -52 68q-9 16 -15 34.5t-9 47.5t-4.5 42t-2.5 53t-1 47v13q0 29 5 171q0 41 6 57q5 13 25 31q14 14 27 14q37 0 37 -67q0 -3 -0.5 -10t-0.5 -10q0 -4 0.5 -13t0.5 -13q0 -13 -1 -38t-1 -38q0 -14 2.5 -38.5t2.5 -37.5q0 -70 25 -137q15 -34 35 -41h5q8 0 13.5 2t10 7
t6.5 8t5.5 11t4.5 11q30 70 30 186q0 78 4 115q7 52 39 52z" />
    <glyph glyph-name="Yacute" unicode="&#xdd;" horiz-adv-x="369" 
d="M195 654q-10 1 -26 16t-16 25q0 5 1 8q4 17 24 38q19 21 31 32.5t28.5 27t37.5 36.5q5 5 15 5q11 0 24.5 -13.5t13.5 -22.5q0 -19 -11 -34q-12 -17 -30 -37.5t-26 -31.5q-9 -12 -20 -23q-26 -26 -44 -26h-2zM120 87q7 46 14 212q0 9 1 29t2 30v28q0 46 -29 94
q-9 16 -12 20q-4 5 -11.5 16.5t-11.5 17.5q-8 10 -22 28.5t-19 25.5q-13 20 -13 34q0 8 6 19q6 18 27 18q9 0 13 -1v-2q29 -14 36 -30q8 -13 9 -16q2 -4 16 -25.5t20 -33.5l8 -15l8 -14q11 -14 20 -35q3 -5 9 -13.5t8 -13.5l2 -1q0 2 1 2l2 -3q24 37 27 46q3 5 8.5 16
t7.5 17q2 5 7.5 15t7.5 16q1 2 4 8.5t5 9.5t5.5 8t4.5 8q3 4 7 13t6 13q1 1 3.5 6t3.5 7.5t4 7t5.5 7l5.5 5.5t7 4.5t8 2.5h2q18 3 24 -15q3 -7 1 -20q-17 -64 -34 -95q-1 -2 -6.5 -12t-7.5 -15q-19 -45 -22 -52q-19 -34 -25 -44q-16 -29 -37 -131q-11 -73 -11 -130
q0 -4 -1 -13t-1 -13q0 -35 -1 -51q0 -16 -3 -31q0 -36 -40 -36q-24 0 -39 15l-6 6q-3 5 -5 16v2q-2 8 -2 14q0 1 1 3.5t1 4.5q1 5 1 16z" />
    <glyph glyph-name="Thorn" unicode="&#xde;" horiz-adv-x="355" 
d="M122 323q0 -12 5 -59l-1 -1l1 -1h2q18 4 61 24q32 17 37 22q12 15 16 32v31q-7 39 -16 52l-8 8q-8 8 -24 8q-10 0 -22.5 -3t-25 -7t-15.5 -5h-3q0 -3 0.5 -7.5t0.5 -6.5q0 -14 -4 -44.5t-4 -42.5zM220 198q-18 -11 -56.5 -25.5t-44.5 -17.5v-23l-5 -21q2 -1 2 -22
q0 -3 -0.5 -8t-0.5 -8q0 -4 -1 -18.5t-2 -20t-4 -15t-9.5 -13t-15.5 -3.5q-16 0 -21.5 10t-8.5 30q-5 40 -5 52v4q4 66 4 101v28v30q0 61 10 159q0 2 -0.5 9.5t-0.5 12.5q0 64 4 96q1 9 1 30v15q0 16 1 24q3 34 8 51q6 20 20 20q4 0 6 -1q20 -8 27 -41q6 -27 6 -59
q0 -4 -0.5 -12.5t-0.5 -12.5q0 -7 -0.5 -15.5t-0.5 -14.5t-1 -10q34 4 55 4q66 0 106 -40q29 -39 35 -93v-26l1 -1q-1 -30 -20 -83q-8 -23 -40 -48q-8 -5 -25 -12.5t-23 -11.5z" />
    <glyph glyph-name="germandbls" unicode="&#xdf;" horiz-adv-x="510" 
d="M132 53q-1 -19 -3 -28t-10 -16.5t-24 -8.5q-2 0 -6 -0.5t-6 -0.5q-17 0 -25.5 7.5t-9.5 16.5t-1.5 29t-2.5 33q-2 12 -2 50v17q0 11 2 35q0 3 0.5 10t0.5 11q0 3 0.5 9t0.5 9q1 14 5 37q5 38 24 247q9 95 44.5 124t142.5 34h3q40 0 90.5 -28.5t54.5 -59.5q1 -6 1 -17
q0 -40 -40 -52q-8 -3 -22.5 -15t-17.5 -14q-23 -15 -23 -46q0 -22 3 -37.5t12.5 -26.5t16 -16.5t23.5 -15.5t24 -15q27 -19 30 -22q14 -12 17 -17l16 -22q26 -44 26 -82q0 -3 -0.5 -8.5t-0.5 -8.5q0 -32 -8 -45q-3 -5 -8.5 -17t-8.5 -17q-19 -29 -28 -34q-48 -34 -109 -34
q-14 0 -52 4q-23 0 -39 8q-33 14 -53 36q-12 14 -12 28q0 8 3 16q0 12 10.5 21.5t22.5 9.5q4 1 13 1q22 0 35 -6q12 -5 34 -20.5t39 -15.5q34 8 51 24t17 49v10t-1 10q-3 26 -12 45q-28 31 -66 44q-14 6 -23.5 12.5t-13 10t-13 16.5t-14.5 19q-29 36 -29 68q0 13 4 24
q2 7 18 41l7 9q22 32 36 46q2 2 6.5 5.5t6.5 5.5l10 10q10 10 16 15q-31 18 -55 18h-6q-38 -4 -56 -13.5t-22.5 -20t-10.5 -38.5q-7 -42 -7 -87q0 -19 -3 -49t-3 -64q0 -22 -4 -62q-1 -18 -5.5 -56t-7 -71t-2.5 -68z" />
    <glyph glyph-name="agrave" unicode="&#xe0;" horiz-adv-x="538" 
d="M195 671h-2q-21 0 -46 25q-16 19 -20 24q-10 13 -22.5 26.5t-21.5 25t-20 28.5q-6 10 -6 23q0 10 16.5 27.5t27.5 17.5q9 0 14 -5q28 -28 37 -35q15 -13 26 -24t24 -25.5t21 -22.5q18 -18 18 -36q0 -7 -3 -13t-20 -20.5t-23 -15.5zM179 251q-2 -8 -4 -12q1 0 3 0.5t3 0.5
q30 4 45 5q14 2 97 30q-3 7 -5 15q-5 16 -15.5 49t-18.5 55q-3 9 -10.5 28.5t-11.5 28.5q-5 13 -7 16q-1 -1 -1 -3t-1 -3q-26 -73 -32 -96q-16 -52 -28 -77q-2 -4 -4.5 -11t-3.5 -11zM379 119q-2 4 -7 15.5t-8 17.5q-4 0 -11 -1t-10 -1l-34 -4q-21 -2 -70.5 -5t-75.5 -6
l-25 -3q-5 -8 -12 -24.5t-11 -24.5q-9 -17 -16.5 -41.5t-16.5 -41.5q-6 -12 -12 -18q-20 -27 -39 -27q-9 0 -16 3q-27 14 -27 42q0 19 9 45.5t10 33.5q15 53 30 84q2 4 4 12q14 41 17 57q6 30 23.5 81t22.5 67q3 9 15 38t16 46q1 4 7.5 26t8.5 33q11 43 20 58q2 4 6.5 12
t6.5 12q15 33 48 33q18 0 32.5 -10t20 -18t16.5 -30t13 -25q6 -12 25.5 -47t28.5 -55l12 -28q7 -16 14 -27l13 -24q15 -34 23 -59q3 -8 7.5 -25.5t7.5 -25.5q7 -15 20 -54q2 -6 20 -54.5t23 -63.5q6 -18 6 -41q0 -55 -40 -55h-1q-26 0 -49 27q-9 11 -24 44t-21 51v1z" />
    <glyph glyph-name="aacute" unicode="&#xe1;" horiz-adv-x="538" 
d="M257 658q-10 1 -26 16t-16 25q0 6 1 9q3 15 25 37q19 21 31 32.5t28.5 27t37.5 36.5q5 5 14 5q11 0 24.5 -13.5t13.5 -22.5q0 -20 -10 -34q-12 -17 -30 -37t-26 -31q-9 -12 -21 -24q-26 -26 -44 -26h-2zM179 251q-2 -8 -4 -12q1 0 3 0.5t3 0.5q30 4 45 5q14 2 97 30
q-3 7 -5 15q-5 16 -15.5 49t-18.5 55q-3 9 -10.5 28.5t-11.5 28.5q-5 13 -7 16q-1 -1 -1 -3t-1 -3q-26 -73 -32 -96q-16 -52 -28 -77q-2 -4 -4.5 -11t-3.5 -11zM379 119q-2 4 -7 15.5t-8 17.5q-4 0 -11 -1t-10 -1l-34 -4q-21 -2 -70.5 -5t-75.5 -6l-25 -3q-5 -8 -12 -24.5
t-11 -24.5q-9 -17 -16.5 -41.5t-16.5 -41.5q-6 -12 -12 -18q-20 -27 -39 -27q-9 0 -16 3q-27 14 -27 42q0 19 9 45.5t10 33.5q15 53 30 84q2 4 4 12q14 41 17 57q6 30 23.5 81t22.5 67q3 9 15 38t16 46q1 4 7.5 26t8.5 33q11 43 20 58q2 4 6.5 12t6.5 12q15 33 48 33
q18 0 32.5 -10t20 -18t16.5 -30t13 -25q6 -12 25.5 -47t28.5 -55l12 -28q7 -16 14 -27l13 -24q15 -34 23 -59q3 -8 7.5 -25.5t7.5 -25.5q7 -15 20 -54q2 -6 20 -54.5t23 -63.5q6 -18 6 -41q0 -55 -40 -55h-1q-26 0 -49 27q-9 11 -24 44t-21 51v1z" />
    <glyph glyph-name="acircumflex" unicode="&#xe2;" horiz-adv-x="538" 
d="M214 771q24 13 39 13q0 1 1 1q26 -1 52 -29q35 -37 44 -57q3 -6 3 -12q0 -11 -7.5 -17.5t-19.5 -6.5q-16 0 -35 13q-3 2 -17 12t-22 15l-1 1q-1 1 -2 1h-13q-20 -7 -46 -27q-14 -12 -20 -14q-12 -6 -14 -6h-9q-9 0 -18 11t-13 22q-1 3 -1 9q0 22 25 37q11 7 32.5 15.5
t29.5 12.5q1 0 3.5 1.5t4.5 2.5l1 1h1h1zM179 251q-2 -8 -4 -12q1 0 3 0.5t3 0.5q30 4 45 5q14 2 97 30q-3 7 -5 15q-5 16 -15.5 49t-18.5 55q-3 9 -10.5 28.5t-11.5 28.5q-5 13 -7 16q-1 -1 -1 -3t-1 -3q-26 -73 -32 -96q-16 -52 -28 -77q-2 -4 -4.5 -11t-3.5 -11zM379 119
q-2 4 -7 15.5t-8 17.5q-4 0 -11 -1t-10 -1l-34 -4q-21 -2 -70.5 -5t-75.5 -6l-25 -3q-5 -8 -12 -24.5t-11 -24.5q-9 -17 -16.5 -41.5t-16.5 -41.5q-6 -12 -12 -18q-20 -27 -39 -27q-9 0 -16 3q-27 14 -27 42q0 19 9 45.5t10 33.5q15 53 30 84q2 4 4 12q14 41 17 57
q6 30 23.5 81t22.5 67q3 9 15 38t16 46q1 4 7.5 26t8.5 33q11 43 20 58q2 4 6.5 12t6.5 12q15 33 48 33q18 0 32.5 -10t20 -18t16.5 -30t13 -25q6 -12 25.5 -47t28.5 -55l12 -28q7 -16 14 -27l13 -24q15 -34 23 -59q3 -8 7.5 -25.5t7.5 -25.5q7 -15 20 -54q2 -6 20 -54.5
t23 -63.5q6 -18 6 -41q0 -55 -40 -55h-1q-26 0 -49 27q-9 11 -24 44t-21 51v1z" />
    <glyph glyph-name="atilde" unicode="&#xe3;" horiz-adv-x="538" 
d="M343 763q10 0 16 -8t6 -19q0 -30 -9 -43q-5 -8 -7 -9q-13 -10 -55 -21q-7 -1 -20 -1q-29 0 -48 11q-35 18 -37 18h-8q-1 -1 -2 -1q-4 -2 -17 -21q-8 -8 -20 -10q-2 0 -5 -0.5t-4 -0.5q-13 0 -21 8t-8 20q0 33 27 56q20 18 44 18h12q30 -5 50 -25q35 -26 55 -26
q8 0 12.5 7.5t7.5 18.5t7 15q9 13 24 13zM179 251q-2 -8 -4 -12q1 0 3 0.5t3 0.5q30 4 45 5q14 2 97 30q-3 7 -5 15q-5 16 -15.5 49t-18.5 55q-3 9 -10.5 28.5t-11.5 28.5q-5 13 -7 16q-1 -1 -1 -3t-1 -3q-26 -73 -32 -96q-16 -52 -28 -77q-2 -4 -4.5 -11t-3.5 -11zM379 119
q-2 4 -7 15.5t-8 17.5q-4 0 -11 -1t-10 -1l-34 -4q-21 -2 -70.5 -5t-75.5 -6l-25 -3q-5 -8 -12 -24.5t-11 -24.5q-9 -17 -16.5 -41.5t-16.5 -41.5q-6 -12 -12 -18q-20 -27 -39 -27q-9 0 -16 3q-27 14 -27 42q0 19 9 45.5t10 33.5q15 53 30 84q2 4 4 12q14 41 17 57
q6 30 23.5 81t22.5 67q3 9 15 38t16 46q1 4 7.5 26t8.5 33q11 43 20 58q2 4 6.5 12t6.5 12q15 33 48 33q18 0 32.5 -10t20 -18t16.5 -30t13 -25q6 -12 25.5 -47t28.5 -55l12 -28q7 -16 14 -27l13 -24q15 -34 23 -59q3 -8 7.5 -25.5t7.5 -25.5q7 -15 20 -54q2 -6 20 -54.5
t23 -63.5q6 -18 6 -41q0 -55 -40 -55h-1q-26 0 -49 27q-9 11 -24 44t-21 51v1z" />
    <glyph glyph-name="adieresis" unicode="&#xe4;" horiz-adv-x="538" 
d="M175 771h2q9 2 22 -4q15 -5 21 -11q15 -15 16 -27q0 -1 0.5 -2.5t0.5 -2.5q0 -2 0.5 -5t0.5 -4q0 -26 -20 -42q-20 -15 -34 -15q-7 0 -15 5q-41 21 -41 50q0 37 33 54q6 3 7 3t3.5 0.5t3.5 0.5zM266 722q3 19 13.5 33.5t27.5 14.5q5 0 8 -1q8 -2 17 -10.5t10 -15.5v-13
v-17q-4 -48 -32 -53q-1 0 -3 -0.5t-3 -0.5q-14 0 -25 12.5t-13 26.5q0 2 -0.5 7t-0.5 7t0.5 5t0.5 5zM179 251q-2 -8 -4 -12q1 0 3 0.5t3 0.5q30 4 45 5q14 2 97 30q-3 7 -5 15q-5 16 -15.5 49t-18.5 55q-3 9 -10.5 28.5t-11.5 28.5q-5 13 -7 16q-1 -1 -1 -3t-1 -3
q-26 -73 -32 -96q-16 -52 -28 -77q-2 -4 -4.5 -11t-3.5 -11zM379 119q-2 4 -7 15.5t-8 17.5q-4 0 -11 -1t-10 -1l-34 -4q-21 -2 -70.5 -5t-75.5 -6l-25 -3q-5 -8 -12 -24.5t-11 -24.5q-9 -17 -16.5 -41.5t-16.5 -41.5q-6 -12 -12 -18q-20 -27 -39 -27q-9 0 -16 3
q-27 14 -27 42q0 19 9 45.5t10 33.5q15 53 30 84q2 4 4 12q14 41 17 57q6 30 23.5 81t22.5 67q3 9 15 38t16 46q1 4 7.5 26t8.5 33q11 43 20 58q2 4 6.5 12t6.5 12q15 33 48 33q18 0 32.5 -10t20 -18t16.5 -30t13 -25q6 -12 25.5 -47t28.5 -55l12 -28q7 -16 14 -27l13 -24
q15 -34 23 -59q3 -8 7.5 -25.5t7.5 -25.5q7 -15 20 -54q2 -6 20 -54.5t23 -63.5q6 -18 6 -41q0 -55 -40 -55h-1q-26 0 -49 27q-9 11 -24 44t-21 51v1z" />
    <glyph glyph-name="aring" unicode="&#xe5;" horiz-adv-x="538" 
d="M269 700q-3 9 -14 18t-22 9q-8 0 -15 -7q-5 -4 -13 -27q-2 -6 -2 -18q0 -11 9.5 -20.5t20.5 -9.5q5 0 11 2q10 5 18 20t8 27q0 5 -1 6zM379 119q-2 4 -7 15.5t-8 17.5q-4 0 -11 -1t-10 -1l-34 -4q-21 -2 -70.5 -5t-75.5 -6l-25 -3q-5 -8 -12 -24.5t-11 -24.5
q-9 -17 -16.5 -41.5t-16.5 -41.5q-6 -12 -12 -18q-20 -27 -39 -27q-9 0 -16 3q-27 14 -27 42q0 19 9 45.5t10 33.5q15 53 30 84q2 4 4 12q14 41 17 57q6 30 23.5 81t22.5 67q3 9 15 38t16 46q1 4 7.5 26t8.5 33q11 43 20 58q1 3 5 10t6 11q-36 31 -36 65q0 12 3 23t6 17.5
t9 17.5t8 16q19 40 60 53q3 1 10 1h6q19 0 39 -11.5t25 -24.5q1 -2 6 -14.5t5 -14.5q3 -28 3 -51q0 -61 -35 -79q5 -8 12 -23.5t11 -21.5q6 -12 25.5 -47t28.5 -55l12 -28q7 -16 14 -27l13 -24q15 -34 23 -59q3 -8 7.5 -25.5t7.5 -25.5q7 -15 20 -54q2 -6 20 -54.5t23 -63.5
q6 -18 6 -41q0 -55 -40 -55h-1q-26 0 -49 27q-9 11 -24 44t-21 51v1zM179 251q-2 -8 -4 -12q1 0 3 0.5t3 0.5q30 4 45 5q14 2 97 30q-3 7 -5 15q-5 16 -15.5 49t-18.5 55q-3 9 -10.5 28.5t-11.5 28.5q-5 13 -7 16q-1 -1 -1 -3t-1 -3q-26 -73 -32 -96q-16 -52 -28 -77
q-2 -4 -4.5 -11t-3.5 -11z" />
    <glyph glyph-name="ae" unicode="&#xe6;" horiz-adv-x="779" 
d="M377 119q-2 3 -7.5 15t-8.5 18q-3 0 -10 -1t-10 -1l-34 -4q-21 -2 -72 -5t-77 -6l-25 -3q-4 -7 -11 -23.5t-12 -25.5q-8 -16 -14 -41t-15 -42q-6 -12 -12 -18q-22 -27 -40 -27q-7 0 -15 3q-27 14 -27 42q0 14 3.5 27.5t8.5 28t7 23.5q12 47 29 84q2 4 4 12q14 41 17 57
q7 29 24 80t22 68q3 9 15 38t16 46q13 49 15 59q11 40 21 58q2 4 6.5 12t6.5 12q15 33 48 33q14 0 25.5 -5t20.5 -16t14 -18.5t12.5 -23.5t9.5 -20q6 -12 25.5 -47t28.5 -55l12 -28q1 -2 3 -5.5t3 -4.5l-3 15q-2 10 -4 32q0 2 -0.5 7t-0.5 7v10q0 2 -0.5 5.5t-0.5 5.5
t-0.5 5.5t-0.5 5.5q-1 7 -1 22v27q0 13 7 34q9 35 31 45q39 13 50 15q53 17 105 17h11q5 0 14.5 -0.5t14.5 -0.5h5q22 0 62 -10q36 -15 36 -45v-8q-4 -35 -41 -52h-2q-6 -3 -9 -3q-16 -2 -22 -2q-2 0 -6 0.5t-6 0.5h-91q-52 0 -72 -6h-1q2 -10 2 -17q0 -8 -2 -24.5t-2 -23.5
q0 -11 3 -21q0 -2 1.5 -7.5t2.5 -7.5l3 -15q1 0 3.5 0.5t3.5 0.5q4 1 11 1h72q5 0 15 0.5t14 0.5h15q5 -1 25.5 -3.5t31 -5t21 -13t10.5 -27.5q0 -2 -0.5 -5t-0.5 -4v-2q-4 -26 -15 -34q-13 -12 -31 -16h-2q-1 0 -10 -3t-14 -4t-16 -2t-12 -1l-1 -1q-11 -2 -29 -4h-3
q-3 0 -21 -0.5t-20 -0.5q-19 -2 -43 -8v-19q0 -3 0.5 -9.5t0.5 -9.5t0.5 -8t0.5 -8t0.5 -9t0.5 -8q0 -4 0.5 -11t0.5 -11q0 -32 7 -62v-6.5t1 -6.5q2 -18 5 -26q0 -1 0.5 -2t0.5 -2q3 1 9 2.5t9 2.5q1 0 3 0.5t3 0.5h2q1 0 33 7t43 7h4q18 2 30 2h13q2 0 8 -0.5t9 -0.5
q60 -6 75 -18q13 -12 13 -29q0 -1 -0.5 -2.5t-0.5 -2.5q-2 -15 -4.5 -23t-9 -15.5t-16.5 -10.5q-74 -19 -80 -20q-5 -1 -32 -7.5t-46 -6.5h-23l-15 1q-37 0 -59 6.5t-32 27.5q-1 0 -1 2t-1 2v1q-9 12 -25 45t-21 50v1zM177 251q-2 -8 -4 -12q1 0 3 0.5t3 0.5q30 4 45 5
q18 3 97 30q-3 7 -5 15q-38 136 -60 190q-6 16 -7 17q-1 -1 -1 -3.5t-1 -3.5q-35 -96 -70 -239z" />
    <glyph glyph-name="ccedilla" unicode="&#xe7;" horiz-adv-x="401" 
d="M229 137l29 -5h3q9 0 17 3q16 3 29 3q53 0 53 -43q0 -23 -15 -56q-11 -25 -53 -46q-21 -12 -45 -12q-1 0 -4 0.5t-5 0.5q-4 -12 -6.5 -19t-6.5 -15t-6 -11.5t-9.5 -14.5t-11.5 -18q-19 -32 -35 -38h-2q-2 -1 -6 -1q-17 0 -29 8.5t-12 23.5q0 19 6.5 33.5t19.5 32t19 27.5
t9 16q-9 6 -17 14q-53 38 -83 112.5t-30 159.5q0 25 3 49q1 2 1 6.5v6.5q2 20 15 62q19 63 76 135q2 3 10.5 11t11.5 12q36 41 50 53q17 12 33 17q15 5 21 5h4q2 0 17 -3h4q1 0 14 -3q14 -3 24 -15.5t10 -27.5v-9q-1 -16 -6.5 -26.5t-11 -15.5t-20.5 -15q-12 -8 -26 -15
q-53 -27 -83.5 -97t-30.5 -152q0 -39 22.5 -83t52.5 -50z" />
    <glyph glyph-name="egrave" unicode="&#xe8;" horiz-adv-x="444" 
d="M205 708h-2q-20 0 -45 25q-1 1 -9 10t-12 14q-10 12 -22.5 26.5t-21 25t-19.5 28.5q-6 10 -6 23q0 10 16.5 27.5t27.5 17.5q8 0 13 -5q28 -28 37 -35q15 -13 26 -24t24 -25.5t21 -22.5q18 -18 18 -36q0 -8 -3 -14t-20 -20t-23 -15zM70 166q0 78 -15 156v4q0 3 -1 8.5
t-1.5 10t-0.5 8.5v27q0 2 -0.5 6.5t-0.5 6.5q0 3 -0.5 9t-0.5 9q0 15 -1 23l-3 19q-2 11 -4 31q0 3 -0.5 8t-0.5 7v10q0 2 -0.5 5t-0.5 5t-0.5 5.5t-0.5 5.5q-1 7 -1 23v27q0 12 7 33q9 37 31 45q32 13 50 16q50 16 105 16h11q5 0 14.5 -0.5t14.5 -0.5h5q33 0 62 -9
q36 -15 36 -45v-8q-4 -34 -41 -53h-2q-6 -3 -8 -3q-16 -2 -23 -2q-2 0 -6 0.5t-6 0.5h-90q-33 0 -50 -6h-1q2 -10 4.5 -27.5t5.5 -32t7 -26.5q0 -2 1.5 -7t2.5 -7l3 -15q1 0 3.5 0.5t3.5 0.5q4 1 11 1h33q4 0 14 0.5t15 0.5h15q4 -1 25 -3.5t31.5 -5.5t21 -13.5t10.5 -27.5
q0 -2 -0.5 -5t-0.5 -4v-2q-4 -24 -15 -34q-12 -10 -31 -15h-2q-2 -1 -10 -3.5t-13 -3.5t-16.5 -2t-12.5 -1l-1 -1q-5 -1 -14.5 -2t-14.5 -2h-3q-2 0 -7 -0.5t-8 -0.5q-13 -1 -43 -9v-18q0 -3 0.5 -9.5t0.5 -9.5q0 -2 0.5 -8t0.5 -9t0.5 -8.5t0.5 -7.5q0 -3 0.5 -11t0.5 -12
q0 -30 7 -61q1 -2 1 -6.5v-6.5q2 -18 5 -26l1 -2v-2q14 2 43 5.5t53.5 7t44.5 7.5q14 2 21 2q27 0 47 -12.5t20 -36.5q0 -1 -0.5 -2.5t-0.5 -2.5q-2 -14 -5 -22t-9.5 -15.5t-16.5 -10.5q-11 -3 -38 -10.5t-42 -10.5q-5 -1 -32 -7.5t-46 -6.5h-22l-16 1q-73 0 -91 35
q-2 2 -7 19q-8 20 -8 32q0 4 -2 14.5t-2 15.5q-1 4 -1 14v15v15z" />
    <glyph glyph-name="eacute" unicode="&#xe9;" horiz-adv-x="444" 
d="M206 720q-10 1 -26 16t-16 25q0 5 1 8q3 17 24 38q24 26 49.5 49t48.5 46q5 5 14 5q11 0 24.5 -13.5t13.5 -22.5q0 -19 -10 -33q-12 -17 -30.5 -37.5t-26.5 -31.5q-12 -16 -20 -24q-25 -25 -44 -25h-2zM70 166q0 78 -15 156v4q0 3 -1 8.5t-1.5 10t-0.5 8.5v27
q0 2 -0.5 6.5t-0.5 6.5q0 3 -0.5 9t-0.5 9q0 15 -1 23l-3 19q-2 11 -4 31q0 3 -0.5 8t-0.5 7v10q0 2 -0.5 5t-0.5 5t-0.5 5.5t-0.5 5.5q-1 7 -1 23v27q0 12 7 33q9 37 31 45q32 13 50 16q50 16 105 16h11q5 0 14.5 -0.5t14.5 -0.5h5q33 0 62 -9q36 -15 36 -45v-8
q-4 -34 -41 -53h-2q-6 -3 -8 -3q-16 -2 -23 -2q-2 0 -6 0.5t-6 0.5h-90q-33 0 -50 -6h-1q2 -10 4.5 -27.5t5.5 -32t7 -26.5q0 -2 1.5 -7t2.5 -7l3 -15q1 0 3.5 0.5t3.5 0.5q4 1 11 1h33q4 0 14 0.5t15 0.5h15q4 -1 25 -3.5t31.5 -5.5t21 -13.5t10.5 -27.5q0 -2 -0.5 -5
t-0.5 -4v-2q-4 -24 -15 -34q-12 -10 -31 -15h-2q-2 -1 -10 -3.5t-13 -3.5t-16.5 -2t-12.5 -1l-1 -1q-5 -1 -14.5 -2t-14.5 -2h-3q-2 0 -7 -0.5t-8 -0.5q-13 -1 -43 -9v-18q0 -3 0.5 -9.5t0.5 -9.5q0 -2 0.5 -8t0.5 -9t0.5 -8.5t0.5 -7.5q0 -3 0.5 -11t0.5 -12q0 -30 7 -61
q1 -2 1 -6.5v-6.5q2 -18 5 -26l1 -2v-2q14 2 43 5.5t53.5 7t44.5 7.5q14 2 21 2q27 0 47 -12.5t20 -36.5q0 -1 -0.5 -2.5t-0.5 -2.5q-2 -14 -5 -22t-9.5 -15.5t-16.5 -10.5q-11 -3 -38 -10.5t-42 -10.5q-5 -1 -32 -7.5t-46 -6.5h-22l-16 1q-73 0 -91 35q-2 2 -7 19
q-8 20 -8 32q0 4 -2 14.5t-2 15.5q-1 4 -1 14v15v15z" />
    <glyph glyph-name="ecircumflex" unicode="&#xea;" horiz-adv-x="444" 
d="M166 826q26 14 39 14q0 1 1 1q25 -1 52 -30q36 -38 44 -56q3 -6 3 -13q0 -11 -7.5 -17.5t-19.5 -6.5q-16 0 -35 13q-4 3 -17.5 13t-21.5 15l-1 1h-2h-14q-18 -6 -45 -27q-14 -12 -20 -14q-10 -5 -14 -5h-9q-9 0 -18 10.5t-13 21.5q-1 3 -1 10q0 22 25 37q10 7 32 15
t30 12q1 0 3.5 2t4.5 2h1l1 1l1 1h1zM70 166q0 78 -15 156v4q0 3 -1 8.5t-1.5 10t-0.5 8.5v27q0 2 -0.5 6.5t-0.5 6.5q0 3 -0.5 9t-0.5 9q0 15 -1 23l-3 19q-2 11 -4 31q0 3 -0.5 8t-0.5 7v10q0 2 -0.5 5t-0.5 5t-0.5 5.5t-0.5 5.5q-1 7 -1 23v27q0 12 7 33q9 37 31 45
q32 13 50 16q50 16 105 16h11q5 0 14.5 -0.5t14.5 -0.5h5q33 0 62 -9q36 -15 36 -45v-8q-4 -34 -41 -53h-2q-6 -3 -8 -3q-16 -2 -23 -2q-2 0 -6 0.5t-6 0.5h-90q-33 0 -50 -6h-1q2 -10 4.5 -27.5t5.5 -32t7 -26.5q0 -2 1.5 -7t2.5 -7l3 -15q1 0 3.5 0.5t3.5 0.5q4 1 11 1h33
q4 0 14 0.5t15 0.5h15q4 -1 25 -3.5t31.5 -5.5t21 -13.5t10.5 -27.5q0 -2 -0.5 -5t-0.5 -4v-2q-4 -24 -15 -34q-12 -10 -31 -15h-2q-2 -1 -10 -3.5t-13 -3.5t-16.5 -2t-12.5 -1l-1 -1q-5 -1 -14.5 -2t-14.5 -2h-3q-2 0 -7 -0.5t-8 -0.5q-13 -1 -43 -9v-18q0 -3 0.5 -9.5
t0.5 -9.5q0 -2 0.5 -8t0.5 -9t0.5 -8.5t0.5 -7.5q0 -3 0.5 -11t0.5 -12q0 -30 7 -61q1 -2 1 -6.5v-6.5q2 -18 5 -26l1 -2v-2q14 2 43 5.5t53.5 7t44.5 7.5q14 2 21 2q27 0 47 -12.5t20 -36.5q0 -1 -0.5 -2.5t-0.5 -2.5q-2 -14 -5 -22t-9.5 -15.5t-16.5 -10.5
q-11 -3 -38 -10.5t-42 -10.5q-5 -1 -32 -7.5t-46 -6.5h-22l-16 1q-73 0 -91 35q-2 2 -7 19q-8 20 -8 32q0 4 -2 14.5t-2 15.5q-1 4 -1 14v15v15z" />
    <glyph glyph-name="edieresis" unicode="&#xeb;" horiz-adv-x="444" 
d="M164 826h2q9 2 21 -4q16 -6 22 -11q14 -14 15 -27q0 -1 0.5 -2.5t0.5 -2.5q0 -2 0.5 -5t0.5 -4q0 -27 -19 -42q-19 -14 -34 -14q-8 0 -15 4q-41 20 -41 50q0 38 33 54q6 3 7 3t3.5 0.5t3.5 0.5zM255 777q3 19 13.5 33.5t27.5 14.5q5 0 8 -1q8 -2 17 -10t10 -15v-14v-17
q-4 -47 -32 -52q-1 0 -3 -0.5t-3 -0.5q-14 0 -25 12.5t-13 26.5q0 2 -0.5 6.5t-0.5 6.5q0 1 0.5 5t0.5 5zM70 166q0 78 -15 156v4q0 3 -1 8.5t-1.5 10t-0.5 8.5v27q0 2 -0.5 6.5t-0.5 6.5q0 3 -0.5 9t-0.5 9q0 15 -1 23l-3 19q-2 11 -4 31q0 3 -0.5 8t-0.5 7v10q0 2 -0.5 5
t-0.5 5t-0.5 5.5t-0.5 5.5q-1 7 -1 23v27q0 12 7 33q9 37 31 45q32 13 50 16q50 16 105 16h11q5 0 14.5 -0.5t14.5 -0.5h5q33 0 62 -9q36 -15 36 -45v-8q-4 -34 -41 -53h-2q-6 -3 -8 -3q-16 -2 -23 -2q-2 0 -6 0.5t-6 0.5h-90q-33 0 -50 -6h-1q2 -10 4.5 -27.5t5.5 -32
t7 -26.5q0 -2 1.5 -7t2.5 -7l3 -15q1 0 3.5 0.5t3.5 0.5q4 1 11 1h33q4 0 14 0.5t15 0.5h15q4 -1 25 -3.5t31.5 -5.5t21 -13.5t10.5 -27.5q0 -2 -0.5 -5t-0.5 -4v-2q-4 -24 -15 -34q-12 -10 -31 -15h-2q-2 -1 -10 -3.5t-13 -3.5t-16.5 -2t-12.5 -1l-1 -1q-5 -1 -14.5 -2
t-14.5 -2h-3q-2 0 -7 -0.5t-8 -0.5q-13 -1 -43 -9v-18q0 -3 0.5 -9.5t0.5 -9.5q0 -2 0.5 -8t0.5 -9t0.5 -8.5t0.5 -7.5q0 -3 0.5 -11t0.5 -12q0 -30 7 -61q1 -2 1 -6.5v-6.5q2 -18 5 -26l1 -2v-2q14 2 43 5.5t53.5 7t44.5 7.5q14 2 21 2q27 0 47 -12.5t20 -36.5
q0 -1 -0.5 -2.5t-0.5 -2.5q-2 -14 -5 -22t-9.5 -15.5t-16.5 -10.5q-11 -3 -38 -10.5t-42 -10.5q-5 -1 -32 -7.5t-46 -6.5h-22l-16 1q-73 0 -91 35q-2 2 -7 19q-8 20 -8 32q0 4 -2 14.5t-2 15.5q-1 4 -1 14v15v15z" />
    <glyph glyph-name="igrave" unicode="&#xec;" horiz-adv-x="206" 
d="M92 640h-2q-19 0 -45 26q-1 1 -8.5 9.5t-11.5 13.5q-10 13 -22.5 26.5t-21.5 25t-20 28.5q-6 11 -6 24q0 10 16.5 27.5t27.5 17.5q8 0 13 -5q28 -28 37 -35q15 -13 26.5 -24t24.5 -26t21 -23q17 -17 17 -36q0 -7 -3 -13t-20 -20.5t-23 -15.5zM92 -5q-18 0 -28 15t-10 35
q-3 27 -3 29q0 4 -0.5 12t-0.5 12v2q0 4 0.5 12.5t0.5 12.5v4q0 4 -1 14t-1 15v7q0 3 0.5 11t0.5 11v31q0 9 1 28t1 28q0 10 0.5 30.5t0.5 30.5v87v28q-4 32 -4 53q0 33 6 58q1 19 3 28t9 18t21 11q1 0 3.5 1t4.5 1q4 0 7.5 -1.5t6 -3t5 -4.5t4 -4.5t3.5 -5.5t3 -5v1
q14 -17 14 -42v-9q0 -3 -1 -10.5t-1 -10.5q-4 -28 -4 -46v-12q0 -4 -1 -10.5t-1 -9.5q0 -99 -2 -118q-4 -32 -4 -48q0 -2 0.5 -6.5t0.5 -6.5q1 -9 1 -27v-3q0 -5 -0.5 -16t-0.5 -16q0 -6 -0.5 -19t-0.5 -19q0 -3 0.5 -9t0.5 -9q5 -18 5 -37v-3q0 -6 -1.5 -17t-1.5 -16v-2
q0 -46 -10 -62q-11 -18 -26 -18z" />
    <glyph glyph-name="iacute" unicode="&#xed;" horiz-adv-x="206" 
d="M90 640q-10 1 -26 16t-16 25q0 5 1 8q3 16 25 38q24 26 49.5 49.5t47.5 45.5q5 5 14 5q11 0 24.5 -13t13.5 -22q0 -20 -10 -34q-12 -17 -30 -37.5t-26 -31.5q-6 -8 -21 -23q-26 -26 -44 -26h-2zM92 -5q-18 0 -28 15t-10 35q-3 27 -3 29q0 4 -0.5 12t-0.5 12v2
q0 4 0.5 12.5t0.5 12.5v4q0 4 -1 14t-1 15v7q0 3 0.5 11t0.5 11v31q0 9 1 28t1 28q0 10 0.5 30.5t0.5 30.5v87v28q-4 32 -4 53q0 33 6 58q1 19 3 28t9 18t21 11q1 0 3.5 1t4.5 1q4 0 7.5 -1.5t6 -3t5 -4.5t4 -4.5t3.5 -5.5t3 -5v1q14 -17 14 -42v-9q0 -3 -1 -10.5t-1 -10.5
q-4 -28 -4 -46v-12q0 -4 -1 -10.5t-1 -9.5q0 -99 -2 -118q-4 -32 -4 -48q0 -2 0.5 -6.5t0.5 -6.5q1 -9 1 -27v-3q0 -5 -0.5 -16t-0.5 -16q0 -6 -0.5 -19t-0.5 -19q0 -3 0.5 -9t0.5 -9q5 -18 5 -37v-3q0 -6 -1.5 -17t-1.5 -16v-2q0 -46 -10 -62q-11 -18 -26 -18z" />
    <glyph glyph-name="icircumflex" unicode="&#xee;" horiz-adv-x="206" 
d="M72 753q24 13 39 13q0 1 1 1q25 -1 52 -30q36 -38 44 -56q3 -6 3 -12q0 -11 -8 -18t-20 -7q-15 0 -35 13q-4 3 -17 13t-21 15l-2 1h-2h-13q-18 -6 -45 -27q-14 -12 -20 -14q-10 -5 -15 -5h-8q-9 0 -18.5 11t-13.5 22q-1 3 -1 9q0 21 26 37q10 7 31.5 15t29.5 12q2 0 5 2
t4 3l1 1h1h1zM92 -5q-18 0 -28 15t-10 35q-3 27 -3 29q0 4 -0.5 12t-0.5 12v2q0 4 0.5 12.5t0.5 12.5v4q0 4 -1 14t-1 15v7q0 3 0.5 11t0.5 11v31q0 9 1 28t1 28q0 10 0.5 30.5t0.5 30.5v87v28q-4 32 -4 53q0 33 6 58q1 19 3 28t9 18t21 11q1 0 3.5 1t4.5 1q4 0 7.5 -1.5
t6 -3t5 -4.5t4 -4.5t3.5 -5.5t3 -5v1q14 -17 14 -42v-9q0 -3 -1 -10.5t-1 -10.5q-4 -28 -4 -46v-12q0 -4 -1 -10.5t-1 -9.5q0 -99 -2 -118q-4 -32 -4 -48q0 -2 0.5 -6.5t0.5 -6.5q1 -9 1 -27v-3q0 -5 -0.5 -16t-0.5 -16q0 -6 -0.5 -19t-0.5 -19q0 -3 0.5 -9t0.5 -9
q5 -18 5 -37v-3q0 -6 -1.5 -17t-1.5 -16v-2q0 -46 -10 -62q-11 -18 -26 -18z" />
    <glyph glyph-name="idieresis" unicode="&#xef;" horiz-adv-x="206" 
d="M33 753h2q9 2 21 -4q15 -5 22 -12q14 -14 15 -26q0 -1 0.5 -2.5t0.5 -2.5q0 -2 0.5 -5t0.5 -5q0 -27 -19 -42q-19 -14 -34 -14q-8 0 -15 4q-41 20 -41 50q0 39 32 55q6 3 8 3q1 0 3.5 0.5t3.5 0.5zM124 703q3 19 13.5 34t27.5 15q5 0 8 -1q8 -2 17 -10.5t10 -15.5v-13
v-18q-4 -47 -32 -52q-1 0 -3 -0.5t-3 -0.5q-14 0 -25 12.5t-13 26.5q0 2 -0.5 6.5t-0.5 6.5q0 1 0.5 5t0.5 5zM92 -5q-18 0 -28 15t-10 35q-3 27 -3 29q0 4 -0.5 12t-0.5 12v2q0 4 0.5 12.5t0.5 12.5v4q0 4 -1 14t-1 15v7q0 3 0.5 11t0.5 11v31q0 9 1 28t1 28q0 10 0.5 30.5
t0.5 30.5v87v28q-4 32 -4 53q0 33 6 58q1 19 3 28t9 18t21 11q1 0 3.5 1t4.5 1q4 0 7.5 -1.5t6 -3t5 -4.5t4 -4.5t3.5 -5.5t3 -5v1q14 -17 14 -42v-9q0 -3 -1 -10.5t-1 -10.5q-4 -28 -4 -46v-12q0 -4 -1 -10.5t-1 -9.5q0 -99 -2 -118q-4 -32 -4 -48q0 -2 0.5 -6.5t0.5 -6.5
q1 -9 1 -27v-3q0 -5 -0.5 -16t-0.5 -16q0 -6 -0.5 -19t-0.5 -19q0 -3 0.5 -9t0.5 -9q5 -18 5 -37v-3q0 -6 -1.5 -17t-1.5 -16v-2q0 -46 -10 -62q-11 -18 -26 -18z" />
    <glyph glyph-name="eth" unicode="&#xf0;" horiz-adv-x="508" 
d="M199 231q0 -22 -3.5 -62t-4.5 -52q7 -2 26 -2q36 0 61 8t41 26.5t25 37.5t20 53q10 36 10 83q0 61 -27 138q-14 33 -93 33h-2q-6 0 -17.5 -2t-13.5 -2q-1 -24 -4 -65.5t-4 -58.5v-6q10 0 40 -5q27 -6 27 -26q0 -11 -3.5 -18.5t-13.5 -11t-14.5 -5t-21.5 -3t-21 -1.5
q0 -2 -1 -6t-1 -6q-4 -28 -4 -42zM459 356v-9q0 -2 0.5 -6.5t0.5 -6.5v-1q0 -69 -9 -103q-15 -57 -49 -113q-11 -18 -43 -48q-36 -32 -70 -43q-12 -4 -33 -13t-39.5 -14.5t-38.5 -5.5h-9q-18 0 -29 1t-25.5 4t-21.5 11.5t-7 21.5q0 11 2 31.5t2 31.5t-0.5 32.5t-0.5 32.5
t0.5 31.5t0.5 31.5v14q0 17 2 49q-61 6 -61 43t54 37q2 0 6 -0.5t6 -0.5q1 29 7 81t7 69q4 66 10 98q2 9 8 12q7 9 40 9h29q71 0 137 -43q31 -20 48 -36.5t34 -46.5q38 -64 42 -151z" />
    <glyph glyph-name="ntilde" unicode="&#xf1;" horiz-adv-x="559" 
d="M397 784q22 0 22 -26q0 -32 -8 -43q-4 -7 -8 -9q-15 -12 -55 -22q-7 -1 -19 -1q-29 0 -48 11q-1 0 -15 8.5t-22 10.5h-8q-1 -1 -3 -1q-2 -1 -17 -22q-7 -7 -19 -9q-1 0 -5 -0.5t-5 -0.5q-12 0 -20 8t-8 20q0 34 26 56q19 17 44 17h13q30 -5 49 -24q2 -1 9 -6.5t10.5 -8
t10 -6t12.5 -5t13 -1.5q8 0 13 7.5t8 18.5t7 15q9 13 23 13zM53 579v6q0 28 16 50q18 24 32 24l1 -1q2 0 11 -3q6 -4 20.5 -13.5t22.5 -14.5q0 -1 2 -1t2 -1q19 -19 88 -68q12 -7 31.5 -24t22.5 -19q2 -2 5.5 -5t5.5 -5q6 -4 17.5 -12.5t17.5 -13.5q12 -10 38 -33
q9 -9 15 -9h3v6q0 3 1 9t1 8q0 5 0.5 16t0.5 17q0 8 0.5 34.5t2 39.5t5.5 32t12.5 29.5t22.5 15.5q6 2 9 2q15 0 24 -12.5t12 -28.5q2 -9 3 -19t1.5 -22.5t1.5 -19.5v-1q3 -27 3 -29v-28q0 -5 -0.5 -14t-0.5 -13t0.5 -13t0.5 -14v-60q0 -42 1 -64q2 -20 2 -31q0 -5 -0.5 -15
t-0.5 -15q0 -10 -1 -30.5t-1 -30.5q0 -7 -0.5 -22t-0.5 -23q0 -2 0.5 -7t0.5 -7q0 -4 0.5 -15t0.5 -15q0 -39 -9 -61q-17 -52 -53 -52q-21 0 -34.5 13.5t-13.5 33.5v12q0 9 1.5 27.5t1.5 27.5q1 19 4 57.5t4 56.5v57q0 12 -11 25q-6 8 -20 22q-6 5 -19.5 12.5t-17.5 10.5
q-8 5 -33.5 27t-42.5 29q-12 6 -26 14q-28 20 -47 41q-17 17 -27 24v-6q0 -4 -0.5 -12t-0.5 -12q0 -8 -0.5 -25.5t-0.5 -25.5t-0.5 -24t-0.5 -23v-14q0 -4 0.5 -14.5t0.5 -14.5q0 -5 0.5 -15.5t0.5 -15.5t0.5 -14.5t0.5 -14.5t0.5 -16t0.5 -16q1 -9 2 -29.5t1 -29.5v-59
q0 -5 -0.5 -15.5t-0.5 -15.5q0 -75 -37 -75h-2q-15 2 -28.5 13.5t-16.5 25.5q-3 13 -5 46q-2 12 -2 39v13q0 15 -1 22v2q-1 90 -10 232q-1 31 -5 96q-1 40 -5 104z" />
    <glyph glyph-name="ograve" unicode="&#xf2;" horiz-adv-x="455" 
d="M250 593h-2q-20 0 -45 25q-1 1 -9 10t-12 14q-10 12 -22.5 26.5t-21 25t-19.5 28.5q-6 10 -6 23q0 10 16.5 28t27.5 18q7 0 13 -6q24 -24 37 -34q15 -13 26.5 -24t24.5 -26t21 -23q17 -17 17 -36q0 -7 -3 -13t-20 -20.5t-23 -15.5zM29 136q-10 45 -10 62v2q0 33 4 60
q5 40 21 90q18 55 51 109q1 2 6 11.5t9 13.5q25 29 40.5 44.5t42 29.5t55.5 14q20 0 44 -6q3 -1 8.5 -3.5t8.5 -3.5q20 -9 23 -11q6 -4 25 -28q28 -35 36 -51q2 -5 7.5 -15t8.5 -16.5t5.5 -17t2.5 -20.5v-29q0 -5 -0.5 -14.5t-0.5 -14.5q-5 -98 -32 -153q-5 -11 -15 -31
q-3 -4 -9 -12.5t-8 -12.5q-3 -4 -7.5 -12t-6.5 -12q-14 -23 -41 -48q-30 -26 -56 -32q-27 -5 -48 -5h-13q-5 0 -14.5 0.5t-14.5 0.5q-20 0 -31 5q-31 12 -32 13q-15 8 -44 55q-9 13 -15 38zM282 443h-15q-11 -2 -33 -10q-27 -9 -41 -23.5t-28 -42.5q-4 -7 -11.5 -22
t-11.5 -22q-2 -4 -9 -23t-9.5 -26.5t-5.5 -23.5t-3 -32q0 -4 -0.5 -12.5t-0.5 -12.5v-9q0 -31 42 -45q7 -1 20 -1q2 0 6.5 -0.5t6.5 -0.5h10q36 7 66 41q50 66 56 163q3 42 3 44v10q-6 40 -42 48z" />
    <glyph glyph-name="oacute" unicode="&#xf3;" horiz-adv-x="455" 
d="M279 605q-10 1 -26 16t-16 25q0 5 1 8q4 18 24 38q24 26 49.5 49.5t47.5 45.5q6 6 15 6q11 0 24.5 -13.5t13.5 -22.5q0 -19 -11 -34q-12 -17 -30 -37.5t-26 -31.5q-9 -12 -20 -23q-26 -26 -44 -26h-2zM29 136q-10 45 -10 62v2q0 33 4 60q5 40 21 90q18 55 51 109
q1 2 6 11.5t9 13.5q25 29 40.5 44.5t42 29.5t55.5 14q20 0 44 -6q3 -1 8.5 -3.5t8.5 -3.5q20 -9 23 -11q6 -4 25 -28q28 -35 36 -51q2 -5 7.5 -15t8.5 -16.5t5.5 -17t2.5 -20.5v-29q0 -5 -0.5 -14.5t-0.5 -14.5q-5 -98 -32 -153q-5 -11 -15 -31q-3 -4 -9 -12.5t-8 -12.5
q-3 -4 -7.5 -12t-6.5 -12q-14 -23 -41 -48q-30 -26 -56 -32q-27 -5 -48 -5h-13q-5 0 -14.5 0.5t-14.5 0.5q-20 0 -31 5q-31 12 -32 13q-15 8 -44 55q-9 13 -15 38zM282 443h-15q-11 -2 -33 -10q-27 -9 -41 -23.5t-28 -42.5q-4 -7 -11.5 -22t-11.5 -22q-2 -4 -9 -23
t-9.5 -26.5t-5.5 -23.5t-3 -32q0 -4 -0.5 -12.5t-0.5 -12.5v-9q0 -31 42 -45q7 -1 20 -1q2 0 6.5 -0.5t6.5 -0.5h10q36 7 66 41q50 66 56 163q3 42 3 44v10q-6 40 -42 48z" />
    <glyph glyph-name="ocircumflex" unicode="&#xf4;" horiz-adv-x="455" 
d="M229 706q24 13 39 13q0 1 1 1q26 -1 53 -30q36 -38 44 -56q3 -6 3 -12q0 -11 -8 -18t-20 -7q-15 0 -35 13q-4 3 -17.5 13t-21.5 15h-1l-2 1h-13q-18 -6 -45 -27q-13 -11 -21 -14q-10 -5 -14 -5h-8q-9 0 -18.5 11t-13.5 22q-1 3 -1 9q0 21 26 37q10 7 31.5 15t29.5 12
q1 0 3.5 1.5t4.5 2.5q1 0 1 1t1 1t1 0.5t1 0.5zM29 136q-10 45 -10 62v2q0 33 4 60q5 40 21 90q18 55 51 109q1 2 6 11.5t9 13.5q25 29 40.5 44.5t42 29.5t55.5 14q20 0 44 -6q3 -1 8.5 -3.5t8.5 -3.5q20 -9 23 -11q6 -4 25 -28q28 -35 36 -51q2 -5 7.5 -15t8.5 -16.5
t5.5 -17t2.5 -20.5v-29q0 -5 -0.5 -14.5t-0.5 -14.5q-5 -98 -32 -153q-5 -11 -15 -31q-3 -4 -9 -12.5t-8 -12.5q-3 -4 -7.5 -12t-6.5 -12q-14 -23 -41 -48q-30 -26 -56 -32q-27 -5 -48 -5h-13q-5 0 -14.5 0.5t-14.5 0.5q-20 0 -31 5q-31 12 -32 13q-15 8 -44 55
q-9 13 -15 38zM282 443h-15q-11 -2 -33 -10q-27 -9 -41 -23.5t-28 -42.5q-4 -7 -11.5 -22t-11.5 -22q-2 -4 -9 -23t-9.5 -26.5t-5.5 -23.5t-3 -32q0 -4 -0.5 -12.5t-0.5 -12.5v-9q0 -31 42 -45q7 -1 20 -1q2 0 6.5 -0.5t6.5 -0.5h10q36 7 66 41q50 66 56 163q3 42 3 44v10
q-6 40 -42 48z" />
    <glyph glyph-name="otilde" unicode="&#xf5;" horiz-adv-x="455" 
d="M383 697q21 0 21 -26q0 -32 -8 -43q-6 -10 -7 -10q-13 -10 -55 -21q-7 -1 -20 -1q-29 0 -48 11q-1 0 -15 8.5t-22 10.5h-8q-1 -1 -2 -1q-2 -1 -17 -22q-7 -7 -20 -9q-2 0 -5 -0.5t-4 -0.5q-13 0 -21 8.5t-8 19.5q0 33 27 56q19 17 44 17h12q30 -5 49 -24q2 -1 7.5 -5.5
t8.5 -6.5t8.5 -5.5t10 -5t10 -3t11.5 -1.5q8 0 12.5 7.5t7.5 18.5t7 15q9 13 24 13zM29 136q-10 45 -10 62v2q0 33 4 60q5 40 21 90q18 55 51 109q1 2 6 11.5t9 13.5q25 29 40.5 44.5t42 29.5t55.5 14q20 0 44 -6q3 -1 8.5 -3.5t8.5 -3.5q20 -9 23 -11q6 -4 25 -28
q28 -35 36 -51q2 -5 7.5 -15t8.5 -16.5t5.5 -17t2.5 -20.5v-29q0 -5 -0.5 -14.5t-0.5 -14.5q-5 -98 -32 -153q-5 -11 -15 -31q-3 -4 -9 -12.5t-8 -12.5q-3 -4 -7.5 -12t-6.5 -12q-14 -23 -41 -48q-30 -26 -56 -32q-27 -5 -48 -5h-13q-5 0 -14.5 0.5t-14.5 0.5q-20 0 -31 5
q-31 12 -32 13q-15 8 -44 55q-9 13 -15 38zM282 443h-15q-11 -2 -33 -10q-27 -9 -41 -23.5t-28 -42.5q-4 -7 -11.5 -22t-11.5 -22q-2 -4 -9 -23t-9.5 -26.5t-5.5 -23.5t-3 -32q0 -4 -0.5 -12.5t-0.5 -12.5v-9q0 -31 42 -45q7 -1 20 -1q2 0 6.5 -0.5t6.5 -0.5h10q36 7 66 41
q50 66 56 163q3 42 3 44v10q-6 40 -42 48z" />
    <glyph glyph-name="odieresis" unicode="&#xf6;" horiz-adv-x="455" 
d="M215 709h2q9 2 22 -4q14 -5 21 -12q14 -14 15 -26q0 -1 0.5 -2.5t0.5 -2.5q0 -2 1 -5t1 -5q0 -26 -20 -42q-19 -14 -34 -14q-8 0 -15 4q-41 20 -41 50q0 38 33 55q6 3 7 3t3.5 0.5t3.5 0.5zM306 659q3 19 13.5 34t27.5 15q5 0 8 -1q8 -2 17 -10.5t10 -15.5v-13v-18
q-4 -47 -32 -52q-1 0 -3 -0.5t-3 -0.5q-14 0 -25 12.5t-13 26.5q0 2 -0.5 6.5t-0.5 6.5q0 1 0.5 5t0.5 5zM29 136q-10 45 -10 62v2q0 33 4 60q5 40 21 90q18 55 51 109q1 2 6 11.5t9 13.5q25 29 40.5 44.5t42 29.5t55.5 14q20 0 44 -6q3 -1 8.5 -3.5t8.5 -3.5q20 -9 23 -11
q6 -4 25 -28q28 -35 36 -51q2 -5 7.5 -15t8.5 -16.5t5.5 -17t2.5 -20.5v-29q0 -5 -0.5 -14.5t-0.5 -14.5q-5 -98 -32 -153q-5 -11 -15 -31q-3 -4 -9 -12.5t-8 -12.5q-3 -4 -7.5 -12t-6.5 -12q-14 -23 -41 -48q-30 -26 -56 -32q-27 -5 -48 -5h-13q-5 0 -14.5 0.5t-14.5 0.5
q-20 0 -31 5q-31 12 -32 13q-15 8 -44 55q-9 13 -15 38zM282 443h-15q-11 -2 -33 -10q-27 -9 -41 -23.5t-28 -42.5q-4 -7 -11.5 -22t-11.5 -22q-2 -4 -9 -23t-9.5 -26.5t-5.5 -23.5t-3 -32q0 -4 -0.5 -12.5t-0.5 -12.5v-9q0 -31 42 -45q7 -1 20 -1q2 0 6.5 -0.5t6.5 -0.5h10
q36 7 66 41q50 66 56 163q3 42 3 44v10q-6 40 -42 48z" />
    <glyph glyph-name="divide" unicode="&#xf7;" horiz-adv-x="415" 
d="M261 497v-2q1 -10 -5 -24q-6 -17 -11 -22q-16 -16 -29 -17q-1 0 -3 -0.5t-3 -0.5q-2 0 -5 -0.5t-4 -0.5q-30 0 -45 21q-16 21 -16 35q0 10 4 17q22 44 55 44q41 0 57 -35l2 -3q2 -3 2 -4q0 -2 0.5 -4.5t0.5 -3.5zM208 252q23 -3 40.5 -15.5t17.5 -34.5q0 -6 -1 -9
q-1 -9 -12 -20t-19 -13h-5h-6h-5h-21q-57 6 -63 39q-1 2 -1 7q0 17 15 30.5t32 15.5q2 0 7.5 0.5t8.5 0.5q2 0 6.5 -0.5t5.5 -0.5zM89 393q12 0 32.5 -3t32.5 -3q8 0 26.5 1t27.5 1q87 0 141 -10q27 -6 27 -27q0 -8 -7 -15t-20 -11.5t-27 -8t-32.5 -6.5t-31 -4.5t-29 -3
t-20.5 -1.5q-45 -5 -83 -5q-34 0 -62.5 15.5t-28.5 43.5q0 37 54 37z" />
    <glyph glyph-name="oslash" unicode="&#xf8;" horiz-adv-x="455" 
d="M29 136q-10 45 -10 62v2q0 33 4 60q5 40 21 90q18 55 51 109q1 2 6 11.5t9 13.5q25 29 40.5 44.5t42 29.5t55.5 14q16 0 38 -5q6 16 9 22q12 26 20 33q9 11 19 10q9 0 15 -8q9 -12 9 -36v-16q-1 -15 -9 -41q0 -1 8 -11q28 -35 36 -51q2 -5 7.5 -15t8.5 -16.5t5.5 -17
t2.5 -20.5v-29q0 -5 -0.5 -14.5t-0.5 -14.5q-5 -98 -32 -153q-5 -11 -15 -31q-3 -4 -9 -12.5t-8 -12.5q-3 -4 -7.5 -12t-6.5 -12q-14 -23 -41 -48q-30 -26 -56 -32q-27 -5 -48 -5h-13q-4 0 -13 0.5t-14 0.5q-13 -35 -16 -40q-8 -22 -17 -31q-5 -5 -11 -5q-11 0 -15 12
q-1 0 -1 3q-9 20 -9 35q0 11 2 18q1 2 3.5 9.5l4.5 13.5l-6 3q-15 8 -44 55q-9 13 -15 38zM196 137h3q36 7 66 41q50 66 56 163q3 42 3 44v10q-3 21 -15 33q-64 -166 -102 -261q-2 -5 -5.5 -15t-5.5 -15zM234 433q-27 -9 -41 -23.5t-28 -42.5q-4 -7 -11.5 -22t-11.5 -22
q-2 -4 -9 -23t-9.5 -26.5t-5.5 -23.5t-3 -32q0 -4 -0.5 -12.5t-0.5 -12.5v-9q0 -18 18 -32q33 94 45 133q5 19 13 39.5t19 46t16 38.5z" />
    <glyph glyph-name="ugrave" unicode="&#xf9;" horiz-adv-x="508" 
d="M266 648h-2q-19 0 -45 26q-1 1 -8.5 9.5t-11.5 13.5q-10 13 -22.5 26.5t-21.5 25t-20 28.5q-6 11 -6 24q0 10 16.5 27.5t27.5 17.5q8 0 13 -5q28 -28 37 -35q15 -13 26.5 -24t24.5 -26t21 -23q17 -17 17 -36q0 -7 -3 -13t-20 -20.5t-23 -15.5zM423 677h3q9 0 19.5 -8
t13.5 -15q7 -13 7 -30q0 -143 -24 -274q-4 -16 -5 -24v-1q-10 -75 -25 -123q-5 -13 -17 -39q-2 -4 -8 -19t-8.5 -21t-9 -16t-13.5 -16q-21 -17 -41 -32q-40 -34 -76 -34q-5 -1 -16 -1q-68 0 -106 50q-3 4 -9 11.5t-9 11.5q-16 20 -21 29q-10 16 -22 47q-15 30 -15 58
q0 21 2 61l3 58q0 10 3 29t3 29l3 30q1 14 5 38.5t5 32.5q3 29 16 58q1 2 3.5 7.5t3.5 8t3.5 7.5t4.5 7.5t4.5 6.5t5.5 6.5t6.5 5t7.5 4t8 2.5q2 0 4.5 0.5t3.5 0.5q38 0 38 -41q0 -3 -0.5 -8t-0.5 -7q-3 -32 -11 -60q-8 -33 -11 -79q0 -1 -3 -7q-1 -24 -2 -72.5t-2 -72.5
v-25q0 -28 6 -46l6 -12q20 -24 35 -29q3 -1 11 0t10 1q12 0 31 12l24 16q17 12 32 37q2 4 16 44t15 44q1 7 7 39t8 50q2 20 4 28q1 7 2 21t2 21q2 15 8 45q2 10 5.5 43t7.5 50q5 18 9 28.5t14.5 22t25.5 11.5z" />
    <glyph glyph-name="uacute" unicode="&#xfa;" horiz-adv-x="508" 
d="M286 648q-10 1 -26 16t-16 25q0 5 1 8q3 17 24 38q24 26 49.5 49t48.5 46q6 6 14 6q11 0 24.5 -13.5t13.5 -22.5q0 -20 -10 -34q-12 -17 -30.5 -37.5t-26.5 -31.5q-9 -12 -20 -23q-26 -26 -44 -26h-2zM423 677h3q9 0 19.5 -8t13.5 -15q7 -13 7 -30q0 -143 -24 -274
q-4 -16 -5 -24v-1q-10 -75 -25 -123q-5 -13 -17 -39q-2 -4 -8 -19t-8.5 -21t-9 -16t-13.5 -16q-21 -17 -41 -32q-40 -34 -76 -34q-5 -1 -16 -1q-68 0 -106 50q-3 4 -9 11.5t-9 11.5q-16 20 -21 29q-10 16 -22 47q-15 30 -15 58q0 21 2 61l3 58q0 10 3 29t3 29l3 30
q1 14 5 38.5t5 32.5q3 29 16 58q1 2 3.5 7.5t3.5 8t3.5 7.5t4.5 7.5t4.5 6.5t5.5 6.5t6.5 5t7.5 4t8 2.5q2 0 4.5 0.5t3.5 0.5q38 0 38 -41q0 -3 -0.5 -8t-0.5 -7q-3 -32 -11 -60q-8 -33 -11 -79q0 -1 -3 -7q-1 -24 -2 -72.5t-2 -72.5v-25q0 -28 6 -46l6 -12q20 -24 35 -29
q3 -1 11 0t10 1q12 0 31 12l24 16q17 12 32 37q2 4 16 44t15 44q1 7 7 39t8 50q2 20 4 28q1 7 2 21t2 21q2 15 8 45q2 10 5.5 43t7.5 50q5 18 9 28.5t14.5 22t25.5 11.5z" />
    <glyph glyph-name="ucircumflex" unicode="&#xfb;" horiz-adv-x="508" 
d="M247 785q26 14 39 14q0 1 1 1q25 -1 52 -30q36 -38 44 -56q3 -6 3 -13q0 -10 -8 -17t-20 -7q-14 0 -34 13q-4 3 -17.5 13t-21.5 15h-1l-2 1h-14q-18 -6 -45 -27q-14 -12 -20 -14q-10 -5 -15 -5h-8q-9 0 -18.5 11t-13.5 22q-1 3 -1 9q0 21 26 37q10 7 31.5 15t29.5 12
q1 1 4 2t5 2q1 0 1 0.5t1 0.5t1 0.5t1 0.5zM423 677h3q9 0 19.5 -8t13.5 -15q7 -13 7 -30q0 -143 -24 -274q-4 -16 -5 -24v-1q-10 -75 -25 -123q-5 -13 -17 -39q-2 -4 -8 -19t-8.5 -21t-9 -16t-13.5 -16q-21 -17 -41 -32q-40 -34 -76 -34q-5 -1 -16 -1q-68 0 -106 50
q-3 4 -9 11.5t-9 11.5q-16 20 -21 29q-10 16 -22 47q-15 30 -15 58q0 21 2 61l3 58q0 10 3 29t3 29l3 30q1 14 5 38.5t5 32.5q3 29 16 58q1 2 3.5 7.5t3.5 8t3.5 7.5t4.5 7.5t4.5 6.5t5.5 6.5t6.5 5t7.5 4t8 2.5q2 0 4.5 0.5t3.5 0.5q38 0 38 -41q0 -3 -0.5 -8t-0.5 -7
q-3 -32 -11 -60q-8 -33 -11 -79q0 -1 -3 -7q-1 -24 -2 -72.5t-2 -72.5v-25q0 -28 6 -46l6 -12q20 -24 35 -29q3 -1 11 0t10 1q12 0 31 12l24 16q17 12 32 37q2 4 16 44t15 44q1 7 7 39t8 50q2 20 4 28q1 7 2 21t2 21q2 15 8 45q2 10 5.5 43t7.5 50q5 18 9 28.5t14.5 22
t25.5 11.5z" />
    <glyph glyph-name="udieresis" unicode="&#xfc;" horiz-adv-x="508" 
d="M216 788h2q9 2 22 -4q15 -5 21 -11q14 -14 15 -27q0 -1 1 -2.5t1 -2.5t0.5 -4t0.5 -5q0 -26 -20 -42q-19 -14 -34 -14q-8 0 -15 4q-41 20 -41 50q0 38 33 54q6 3 7 3t3.5 0.5t3.5 0.5zM307 739q3 19 13.5 33.5t27.5 14.5q5 0 8 -1q8 -2 17 -10t10 -15v-13v-18
q-4 -47 -32 -52q-1 0 -3 -0.5t-3 -0.5q-14 0 -25 12.5t-13 26.5q0 2 -0.5 6.5t-0.5 6.5q0 1 0.5 5t0.5 5zM423 677h3q9 0 19.5 -8t13.5 -15q7 -13 7 -30q0 -143 -24 -274q-4 -16 -5 -24v-1q-10 -75 -25 -123q-5 -13 -17 -39q-2 -4 -8 -19t-8.5 -21t-9 -16t-13.5 -16
q-21 -17 -41 -32q-40 -34 -76 -34q-5 -1 -16 -1q-68 0 -106 50q-3 4 -9 11.5t-9 11.5q-16 20 -21 29q-10 16 -22 47q-15 30 -15 58q0 21 2 61l3 58q0 10 3 29t3 29l3 30q1 14 5 38.5t5 32.5q3 29 16 58q1 2 3.5 7.5t3.5 8t3.5 7.5t4.5 7.5t4.5 6.5t5.5 6.5t6.5 5t7.5 4
t8 2.5q2 0 4.5 0.5t3.5 0.5q38 0 38 -41q0 -3 -0.5 -8t-0.5 -7q-3 -32 -11 -60q-8 -33 -11 -79q0 -1 -3 -7q-1 -24 -2 -72.5t-2 -72.5v-25q0 -28 6 -46l6 -12q20 -24 35 -29q3 -1 11 0t10 1q12 0 31 12l24 16q17 12 32 37q2 4 16 44t15 44q1 7 7 39t8 50q2 20 4 28q1 7 2 21
t2 21q2 15 8 45q2 10 5.5 43t7.5 50q5 18 9 28.5t14.5 22t25.5 11.5z" />
    <glyph glyph-name="yacute" unicode="&#xfd;" horiz-adv-x="366" 
d="M185 641q-10 1 -26 16t-16 25q0 5 1 8q3 16 25 38q24 26 49.5 49.5t47.5 45.5q5 5 15 5q11 0 24 -13t13 -22q0 -20 -10 -34q-12 -17 -30 -37.5t-26 -31.5q-6 -8 -21 -23q-26 -26 -44 -26h-2zM293 655q8 10 20 13q4 2 14 2q19 0 25 -18q2 -8 2 -12q-1 -40 -15 -78
q-14 -34 -31 -82q-11 -29 -56 -135q-3 -7 -3 -26q0 -17 2 -47q0 -10 2 -22.5t4 -29.5q7 -72 7 -81v-28q0 -15 -1 -26t-2.5 -16.5t-5 -16t-5.5 -17.5q-7 -24 -25 -24q-4 0 -7.5 1t-6 3.5t-4 4.5t-3 6.5t-2 6.5t-2 7t-1.5 7q-19 92 -19 189q0 40 -2 59q-1 11 -3.5 39.5
t-5.5 48.5t-8 36q-16 33 -87 93q-38 31 -48 75q-1 4 -1 11q0 13 6.5 23t17.5 10q16 0 37 -19q20 -14 29 -24q8 -8 20 -23.5t18 -21.5q22 -20 45 -40q7 7 21 33t28 46q6 9 13.5 24.5t15 27.5t17.5 21z" />
    <glyph glyph-name="thorn" unicode="&#xfe;" horiz-adv-x="451" 
d="M341 368q0 3 -0.5 9t-0.5 10l-3 13q-13 31 -27 40q-56 45 -121 45q-9 0 -29 -2q-2 0 -7 -0.5t-6 -0.5q-2 -36 -2 -53v-13q0 -22 3.5 -59t3.5 -57v-36v-6q1 -5 2 -5q5 1 13 1.5t13 1.5q6 1 21 5.5t20 5.5q33 7 76 40t44 61zM173 175l-13 -4q-1 0 -4.5 0.5t-6 0t-2.5 -2.5
q0 -75 1 -79v-17q0 -48 -25 -73q-1 -2 -11.5 -8t-12.5 -6q-15 0 -22 10q-18 22 -18 39q0 1 -0.5 5t-0.5 6v47v144v22q0 67 0.5 96.5t0.5 74.5q0 174 1 220q0 21 12 40.5t33 19.5q5 0 13 -2q9 -3 12.5 -10t5 -21t2.5 -19q1 -6 1 -16q0 -5 -0.5 -15.5t-0.5 -16.5q0 -7 -1 -19
t-1 -17v-8q14 -1 106 -16q26 -6 37 -8q73 -19 99 -39l14 -10q34 -34 34 -89q0 -6 -2 -15.5t-2 -13.5q-5 -36 -28 -69q-2 -2 -10.5 -12.5t-13.5 -15.5q-48 -41 -90 -64t-107 -39z" />
    <glyph glyph-name="ydieresis" unicode="&#xff;" horiz-adv-x="366" 
d="M110 769h2q9 2 21 -4q16 -5 22 -11q14 -14 15 -27q0 -1 0.5 -2.5t0.5 -2.5q0 -2 0.5 -5t0.5 -4q0 -27 -19 -42q-20 -15 -34 -15q-9 0 -16 4q-41 20 -41 51q0 37 33 54q6 3 7 3t4 0.5t4 0.5zM201 720q3 19 13.5 33.5t27.5 14.5q5 0 8 -1q8 -1 16.5 -10t9.5 -16v-13v-17
q-4 -48 -31 -53q-1 0 -3 -0.5t-3 -0.5q-14 0 -25 12.5t-13 26.5q0 2 -0.5 7t-0.5 7t0.5 5t0.5 5zM293 655q8 10 20 13q4 2 14 2q19 0 25 -18q2 -8 2 -12q-1 -40 -15 -78q-14 -34 -31 -82q-11 -29 -56 -135q-3 -7 -3 -26q0 -17 2 -47q0 -10 2 -22.5t4 -29.5q7 -72 7 -81v-28
q0 -15 -1 -26t-2.5 -16.5t-5 -16t-5.5 -17.5q-7 -24 -25 -24q-4 0 -7.5 1t-6 3.5t-4 4.5t-3 6.5t-2 6.5t-2 7t-1.5 7q-19 92 -19 189q0 40 -2 59q-1 11 -3.5 39.5t-5.5 48.5t-8 36q-16 33 -87 93q-38 31 -48 75q-1 4 -1 11q0 13 6.5 23t17.5 10q16 0 37 -19q20 -14 29 -24
q8 -8 20 -23.5t18 -21.5q22 -20 45 -40q7 7 21 33t28 46q6 9 13.5 24.5t15 27.5t17.5 21z" />
    <glyph glyph-name="Amacron" unicode="&#x100;" horiz-adv-x="521" 
d="M408 709l-2 -1q-13 -14 -50 -14q-10 0 -30 2q-5 1 -17 1q-5 0 -17 -0.5t-18 -0.5h-7q-31 0 -61 6q-5 1 -15.5 4t-15.5 4q-30 10 -30 26q0 3 2 9q5 13 25.5 24t44.5 13l24 2h10q8 0 24.5 -1.5t24.5 -1.5q6 0 9 1h12q7 0 23.5 -1t24.5 -1q36 0 44 -24q1 -2 1 -11
q0 -27 -6 -36zM312 358h14q1 3 1 10t-2.5 14.5t-7 17.5t-5.5 13q-11 30 -34 62q-5 5 -14 5q-4 0 -12 -20t-15.5 -43t-9.5 -26q-6 -15 -9 -30v-2q24 -2 39 -2h18q6 0 18 0.5t19 0.5zM502 11q-2 -49 -37 -49h-2q-50 1 -61 80q-9 52 -9 55q-3 23 -13 62t-12 52q-4 20 -14 22
q-11 2 -31 5.5t-36.5 6t-34.5 2.5h-14q-6 0 -18.5 0.5t-19.5 0.5q-24 -4 -42 -15q-28 -46 -36 -69q-25 -69 -27 -83v-2q-2 -15 -8 -45q-8 -54 -47 -54h-2q-5 0 -9.5 1.5t-7.5 3t-6 5.5l-4.5 6t-4 8t-3 7.5t-3 8.5t-2.5 8q-3 9 -3 19q0 7 2 25q1 15 14.5 42.5t17.5 39.5
q3 9 15 37t16 45q4 18 17.5 46t15.5 32l13.5 31.5t15.5 38.5q4 14 14.5 37t13.5 30l12 30h1q2 6 7 17t7 16q2 4 11 30t16.5 43.5t19 40t25 34.5t27.5 12h3q18 -1 32 -15t20 -30t13.5 -40.5t11.5 -33.5q7 -15 19 -47l4 -11q6 -15 16 -45.5t13 -38.5t7 -31t9 -33
q3 -7 7.5 -25.5t8.5 -26.5q6 -13 12 -42.5t9 -39.5t7 -31.5t7 -31.5q4 -10 24 -81q3 -8 3 -28v-32z" />
    <glyph glyph-name="amacron" unicode="&#x101;" horiz-adv-x="538" 
d="M362 673l-2 -1q-13 -14 -49 -14q-10 0 -30 2q-10 2 -17 2q-6 0 -18 -1t-17 -1h-7q-26 0 -61 7q-5 1 -15.5 3.5t-15.5 3.5q-30 10 -30 26q0 4 2 10q5 13 25 23.5t45 12.5l24 3h10q8 0 24.5 -2t24.5 -2q6 0 9 1h11q7 0 24 -1t25 -1q36 0 44 -24q1 -2 1 -10q0 -26 -7 -37z
M179 251q-2 -8 -4 -12q1 0 3 0.5t3 0.5q30 4 45 5q14 2 97 30q-3 7 -5 15q-5 16 -15.5 49t-18.5 55q-3 9 -10.5 28.5t-11.5 28.5q-5 13 -7 16q-1 -1 -1 -3t-1 -3q-26 -73 -32 -96q-16 -52 -28 -77q-2 -4 -4.5 -11t-3.5 -11zM379 119q-2 4 -7 15.5t-8 17.5q-4 0 -11 -1
t-10 -1l-34 -4q-21 -2 -70.5 -5t-75.5 -6l-25 -3q-5 -8 -12 -24.5t-11 -24.5q-9 -17 -16.5 -41.5t-16.5 -41.5q-6 -12 -12 -18q-20 -27 -39 -27q-9 0 -16 3q-27 14 -27 42q0 19 9 45.5t10 33.5q15 53 30 84q2 4 4 12q14 41 17 57q6 30 23.5 81t22.5 67q3 9 15 38t16 46
q1 4 7.5 26t8.5 33q11 43 20 58q2 4 6.5 12t6.5 12q15 33 48 33q18 0 32.5 -10t20 -18t16.5 -30t13 -25q6 -12 25.5 -47t28.5 -55l12 -28q7 -16 14 -27l13 -24q15 -34 23 -59q3 -8 7.5 -25.5t7.5 -25.5q7 -15 20 -54q2 -6 20 -54.5t23 -63.5q6 -18 6 -41q0 -55 -40 -55h-1
q-26 0 -49 27q-9 11 -24 44t-21 51v1z" />
    <glyph glyph-name="Abreve" unicode="&#x102;" horiz-adv-x="521" 
d="M347 814q10 -2 20 -10t10 -16q0 -1 -1.5 -7.5t-1.5 -7.5q-31 -79 -87 -79h-3q-47 2 -72 27q-27 27 -27 49q0 24 5 31q6 10 17 12h6q3 0 4 -1q8 -3 28 -25t27 -25q6 -2 11 -2q7 0 8 3q7 7 15.5 21t16.5 20q10 10 20 10h4zM312 358h14q1 3 1 10t-2.5 14.5t-7 17.5t-5.5 13
q-11 30 -34 62q-5 5 -14 5q-4 0 -12 -20t-15.5 -43t-9.5 -26q-6 -15 -9 -30v-2q24 -2 39 -2h18q6 0 18 0.5t19 0.5zM502 11q-2 -49 -37 -49h-2q-50 1 -61 80q-9 52 -9 55q-3 23 -13 62t-12 52q-4 20 -14 22q-11 2 -31 5.5t-36.5 6t-34.5 2.5h-14q-6 0 -18.5 0.5t-19.5 0.5
q-24 -4 -42 -15q-28 -46 -36 -69q-25 -69 -27 -83v-2q-2 -15 -8 -45q-8 -54 -47 -54h-2q-5 0 -9.5 1.5t-7.5 3t-6 5.5l-4.5 6t-4 8t-3 7.5t-3 8.5t-2.5 8q-3 9 -3 19q0 7 2 25q1 15 14.5 42.5t17.5 39.5q3 9 15 37t16 45q4 18 17.5 46t15.5 32l13.5 31.5t15.5 38.5
q4 14 14.5 37t13.5 30l12 30h1q2 6 7 17t7 16q2 4 11 30t16.5 43.5t19 40t25 34.5t27.5 12h3q18 -1 32 -15t20 -30t13.5 -40.5t11.5 -33.5q7 -15 19 -47l4 -11q6 -15 16 -45.5t13 -38.5t7 -31t9 -33q3 -7 7.5 -25.5t8.5 -26.5q6 -13 12 -42.5t9 -39.5t7 -31.5t7 -31.5
q4 -10 24 -81q3 -8 3 -28v-32z" />
    <glyph glyph-name="abreve" unicode="&#x103;" horiz-adv-x="538" 
d="M302 778q10 -2 20 -9.5t10 -15.5q0 -1 -1.5 -8t-1.5 -8q-31 -79 -87 -79h-3q-47 2 -72 27q-27 27 -27 49q0 24 5 31q6 10 17 12h6q3 0 4 -1q8 -3 28 -25t27 -25q6 -2 11 -2q6 0 8 3q7 7 15.5 21t16.5 20q10 10 20 10h4zM179 251q-2 -8 -4 -12q1 0 3 0.5t3 0.5q30 4 45 5
q14 2 97 30q-3 7 -5 15q-5 16 -15.5 49t-18.5 55q-3 9 -10.5 28.5t-11.5 28.5q-5 13 -7 16q-1 -1 -1 -3t-1 -3q-26 -73 -32 -96q-16 -52 -28 -77q-2 -4 -4.5 -11t-3.5 -11zM379 119q-2 4 -7 15.5t-8 17.5q-4 0 -11 -1t-10 -1l-34 -4q-21 -2 -70.5 -5t-75.5 -6l-25 -3
q-5 -8 -12 -24.5t-11 -24.5q-9 -17 -16.5 -41.5t-16.5 -41.5q-6 -12 -12 -18q-20 -27 -39 -27q-9 0 -16 3q-27 14 -27 42q0 19 9 45.5t10 33.5q15 53 30 84q2 4 4 12q14 41 17 57q6 30 23.5 81t22.5 67q3 9 15 38t16 46q1 4 7.5 26t8.5 33q11 43 20 58q2 4 6.5 12t6.5 12
q15 33 48 33q18 0 32.5 -10t20 -18t16.5 -30t13 -25q6 -12 25.5 -47t28.5 -55l12 -28q7 -16 14 -27l13 -24q15 -34 23 -59q3 -8 7.5 -25.5t7.5 -25.5q7 -15 20 -54q2 -6 20 -54.5t23 -63.5q6 -18 6 -41q0 -55 -40 -55h-1q-26 0 -49 27q-9 11 -24 44t-21 51v1z" />
    <glyph glyph-name="Aogonek" unicode="&#x104;" horiz-adv-x="521" 
d="M312 358h14q1 3 1 10t-2.5 14.5t-7 17.5t-5.5 13q-11 30 -34 62q-5 5 -14 5q-4 0 -12 -20t-15.5 -43t-9.5 -26q-6 -15 -9 -30v-2q24 -2 39 -2h18q6 0 18 0.5t19 0.5zM425 -18q-17 20 -23 60q-9 52 -9 55q-3 23 -13 62t-12 52q-4 20 -14 22q-11 2 -31 5.5t-36.5 6
t-34.5 2.5h-14q-6 0 -18.5 0.5t-19.5 0.5q-24 -4 -42 -15q-28 -46 -36 -69q-25 -69 -27 -83v-2q-2 -15 -8 -45q-8 -54 -47 -54h-2q-5 0 -9.5 1.5t-7.5 3t-6 5.5l-4.5 6t-4 8t-3 7.5t-3 8.5t-2.5 8q-3 9 -3 19q0 7 2 25q1 15 14.5 42.5t17.5 39.5q3 9 15 37t16 45
q4 18 17.5 46t15.5 32l13.5 31.5t15.5 38.5q4 14 14.5 37t13.5 30l12 30h1q2 6 7 17t7 16q2 4 11 30t16.5 43.5t19 40t25 34.5t27.5 12h3q18 -1 32 -15t20 -30t13.5 -40.5t11.5 -33.5q7 -15 19 -47l4 -11q6 -15 16 -45.5t13 -38.5t7 -31t9 -33q3 -7 7.5 -25.5t8.5 -26.5
q6 -13 12 -42.5t9 -39.5t7 -31.5t7 -31.5q4 -10 24 -81q3 -8 3 -28v-32q0 -15 -6 -27v-7q-1 -8 -1 -22q0 -21 4 -30q4 -10 9 -14t16.5 -9.5t23.5 -17.5q9 -6 10 -10l4 -7q2 -4 2 -8q0 -19 -16 -35q-8 -8 -23 -8q-16 0 -29 9q-35 20 -53 40.5t-25 51.5q-2 12 -2 21q0 25 9 44
z" />
    <glyph glyph-name="aogonek" unicode="&#x105;" horiz-adv-x="538" 
d="M379 119q-2 4 -7 15.5t-8 17.5q-4 0 -11 -1t-10 -1l-34 -4q-21 -2 -70.5 -5t-75.5 -6l-25 -3q-5 -8 -12 -24.5t-11 -24.5q-9 -17 -16.5 -41.5t-16.5 -41.5q-6 -12 -12 -18q-20 -27 -39 -27q-9 0 -16 3q-27 14 -27 42q0 19 9 45.5t10 33.5q15 53 30 84q2 4 4 12
q14 41 17 57q6 30 23.5 81t22.5 67q3 9 15 38t16 46q1 4 7.5 26t8.5 33q11 43 20 58q2 4 6.5 12t6.5 12q15 33 48 33q18 0 32.5 -10t20 -18t16.5 -30t13 -25q6 -12 25.5 -47t28.5 -55l12 -28q7 -16 14 -27l13 -24q15 -34 23 -59q3 -8 7.5 -25.5t7.5 -25.5q7 -15 20 -54
q2 -6 20 -54.5t23 -63.5q6 -18 6 -41q0 -22 -7 -35v-10q0 -21 4 -30q4 -10 9 -14t16.5 -9.5t23.5 -17.5q9 -6 10 -10l4 -7q3 -6 3 -8q0 -18 -17 -35q-8 -8 -22 -8q-17 0 -30 9q-35 20 -53 40.5t-25 51.5q-2 12 -2 21q0 11 3 25q-1 2 -3.5 5t-3.5 4q-9 11 -24 44t-21 51v1z
M179 251q-2 -8 -4 -12q1 0 3 0.5t3 0.5q30 4 45 5q14 2 97 30q-3 7 -5 15q-5 16 -15.5 49t-18.5 55q-3 9 -10.5 28.5t-11.5 28.5q-5 13 -7 16q-1 -1 -1 -3t-1 -3q-26 -73 -32 -96q-16 -52 -28 -77q-2 -4 -4.5 -11t-3.5 -11z" />
    <glyph glyph-name="Cacute" unicode="&#x106;" horiz-adv-x="424" 
d="M234 616q-10 1 -25.5 16t-15.5 25q0 6 1 9q3 16 24 37q19 21 31 32.5t28.5 27t37.5 36.5q5 5 15 5q11 0 24.5 -13.5t13.5 -22.5q0 -19 -11 -34q-12 -17 -30 -37t-26 -31q-12 -16 -20 -24q-26 -26 -44 -26h-3zM302 590h9q1 0 4 -0.5t4 -0.5q21 0 34 -14.5t13 -35.5v-3
q0 -26 -17.5 -45t-41.5 -25q-45 -11 -62 -22l-9 -6q-1 0 -3 -1.5t-3 -2.5q-3 -3 -11.5 -11t-13.5 -13q-4 -4 -16 -24q-6 -8 -14 -24q-1 -3 -4 -8t-4 -8q-5 -10 -17 -60q-2 -10 -2 -16q0 -4 -0.5 -10t-0.5 -10v-37q8 -51 32 -75q36 -30 76 -30q3 0 11 0.5t12 0.5q3 0 25 4
t31 4q44 0 50 -27v-3q1 -3 1 -5v-1q0 -1 -0.5 -4t-0.5 -4q-3 -10 -11 -18l-8 -8q-32 -30 -82 -30h-29q-50 0 -96 16q-16 7 -43 25q-34 21 -48 44q-19 31 -33 68q-9 28 -9 77q0 74 31 145q5 11 11 22l12 21q6 12 26 38q26 31 55 50q7 6 21 16q2 1 7 5.5t8 5.5q47 28 53 30
q28 10 53 10z" />
    <glyph glyph-name="cacute" unicode="&#x107;" horiz-adv-x="401" 
d="M243 670q-10 1 -26 16t-16 25q0 5 1 8q4 17 24 38q24 26 49.5 49t48.5 46q5 5 14 5q11 0 24.5 -13.5t13.5 -22.5q0 -20 -10 -34q-12 -17 -30.5 -37t-26.5 -31q-12 -16 -20 -24q-25 -25 -44 -25h-2zM229 137l29 -5h3q9 0 17 3q16 3 29 3q53 0 53 -43q0 -23 -15 -56
q-11 -25 -53 -46q-21 -12 -45 -12q-46 4 -64 15q-22 14 -32 24q-53 38 -83 112.5t-30 159.5q0 25 3 49q1 2 1 6.5v6.5q2 20 15 62q19 63 76 135q2 3 10.5 11t11.5 12q36 41 50 53q17 12 33 17q15 5 21 5h4q2 0 17 -3h4q1 0 14 -3q14 -3 24 -15.5t10 -27.5v-9
q-1 -16 -6.5 -26.5t-11 -15.5t-20.5 -15q-12 -8 -26 -15q-53 -27 -83.5 -97t-30.5 -152q0 -39 22.5 -83t52.5 -50z" />
    <glyph glyph-name="Ccircumflex" unicode="&#x108;" horiz-adv-x="424" 
d="M220 735q26 14 39 14q0 1 1 1q25 -1 52 -30q36 -38 44 -56q3 -6 3 -13q0 -11 -7.5 -17.5t-19.5 -6.5q-16 0 -35 13q-4 3 -17.5 13t-21.5 15h-1q-1 1 -2 1h-13q-18 -6 -45 -27q-13 -11 -21 -14q-10 -5 -14 -5h-8q-9 0 -18.5 11t-13.5 21q-1 3 -1 10q0 21 25 36
q11 7 32.5 15.5t29.5 12.5q1 0 3.5 1.5t4.5 2.5l1 1h1h1zM302 590h9q1 0 4 -0.5t4 -0.5q21 0 34 -14.5t13 -35.5v-3q0 -26 -17.5 -45t-41.5 -25q-45 -11 -62 -22l-9 -6q-1 0 -3 -1.5t-3 -2.5q-3 -3 -11.5 -11t-13.5 -13q-4 -4 -16 -24q-6 -8 -14 -24q-1 -3 -4 -8t-4 -8
q-5 -10 -17 -60q-2 -10 -2 -16q0 -4 -0.5 -10t-0.5 -10v-37q8 -51 32 -75q36 -30 76 -30q3 0 11 0.5t12 0.5q3 0 25 4t31 4q44 0 50 -27v-3q1 -3 1 -5v-1q0 -1 -0.5 -4t-0.5 -4q-3 -10 -11 -18l-8 -8q-32 -30 -82 -30h-29q-50 0 -96 16q-16 7 -43 25q-34 21 -48 44
q-19 31 -33 68q-9 28 -9 77q0 74 31 145q5 11 11 22l12 21q6 12 26 38q26 31 55 50q7 6 21 16q2 1 7 5.5t8 5.5q47 28 53 30q28 10 53 10z" />
    <glyph glyph-name="ccircumflex" unicode="&#x109;" horiz-adv-x="401" 
d="M212 770q24 13 39 13q0 1 1 1q26 -1 52 -29q35 -37 44 -57q3 -6 3 -12q0 -11 -7.5 -17.5t-19.5 -6.5q-16 0 -35 13q-3 2 -17 12t-22 15h-1q-1 1 -2 1h-14q-21 -7 -45 -26q-14 -12 -20 -14q-12 -6 -14 -6h-9q-9 0 -18 11t-13 22q-1 3 -1 9q0 22 25 37q11 7 32.5 15.5
t29.5 12.5q2 0 4 2t4 2h1l1 1l1 1h1zM229 137l29 -5h3q9 0 17 3q16 3 29 3q53 0 53 -43q0 -23 -15 -56q-11 -25 -53 -46q-21 -12 -45 -12q-46 4 -64 15q-22 14 -32 24q-53 38 -83 112.5t-30 159.5q0 25 3 49q1 2 1 6.5v6.5q2 20 15 62q19 63 76 135q2 3 10.5 11t11.5 12
q36 41 50 53q17 12 33 17q15 5 21 5h4q2 0 17 -3h4q1 0 14 -3q14 -3 24 -15.5t10 -27.5v-9q-1 -16 -6.5 -26.5t-11 -15.5t-20.5 -15q-12 -8 -26 -15q-53 -27 -83.5 -97t-30.5 -152q0 -39 22.5 -83t52.5 -50z" />
    <glyph glyph-name="Cdotaccent" unicode="&#x10a;" horiz-adv-x="424" 
d="M307 714v-17q0 -43 -34 -66q-14 -8 -31 -8h-8q-21 3 -37 9q-4 1 -16 11q-13 10 -17 34q0 2 -0.5 6.5t-0.5 6.5v4q0 22 11.5 42.5t26.5 31.5q12 12 31 12q0 -1 1 -1h4q21 0 34 -9q36 -23 36 -56zM302 590h9q1 0 4 -0.5t4 -0.5q21 0 34 -14.5t13 -35.5v-3q0 -26 -17.5 -45
t-41.5 -25q-45 -11 -62 -22l-9 -6q-1 0 -3 -1.5t-3 -2.5q-3 -3 -11.5 -11t-13.5 -13q-4 -4 -16 -24q-6 -8 -14 -24q-1 -3 -4 -8t-4 -8q-5 -10 -17 -60q-2 -10 -2 -16q0 -4 -0.5 -10t-0.5 -10v-37q8 -51 32 -75q36 -30 76 -30q3 0 11 0.5t12 0.5q3 0 25 4t31 4q44 0 50 -27
v-3q1 -3 1 -5v-1q0 -1 -0.5 -4t-0.5 -4q-3 -10 -11 -18l-8 -8q-32 -30 -82 -30h-29q-50 0 -96 16q-16 7 -43 25q-34 21 -48 44q-19 31 -33 68q-9 28 -9 77q0 74 31 145q5 11 11 22l12 21q6 12 26 38q26 31 55 50q7 6 21 16q2 1 7 5.5t8 5.5q47 28 53 30q28 10 53 10z" />
    <glyph glyph-name="cdotaccent" unicode="&#x10b;" horiz-adv-x="401" 
d="M312 761v-17q0 -43 -33 -66q-14 -8 -32 -8h-7q-23 4 -38 9q-4 1 -16 11q-13 10 -17 34q0 2 -0.5 6.5t-0.5 6.5v4q0 22 11.5 42.5t26.5 31.5q12 12 32 12v-1h1h3q20 0 34 -9q36 -23 36 -56zM229 137l29 -5h3q9 0 17 3q16 3 29 3q53 0 53 -43q0 -23 -15 -56
q-11 -25 -53 -46q-21 -12 -45 -12q-46 4 -64 15q-22 14 -32 24q-53 38 -83 112.5t-30 159.5q0 25 3 49q1 2 1 6.5v6.5q2 20 15 62q19 63 76 135q2 3 10.5 11t11.5 12q36 41 50 53q17 12 33 17q15 5 21 5h4q2 0 17 -3h4q1 0 14 -3q14 -3 24 -15.5t10 -27.5v-9
q-1 -16 -6.5 -26.5t-11 -15.5t-20.5 -15q-12 -8 -26 -15q-53 -27 -83.5 -97t-30.5 -152q0 -39 22.5 -83t52.5 -50z" />
    <glyph glyph-name="Ccaron" unicode="&#x10c;" horiz-adv-x="424" 
d="M341 706q0 -6 -5 -14t-10.5 -13.5l-13 -13t-8.5 -9.5q-1 -1 -31 -25q-15 -15 -26 -15q-14 0 -21 11q-6 7 -21 17t-19 14q-8 7 -27.5 20.5t-28.5 20.5q-6 6 -6 15q0 3 2 9v1l1 2q1 2 5 6q8 10 13 13q12 7 20 7q7 0 14.5 -4t12 -8.5t11.5 -12.5t9 -10q6 -5 14.5 -15.5
t11.5 -13.5l8 12q7 11 12 15q12 12 31 14h4q5 0 15 -1.5t14 -1.5q19 -8 19 -20zM302 590h9q1 0 4 -0.5t4 -0.5q21 0 34 -14.5t13 -35.5v-3q0 -26 -17.5 -45t-41.5 -25q-45 -11 -62 -22l-9 -6q-1 0 -3 -1.5t-3 -2.5q-3 -3 -11.5 -11t-13.5 -13q-4 -4 -16 -24q-6 -8 -14 -24
q-1 -3 -4 -8t-4 -8q-5 -10 -17 -60q-2 -10 -2 -16q0 -4 -0.5 -10t-0.5 -10v-37q8 -51 32 -75q36 -30 76 -30q3 0 11 0.5t12 0.5q3 0 25 4t31 4q44 0 50 -27v-3q1 -3 1 -5v-1q0 -1 -0.5 -4t-0.5 -4q-3 -10 -11 -18l-8 -8q-32 -30 -82 -30h-29q-50 0 -96 16q-16 7 -43 25
q-34 21 -48 44q-19 31 -33 68q-9 28 -9 77q0 74 31 145q5 11 11 22l12 21q6 12 26 38q26 31 55 50q7 6 21 16q2 1 7 5.5t8 5.5q47 28 53 30q28 10 53 10z" />
    <glyph glyph-name="ccaron" unicode="&#x10d;" horiz-adv-x="401" 
d="M331 759q0 -6 -5 -13.5t-10.5 -13.5t-12.5 -13l-9 -9q-4 -4 -31 -26q-14 -14 -26 -14q-14 0 -21 10q-6 7 -21 17.5t-19 14.5q-9 8 -28.5 21t-27.5 20q-6 6 -6 14q0 3 2 9v1q1 1 1 2q1 2 5 6q10 12 13 14q10 6 20 6q7 0 14.5 -4t12 -8.5t11.5 -12.5t9 -10q6 -4 13.5 -14.5
t11.5 -14.5q19 25 21 27q12 12 31 14h4q5 0 14.5 -1.5t13.5 -1.5q20 -8 20 -20zM229 137l29 -5h3q9 0 17 3q16 3 29 3q53 0 53 -43q0 -23 -15 -56q-11 -25 -53 -46q-21 -12 -45 -12q-46 4 -64 15q-22 14 -32 24q-53 38 -83 112.5t-30 159.5q0 25 3 49q1 2 1 6.5v6.5
q2 20 15 62q19 63 76 135q2 3 10.5 11t11.5 12q36 41 50 53q17 12 33 17q15 5 21 5h4q2 0 17 -3h4q1 0 14 -3q14 -3 24 -15.5t10 -27.5v-9q-1 -16 -6.5 -26.5t-11 -15.5t-20.5 -15q-12 -8 -26 -15q-53 -27 -83.5 -97t-30.5 -152q0 -39 22.5 -83t52.5 -50z" />
    <glyph glyph-name="Dcaron" unicode="&#x10e;" horiz-adv-x="461" 
d="M324 774q0 -6 -5 -13.5t-10.5 -13.5t-12.5 -13l-9 -9q-4 -4 -31 -26q-14 -14 -27 -14t-20 10q-6 7 -21 17.5t-19 14.5q-8 8 -27.5 20.5t-28.5 20.5q-7 7 -7 14q0 1 3 10l1 1v2q1 2 5 6q8 10 13 13q10 6 19 6q7 0 14.5 -4t12 -8.5t12 -12.5t9.5 -10q6 -4 14 -14.5
t11 -13.5q17 22 21 26q14 13 30 15h4q5 0 15 -1.5t14 -1.5q20 -8 20 -21zM421 458q9 -43 9 -66v-32q-1 -10 -5 -30q-5 -49 -28 -102q-23 -56 -52 -91v1q-4 -4 -8 -9.5t-8.5 -12.5t-7.5 -11q-4 -6 -32 -31q-36 -32 -62 -50q-49 -36 -93 -36q-42 0 -57 19q-1 2 -4 10
q0 1 -0.5 3l-0.5 2q-5 15 -5 21q0 2 -0.5 5.5t-0.5 5.5q-3 21 -3 24q0 6 1 16.5t1 15.5q0 2 -1 7t-1 8q-4 26 -4 40v60v16v8q0 3 -0.5 9t-0.5 9q0 6 0.5 18t0.5 18q0 5 0.5 16t0.5 16q0 15 -5 62v-6q-3 33 -3 35q0 5 -0.5 14.5t-0.5 14.5v13q-1 5 -1 16v11q1 6 1 18v16
q1 3 1 10v10v14v9q0 70 30 81q37 15 76 15q77 0 163 -48q11 -6 20 -15t19 -22.5t15 -18.5q12 -14 39 -77q7 -14 7 -29zM156 269q0 -10 -0.5 -31t-0.5 -30q0 -17 2 -48.5t2 -49.5q0 -3 0.5 -9.5t0.5 -9.5v-2v-3l1 -2q11 5 55 33q14 9 32.5 31.5t22.5 26.5q9 11 27 40
q26 47 30 60q16 50 16 91v15q-8 67 -23 91q-36 55 -48 67q-40 40 -97 40h-15q-1 0 -3 1v-21q2 -32 2 -50v-6q0 -18 -1.5 -53.5t-1.5 -53.5v-37q0 -5 0.5 -16t0.5 -17q0 -21 -2 -57z" />
    <glyph glyph-name="dcaron" unicode="&#x10f;" horiz-adv-x="455" 
d="M343 752q0 -7 -7 -16.5t-17.5 -20.5t-12.5 -13q-5 -6 -17 -14.5t-14 -9.5q-14 -14 -26 -14q-14 0 -21 10q-6 7 -21.5 17.5t-18.5 13.5q-9 9 -29 21.5t-27 18.5q-6 6 -6 15q0 2 2 10l1 2q1 2 5 6q7 10 13 15q11 6 20 6q7 0 14.5 -4t12 -8.5t11.5 -12.5t9 -10
q5 -4 13.5 -14.5t12.5 -14.5l8 11q7 11 12 16q10 10 31 14h4q5 0 15 -2t14 -2q19 -8 19 -20zM418 356v-9q0 -2 0.5 -6.5t0.5 -6.5v-1q0 -69 -9 -103q-15 -57 -49 -113q-11 -18 -43 -48q-36 -32 -70 -43q-12 -4 -33 -13t-39.5 -14.5t-38.5 -5.5h-9q-18 0 -29 1t-25.5 4
t-21.5 11.5t-7 21.5q0 11 2 31.5t2 31.5t-0.5 32.5t-0.5 32.5t0.5 31.5t0.5 31.5v14q0 24 3 68t4 54q1 30 7 84.5t7 71.5q4 66 10 98q2 9 8 12q7 9 40 9h29q71 0 137 -43q31 -20 48 -36.5t34 -46.5q38 -64 42 -151zM158 231q0 -23 -3.5 -64t-3.5 -50q7 -2 25 -2q36 0 61 8
t41 26.5t25 37.5t20 53q10 36 10 83q0 61 -27 138q-14 33 -93 33h-2q-6 0 -17.5 -2t-13.5 -2q-1 -24 -4 -65.5t-4 -58.5q-3 -54 -9 -88q-4 -28 -4 -42z" />
    <glyph glyph-name="Dcroat" unicode="&#x110;" horiz-adv-x="505" 
d="M465 458q9 -43 9 -66v-32q-1 -10 -5 -30q-5 -49 -28 -102q-23 -56 -52 -91v1l-24 -33q-4 -6 -32 -31q-36 -32 -62 -50q-49 -36 -93 -36q-42 0 -57 19q-1 2 -4 10q0 1 -0.5 3l-0.5 2q-5 15 -5 21q0 2 -0.5 5.5t-0.5 5.5q-2 14 -2 24q0 6 0.5 16.5t0.5 15.5q0 2 -0.5 7
t-0.5 8q-5 32 -5 40v60v16v8q0 3 -0.5 9t-0.5 9q0 6 0.5 18t0.5 18v9q-71 2 -71 43q0 37 54 37h2q9 0 10 4v4q0 3 -1 12t-1 14t-0.5 14.5t-0.5 14.5q0 4 -0.5 14t-0.5 15q0 4 0.5 14t0.5 15v29q1 5 1 15v15q0 70 30 81q37 15 76 15q77 0 163 -48q11 -6 20 -15t19 -22.5
t15 -18.5q12 -14 39 -77q7 -14 7 -29zM200 269q0 -10 -0.5 -31t-0.5 -30q0 -17 2 -48.5t2 -49.5q0 -3 0.5 -9.5t0.5 -9.5v-2v-3l1 -2q11 5 55 33q14 9 32.5 31.5t22.5 26.5q9 11 27 40q46 79 46 151v15q-8 67 -23 91q-2 3 -13.5 21t-15.5 23t-15 19t-19.5 18.5t-21.5 12.5
t-27.5 10.5t-32.5 2.5h-15q-1 0 -3 1v-21q2 -32 2 -50v-6q0 -18 -1.5 -53.5t-1.5 -53.5v-8h4q22 0 49 -5q27 -6 27 -27q0 -9 -3.5 -16t-7.5 -10.5t-13 -6t-15 -3t-18.5 -1.5t-17.5 -2q-1 -1 -4 -1q0 -17 -2 -47z" />
    <glyph glyph-name="dcroat" unicode="&#x111;" horiz-adv-x="508" 
d="M199 231q0 -22 -3.5 -62t-4.5 -52q7 -2 26 -2q36 0 61 8t41 26.5t25 37.5t20 53q10 36 10 83q0 61 -27 138q-14 33 -93 33h-2q-6 0 -17.5 -2t-13.5 -2q-1 -24 -4 -65.5t-4 -58.5v-6q10 0 40 -5q27 -6 27 -26q0 -11 -3.5 -18.5t-13.5 -11t-14.5 -5t-21.5 -3t-21 -1.5
q0 -2 -1 -6t-1 -6q-4 -28 -4 -42zM459 356v-9q0 -2 0.5 -6.5t0.5 -6.5v-1q0 -69 -9 -103q-15 -57 -49 -113q-11 -18 -43 -48q-36 -32 -70 -43q-12 -4 -33 -13t-39.5 -14.5t-38.5 -5.5h-9q-18 0 -29 1t-25.5 4t-21.5 11.5t-7 21.5q0 11 2 31.5t2 31.5t-0.5 32.5t-0.5 32.5
t0.5 31.5t0.5 31.5v14q0 17 2 49q-61 6 -61 43t54 37q2 0 6 -0.5t6 -0.5q1 29 7 81t7 69q4 66 10 98q2 9 8 12q7 9 40 9h29q71 0 137 -43q31 -20 48 -36.5t34 -46.5q38 -64 42 -151z" />
    <glyph glyph-name="Emacron" unicode="&#x112;" 
d="M357 689l-2 -1q-12 -13 -49 -13q-11 0 -31 2q-5 1 -16 1q-5 0 -17 -0.5t-18 -0.5h-7q-31 0 -61 6q-5 1 -15.5 3.5t-15.5 3.5q-30 10 -30 27q0 3 2 9q5 13 25.5 24t44.5 13l23 2h11q8 0 24.5 -1.5t24.5 -1.5q6 0 9 1h11q7 0 23.5 -1t24.5 -1q36 0 44 -25q2 -4 2 -10
q0 -26 -7 -37zM234 25h-7q-2 0 -7 -0.5t-8 -0.5q-2 0 -8 -0.5t-8 -0.5h-14q-5 0 -15 -1.5t-15 -1.5h-20q-2 0 -5.5 1t-4.5 1h-3q-31 4 -53 21t-22 45v16l1 5v25q0 13 2.5 36t2.5 34v13l1 3v17l1 5v4q0 2 0.5 8t0.5 8v6q0 4 0.5 12.5t0.5 12.5l1 7v3q0 3 0.5 9t0.5 9l1 31
q1 6 1 16v15v28q2 20 3 29q2 16 2 27q0 5 -1 17t-1 18q0 14 7 37q0 1 0.5 3.5t0.5 3.5q3 20 15 38t28 23q9 4 41 14q16 4 26 4h94q3 0 10 -0.5t11 -0.5q59 -3 93 -20q18 -9 22 -21q2 -4 2 -6q1 -2 1 -11v-2q0 -3 -5 -13q-13 -27 -73 -27h-71q-17 0 -45 -2h-2q-5 -1 -16 -1
h-5q-1 0 -11 1t-15 1q-7 0 -8 -1q-7 -7 -7 -44v-9q0 -2 0.5 -7.5t0.5 -8.5t3 -12h2q6 -1 17 -1h2l25 -1h6q17 0 45 -2q24 0 40.5 -10.5t16.5 -30.5q0 -53 -79 -59h-2l-3 -1h-6h-2q-2 -1 -3 -1h-1q-30 -3 -34 -3h-17q-16 -2 -22 -4q-1 -1 -3 -1q0 -1 -0.5 -1t-0.5 -1l-4 -12
q-1 -7 -1 -24v-7q0 -6 -0.5 -18t-0.5 -17q0 -3 -0.5 -13t-0.5 -15q0 -61 14 -75l1 -1l1 -1q2 -1 6 -1q9 0 29.5 -1.5t25.5 -1.5h18l20 -1q25 0 37 -1q66 0 66 -42q0 -29 -18 -48t-46 -19q-1 0 -4 -0.5t-4 -0.5h-7q-12 -1 -37 -1z" />
    <glyph glyph-name="emacron" unicode="&#x113;" horiz-adv-x="444" 
d="M342 725l-2 -1q-12 -13 -49 -13q-11 0 -31 2q-5 1 -16 1q-6 0 -18 -0.5t-17 -0.5h-7q-32 0 -62 6q-5 1 -15 3.5t-15 3.5q-30 10 -30 27q0 3 2 9q5 13 25.5 24t44.5 13l23 2h10q8 0 24.5 -1.5t24.5 -1.5q7 0 10 1h11q7 0 23.5 -1t24.5 -1q36 0 44 -25q1 -2 1 -10
q0 -28 -6 -37zM70 166q0 78 -15 156v4q0 3 -1 8.5t-1.5 10t-0.5 8.5v27q0 2 -0.5 6.5t-0.5 6.5q0 3 -0.5 9t-0.5 9q0 15 -1 23l-3 19q-2 11 -4 31q0 3 -0.5 8t-0.5 7v10q0 2 -0.5 5t-0.5 5t-0.5 5.5t-0.5 5.5q-1 7 -1 23v27q0 12 7 33q9 37 31 45q32 13 50 16q50 16 105 16
h11q5 0 14.5 -0.5t14.5 -0.5h5q33 0 62 -9q36 -15 36 -45v-8q-4 -34 -41 -53h-2q-6 -3 -8 -3q-16 -2 -23 -2q-2 0 -6 0.5t-6 0.5h-90q-33 0 -50 -6h-1q2 -10 4.5 -27.5t5.5 -32t7 -26.5q0 -2 1.5 -7t2.5 -7l3 -15q1 0 3.5 0.5t3.5 0.5q4 1 11 1h33q4 0 14 0.5t15 0.5h15
q4 -1 25 -3.5t31.5 -5.5t21 -13.5t10.5 -27.5q0 -2 -0.5 -5t-0.5 -4v-2q-4 -24 -15 -34q-12 -10 -31 -15h-2q-2 -1 -10 -3.5t-13 -3.5t-16.5 -2t-12.5 -1l-1 -1q-5 -1 -14.5 -2t-14.5 -2h-3q-2 0 -7 -0.5t-8 -0.5q-13 -1 -43 -9v-18q0 -3 0.5 -9.5t0.5 -9.5q0 -2 0.5 -8
t0.5 -9t0.5 -8.5t0.5 -7.5q0 -3 0.5 -11t0.5 -12q0 -30 7 -61q1 -2 1 -6.5v-6.5q2 -18 5 -26l1 -2v-2q14 2 43 5.5t53.5 7t44.5 7.5q14 2 21 2q27 0 47 -12.5t20 -36.5q0 -1 -0.5 -2.5t-0.5 -2.5q-2 -14 -5 -22t-9.5 -15.5t-16.5 -10.5q-11 -3 -38 -10.5t-42 -10.5
q-5 -1 -32 -7.5t-46 -6.5h-22l-16 1q-73 0 -91 35q-2 2 -7 19q-8 20 -8 32q0 4 -2 14.5t-2 15.5q-1 4 -1 14v15v15z" />
    <glyph glyph-name="Ebreve" unicode="&#x114;" 
d="M322 788q10 -2 19.5 -9.5t9.5 -15.5q0 -1 -1.5 -7.5t-1.5 -7.5q-31 -79 -87 -79h-3q-48 2 -72 26q-26 26 -26 49q0 24 5 31q6 10 16 12h6q3 0 4 -1q8 -3 28.5 -25t27.5 -25q6 -2 10 -2q7 0 8 3q7 7 15.5 21t16.5 20q10 10 20 10h5zM234 25h-7q-2 0 -7 -0.5t-8 -0.5
q-2 0 -8 -0.5t-8 -0.5h-14q-5 0 -15 -1.5t-15 -1.5h-20q-2 0 -5.5 1t-4.5 1h-3q-31 4 -53 21t-22 45v16l1 5v25q0 13 2.5 36t2.5 34v13l1 3v17l1 5v4q0 2 0.5 8t0.5 8v6q0 4 0.5 12.5t0.5 12.5l1 7v3q0 3 0.5 9t0.5 9l1 31q1 6 1 16v15v28q2 20 3 29q2 16 2 27q0 5 -1 17
t-1 18q0 14 7 37q0 1 0.5 3.5t0.5 3.5q3 20 15 38t28 23q9 4 41 14q16 4 26 4h94q3 0 10 -0.5t11 -0.5q59 -3 93 -20q18 -9 22 -21q2 -4 2 -6q1 -2 1 -11v-2q0 -3 -5 -13q-13 -27 -73 -27h-71q-17 0 -45 -2h-2q-5 -1 -16 -1h-5q-1 0 -11 1t-15 1q-7 0 -8 -1q-7 -7 -7 -44v-9
q0 -2 0.5 -7.5t0.5 -8.5t3 -12h2q6 -1 17 -1h2l25 -1h6q17 0 45 -2q24 0 40.5 -10.5t16.5 -30.5q0 -53 -79 -59h-2l-3 -1h-6h-2q-2 -1 -3 -1h-1q-30 -3 -34 -3h-17q-16 -2 -22 -4q-1 -1 -3 -1q0 -1 -0.5 -1t-0.5 -1l-4 -12q-1 -7 -1 -24v-7q0 -6 -0.5 -18t-0.5 -17
q0 -3 -0.5 -13t-0.5 -15q0 -61 14 -75l1 -1l1 -1q2 -1 6 -1q9 0 29.5 -1.5t25.5 -1.5h18l20 -1q25 0 37 -1q66 0 66 -42q0 -29 -18 -48t-46 -19q-1 0 -4 -0.5t-4 -0.5h-7q-12 -1 -37 -1z" />
    <glyph glyph-name="ebreve" unicode="&#x115;" horiz-adv-x="444" 
d="M282 840q10 -2 19.5 -10t9.5 -16q0 -1 -1.5 -7.5t-1.5 -7.5q-31 -79 -87 -79h-3q-48 2 -72 26q-26 26 -26 50q0 22 5 30q7 11 16 13h6q4 0 5 -1q8 -3 28 -25.5t27 -25.5q6 -2 10 -2q7 0 8 3q8 7 16.5 20.5t15.5 20.5q11 11 21 11h4zM70 166q0 78 -15 156v4q0 3 -1 8.5
t-1.5 10t-0.5 8.5v27q0 2 -0.5 6.5t-0.5 6.5q0 3 -0.5 9t-0.5 9q0 15 -1 23l-3 19q-2 11 -4 31q0 3 -0.5 8t-0.5 7v10q0 2 -0.5 5t-0.5 5t-0.5 5.5t-0.5 5.5q-1 7 -1 23v27q0 12 7 33q9 37 31 45q32 13 50 16q50 16 105 16h11q5 0 14.5 -0.5t14.5 -0.5h5q33 0 62 -9
q36 -15 36 -45v-8q-4 -34 -41 -53h-2q-6 -3 -8 -3q-16 -2 -23 -2q-2 0 -6 0.5t-6 0.5h-90q-33 0 -50 -6h-1q2 -10 4.5 -27.5t5.5 -32t7 -26.5q0 -2 1.5 -7t2.5 -7l3 -15q1 0 3.5 0.5t3.5 0.5q4 1 11 1h33q4 0 14 0.5t15 0.5h15q4 -1 25 -3.5t31.5 -5.5t21 -13.5t10.5 -27.5
q0 -2 -0.5 -5t-0.5 -4v-2q-4 -24 -15 -34q-12 -10 -31 -15h-2q-2 -1 -10 -3.5t-13 -3.5t-16.5 -2t-12.5 -1l-1 -1q-5 -1 -14.5 -2t-14.5 -2h-3q-2 0 -7 -0.5t-8 -0.5q-13 -1 -43 -9v-18q0 -3 0.5 -9.5t0.5 -9.5q0 -2 0.5 -8t0.5 -9t0.5 -8.5t0.5 -7.5q0 -3 0.5 -11t0.5 -12
q0 -30 7 -61q1 -2 1 -6.5v-6.5q2 -18 5 -26l1 -2v-2q14 2 43 5.5t53.5 7t44.5 7.5q14 2 21 2q27 0 47 -12.5t20 -36.5q0 -1 -0.5 -2.5t-0.5 -2.5q-2 -14 -5 -22t-9.5 -15.5t-16.5 -10.5q-11 -3 -38 -10.5t-42 -10.5q-5 -1 -32 -7.5t-46 -6.5h-22l-16 1q-73 0 -91 35
q-2 2 -7 19q-8 20 -8 32q0 4 -2 14.5t-2 15.5q-1 4 -1 14v15v15z" />
    <glyph glyph-name="Edotaccent" unicode="&#x116;" 
d="M312 754v-17q0 -43 -33 -66q-14 -8 -32 -8h-7q-23 4 -38 9q-4 1 -16 11q-13 10 -17 34q0 2 -0.5 6.5t-0.5 6.5v4q0 22 11.5 42.5t26.5 31.5q12 12 32 12q0 -1 1 -1h3q20 0 34 -9q36 -23 36 -56zM234 25h-7q-2 0 -7 -0.5t-8 -0.5q-2 0 -8 -0.5t-8 -0.5h-14q-5 0 -15 -1.5
t-15 -1.5h-20q-2 0 -5.5 1t-4.5 1h-3q-31 4 -53 21t-22 45v16l1 5v25q0 13 2.5 36t2.5 34v13l1 3v17l1 5v4q0 2 0.5 8t0.5 8v6q0 4 0.5 12.5t0.5 12.5l1 7v3q0 3 0.5 9t0.5 9l1 31q1 6 1 16v15v28q2 20 3 29q2 16 2 27q0 5 -1 17t-1 18q0 14 7 37q0 1 0.5 3.5t0.5 3.5
q3 20 15 38t28 23q9 4 41 14q16 4 26 4h94q3 0 10 -0.5t11 -0.5q59 -3 93 -20q18 -9 22 -21q2 -4 2 -6q1 -2 1 -11v-2q0 -3 -5 -13q-13 -27 -73 -27h-71q-17 0 -45 -2h-2q-5 -1 -16 -1h-5q-1 0 -11 1t-15 1q-7 0 -8 -1q-7 -7 -7 -44v-9q0 -2 0.5 -7.5t0.5 -8.5t3 -12h2
q6 -1 17 -1h2l25 -1h6q17 0 45 -2q24 0 40.5 -10.5t16.5 -30.5q0 -53 -79 -59h-2l-3 -1h-6h-2q-2 -1 -3 -1h-1q-30 -3 -34 -3h-17q-16 -2 -22 -4q-1 -1 -3 -1q0 -1 -0.5 -1t-0.5 -1l-4 -12q-1 -7 -1 -24v-7q0 -6 -0.5 -18t-0.5 -17q0 -3 -0.5 -13t-0.5 -15q0 -61 14 -75
l1 -1l1 -1q2 -1 6 -1q9 0 29.5 -1.5t25.5 -1.5h18l20 -1q25 0 37 -1q66 0 66 -42q0 -29 -18 -48t-46 -19q-1 0 -4 -0.5t-4 -0.5h-7q-12 -1 -37 -1z" />
    <glyph glyph-name="edotaccent" unicode="&#x117;" horiz-adv-x="444" 
d="M263 808v-16q0 -44 -34 -67q-14 -8 -31 -8h-8q-21 3 -37 9q-4 1 -16 11q-13 10 -17 34q0 2 -0.5 6.5t-0.5 6.5v4q0 22 11.5 42.5t26.5 31.5q12 12 31 12q0 -1 1 -1h4q20 0 34 -9q36 -23 36 -56zM70 166q0 78 -15 156v4q0 3 -1 8.5t-1.5 10t-0.5 8.5v27q0 2 -0.5 6.5
t-0.5 6.5q0 3 -0.5 9t-0.5 9q0 15 -1 23l-3 19q-2 11 -4 31q0 3 -0.5 8t-0.5 7v10q0 2 -0.5 5t-0.5 5t-0.5 5.5t-0.5 5.5q-1 7 -1 23v27q0 12 7 33q9 37 31 45q32 13 50 16q50 16 105 16h11q5 0 14.5 -0.5t14.5 -0.5h5q33 0 62 -9q36 -15 36 -45v-8q-4 -34 -41 -53h-2
q-6 -3 -8 -3q-16 -2 -23 -2q-2 0 -6 0.5t-6 0.5h-90q-33 0 -50 -6h-1q2 -10 4.5 -27.5t5.5 -32t7 -26.5q0 -2 1.5 -7t2.5 -7l3 -15q1 0 3.5 0.5t3.5 0.5q4 1 11 1h33q4 0 14 0.5t15 0.5h15q4 -1 25 -3.5t31.5 -5.5t21 -13.5t10.5 -27.5q0 -2 -0.5 -5t-0.5 -4v-2
q-4 -24 -15 -34q-12 -10 -31 -15h-2q-2 -1 -10 -3.5t-13 -3.5t-16.5 -2t-12.5 -1l-1 -1q-5 -1 -14.5 -2t-14.5 -2h-3q-2 0 -7 -0.5t-8 -0.5q-13 -1 -43 -9v-18q0 -3 0.5 -9.5t0.5 -9.5q0 -2 0.5 -8t0.5 -9t0.5 -8.5t0.5 -7.5q0 -3 0.5 -11t0.5 -12q0 -30 7 -61q1 -2 1 -6.5
v-6.5q2 -18 5 -26l1 -2v-2q14 2 43 5.5t53.5 7t44.5 7.5q14 2 21 2q27 0 47 -12.5t20 -36.5q0 -1 -0.5 -2.5t-0.5 -2.5q-2 -14 -5 -22t-9.5 -15.5t-16.5 -10.5q-11 -3 -38 -10.5t-42 -10.5q-5 -1 -32 -7.5t-46 -6.5h-22l-16 1q-73 0 -91 35q-2 2 -7 19q-8 20 -8 32
q0 4 -2 14.5t-2 15.5q-1 4 -1 14v15v15z" />
    <glyph glyph-name="Eogonek" unicode="&#x118;" 
d="M291 27q-1 -8 -1 -23q0 -21 4 -30q4 -10 9 -14t16.5 -9.5t23.5 -17.5q9 -6 10 -10l4 -7q2 -4 2 -8q0 -19 -16 -35q-8 -8 -22 -8q-17 0 -30 9q-35 20 -53 40.5t-25 51.5q-2 12 -2 21q0 20 7 37h-6q-2 0 -8 -0.5t-8 -0.5h-14q-5 0 -15 -1.5t-15 -1.5h-20q-2 0 -5.5 1
t-4.5 1h-3q-31 4 -53 21t-22 45v16l1 5v25q0 13 2.5 36t2.5 34v13l1 3v17l1 5v4q0 2 0.5 8t0.5 8v6q0 4 0.5 12.5t0.5 12.5l1 7v3q0 3 0.5 9t0.5 9l1 31q1 6 1 16v15v28q2 20 3 29q2 16 2 27q0 5 -1 17t-1 18q0 14 7 37q0 1 0.5 3.5t0.5 3.5q3 20 15 38t28 23q9 4 41 14
q16 4 26 4h94q3 0 10 -0.5t11 -0.5q59 -3 93 -20q18 -9 22 -21q2 -4 2 -6q1 -2 1 -11v-2q0 -3 -5 -13q-13 -27 -73 -27h-71q-17 0 -45 -2h-2q-5 -1 -16 -1h-5q-1 0 -11 1t-15 1q-7 0 -8 -1q-7 -7 -7 -44v-9q0 -2 0.5 -7.5t0.5 -8.5t3 -12h2q6 -1 17 -1h2l25 -1h6q17 0 45 -2
q24 0 40.5 -10.5t16.5 -30.5q0 -53 -79 -59h-2l-3 -1h-6h-2q-2 -1 -3 -1h-1q-30 -3 -34 -3h-17q-16 -2 -22 -4q-1 -1 -3 -1q0 -1 -0.5 -1t-0.5 -1l-4 -12q-1 -7 -1 -24v-7q0 -6 -0.5 -18t-0.5 -17q0 -3 -0.5 -13t-0.5 -15q0 -61 14 -75l1 -1l1 -1q2 -1 6 -1q9 0 29.5 -1.5
t25.5 -1.5h18l20 -1q25 0 37 -1q66 0 66 -42q0 -27 -16.5 -46t-42.5 -21z" />
    <glyph glyph-name="eogonek" unicode="&#x119;" horiz-adv-x="444" 
d="M70 166q0 78 -15 156v4q0 3 -1 8.5t-1.5 10t-0.5 8.5v27q0 2 -0.5 6.5t-0.5 6.5q0 3 -0.5 9t-0.5 9q0 15 -1 23l-3 19q-2 11 -4 31q0 3 -0.5 8t-0.5 7v10q0 2 -0.5 5t-0.5 5t-0.5 5.5t-0.5 5.5q-1 7 -1 23v27q0 12 7 33q9 37 31 45q32 13 50 16q50 16 105 16h11
q5 0 14.5 -0.5t14.5 -0.5h5q33 0 62 -9q36 -15 36 -45v-8q-4 -34 -41 -53h-2q-6 -3 -8 -3q-16 -2 -23 -2q-2 0 -6 0.5t-6 0.5h-90q-33 0 -50 -6h-1q2 -10 4.5 -27.5t5.5 -32t7 -26.5q0 -2 1.5 -7t2.5 -7l3 -15q1 0 3.5 0.5t3.5 0.5q4 1 11 1h33q4 0 14 0.5t15 0.5h15
q4 -1 25 -3.5t31.5 -5.5t21 -13.5t10.5 -27.5q0 -2 -0.5 -5t-0.5 -4v-2q-4 -24 -15 -34q-12 -10 -31 -15h-2q-2 -1 -10 -3.5t-13 -3.5t-16.5 -2t-12.5 -1l-1 -1q-5 -1 -14.5 -2t-14.5 -2h-3q-2 0 -7 -0.5t-8 -0.5q-13 -1 -43 -9v-18q0 -3 0.5 -9.5t0.5 -9.5q0 -2 0.5 -8
t0.5 -9t0.5 -8.5t0.5 -7.5q0 -3 0.5 -11t0.5 -12q0 -30 7 -61q1 -2 1 -6.5v-6.5q2 -18 5 -26l1 -2v-2q14 2 43 5.5t53.5 7t44.5 7.5q14 2 21 2q27 0 47 -12.5t20 -36.5q0 -1 -0.5 -2.5t-0.5 -2.5q-2 -14 -5 -22t-9.5 -15.5t-16.5 -10.5q-7 -2 -23 -6v-4q-1 -8 -1 -23
q0 -21 4 -30q3 -8 7.5 -12.5t9 -5.5t14 -7t19.5 -15q9 -6 10 -11l4 -7q2 -4 2 -8q0 -19 -16 -35q-8 -8 -23 -8q-17 0 -30 9q-35 20 -53 40.5t-25 51.5q-2 12 -2 21q0 7 4 25q-34 -10 -59 -10h-22l-16 1q-73 0 -91 35q-2 2 -7 19q-8 20 -8 32q0 4 -2 14.5t-2 15.5q-1 4 -1 14
v15v15z" />
    <glyph glyph-name="Ecaron" unicode="&#x11a;" 
d="M343 745q0 -6 -5 -13.5t-10.5 -13.5t-12.5 -13l-9 -9q-1 -1 -31 -25q-15 -15 -26 -15q-14 0 -21 11q-6 7 -21 17t-19 14q-8 8 -27.5 21t-28.5 20q-6 6 -6 15q0 3 2 9v1l1 2q1 2 5 6q8 10 13 13q12 7 20 7q7 0 14.5 -4t12 -8.5t11.5 -12.5t9 -10q6 -5 14.5 -15.5
t11.5 -13.5q2 3 5.5 8.5t7 10.5t7.5 8q12 12 31 14h4q5 0 15 -1.5t14 -1.5q19 -8 19 -21zM234 25h-7q-2 0 -7 -0.5t-8 -0.5q-2 0 -8 -0.5t-8 -0.5h-14q-5 0 -15 -1.5t-15 -1.5h-20q-2 0 -5.5 1t-4.5 1h-3q-31 4 -53 21t-22 45v16l1 5v25q0 13 2.5 36t2.5 34v13l1 3v17l1 5v4
q0 2 0.5 8t0.5 8v6q0 4 0.5 12.5t0.5 12.5l1 7v3q0 3 0.5 9t0.5 9l1 31q1 6 1 16v15v28q2 20 3 29q2 16 2 27q0 5 -1 17t-1 18q0 14 7 37q0 1 0.5 3.5t0.5 3.5q3 20 15 38t28 23q9 4 41 14q16 4 26 4h94q3 0 10 -0.5t11 -0.5q59 -3 93 -20q18 -9 22 -21q2 -4 2 -6
q1 -2 1 -11v-2q0 -3 -5 -13q-13 -27 -73 -27h-71q-17 0 -45 -2h-2q-5 -1 -16 -1h-5q-1 0 -11 1t-15 1q-7 0 -8 -1q-7 -7 -7 -44v-9q0 -2 0.5 -7.5t0.5 -8.5t3 -12h2q6 -1 17 -1h2l25 -1h6q17 0 45 -2q24 0 40.5 -10.5t16.5 -30.5q0 -53 -79 -59h-2l-3 -1h-6h-2q-2 -1 -3 -1
h-1q-30 -3 -34 -3h-17q-16 -2 -22 -4q-1 -1 -3 -1q0 -1 -0.5 -1t-0.5 -1l-4 -12q-1 -7 -1 -24v-7q0 -6 -0.5 -18t-0.5 -17q0 -3 -0.5 -13t-0.5 -15q0 -61 14 -75l1 -1l1 -1q2 -1 6 -1q9 0 29.5 -1.5t25.5 -1.5h18l20 -1q25 0 37 -1q66 0 66 -42q0 -29 -18 -48t-46 -19
q-1 0 -4 -0.5t-4 -0.5h-7q-12 -1 -37 -1z" />
    <glyph glyph-name="ecaron" unicode="&#x11b;" horiz-adv-x="444" 
d="M294 806q0 -7 -6.5 -16.5t-18.5 -21.5l-12 -11q-4 -4 -31 -26q-14 -14 -26 -14q-14 0 -21 10q-6 7 -21 17.5t-19 14.5q-9 8 -28 20.5t-28 20.5q-6 6 -6 14q0 3 2 9q0 1 1 3q2 4 5 7q8 10 13 13q10 6 20 6q7 0 14.5 -4t12 -8.5t11.5 -12.5t9 -10q6 -4 13.5 -14.5
t11.5 -14.5q19 25 21 27q12 12 31 14h4q5 0 14.5 -1.5t13.5 -1.5q20 -8 20 -20zM70 166q0 78 -15 156v4q0 3 -1 8.5t-1.5 10t-0.5 8.5v27q0 2 -0.5 6.5t-0.5 6.5q0 3 -0.5 9t-0.5 9q0 15 -1 23l-3 19q-2 11 -4 31q0 3 -0.5 8t-0.5 7v10q0 2 -0.5 5t-0.5 5t-0.5 5.5t-0.5 5.5
q-1 7 -1 23v27q0 12 7 33q9 37 31 45q32 13 50 16q50 16 105 16h11q5 0 14.5 -0.5t14.5 -0.5h5q33 0 62 -9q36 -15 36 -45v-8q-4 -34 -41 -53h-2q-6 -3 -8 -3q-16 -2 -23 -2q-2 0 -6 0.5t-6 0.5h-90q-33 0 -50 -6h-1q2 -10 4.5 -27.5t5.5 -32t7 -26.5q0 -2 1.5 -7t2.5 -7
l3 -15q1 0 3.5 0.5t3.5 0.5q4 1 11 1h33q4 0 14 0.5t15 0.5h15q4 -1 25 -3.5t31.5 -5.5t21 -13.5t10.5 -27.5q0 -2 -0.5 -5t-0.5 -4v-2q-4 -24 -15 -34q-12 -10 -31 -15h-2q-2 -1 -10 -3.5t-13 -3.5t-16.5 -2t-12.5 -1l-1 -1q-5 -1 -14.5 -2t-14.5 -2h-3q-2 0 -7 -0.5
t-8 -0.5q-13 -1 -43 -9v-18q0 -3 0.5 -9.5t0.5 -9.5q0 -2 0.5 -8t0.5 -9t0.5 -8.5t0.5 -7.5q0 -3 0.5 -11t0.5 -12q0 -30 7 -61q1 -2 1 -6.5v-6.5q2 -18 5 -26l1 -2v-2q14 2 43 5.5t53.5 7t44.5 7.5q14 2 21 2q27 0 47 -12.5t20 -36.5q0 -1 -0.5 -2.5t-0.5 -2.5
q-2 -14 -5 -22t-9.5 -15.5t-16.5 -10.5q-11 -3 -38 -10.5t-42 -10.5q-5 -1 -32 -7.5t-46 -6.5h-22l-16 1q-73 0 -91 35q-2 2 -7 19q-8 20 -8 32q0 4 -2 14.5t-2 15.5q-1 4 -1 14v15v15z" />
    <glyph glyph-name="Gcircumflex" unicode="&#x11c;" horiz-adv-x="520" 
d="M238 775q24 13 38 13q1 2 2 2q25 -1 52 -30q35 -37 44 -57q3 -6 3 -12q0 -10 -8 -17t-20 -7q-15 0 -35 13q-4 3 -17.5 13t-21.5 15h-1l-2 1h-13q-18 -6 -45 -27q-14 -12 -20 -14q-10 -5 -15 -5h-8q-9 0 -18.5 11t-13.5 21q-1 3 -1 10q0 20 26 36q11 7 32.5 15.5
t28.5 12.5q2 1 4.5 2t3.5 2q1 0 3 1h1zM214 73q59 0 86.5 44.5t27.5 113.5q1 4 1 9q0 6 -1 10q0 15 -1 16q-4 2 -10 2q-4 0 -13 -1t-12 -1h-3q-7 1 -19.5 1.5t-20.5 2t-15 5.5q-4 2 -8 8.5t-8 16t-5 11.5q-5 7 -5 19q0 16 15 25.5t36 10.5q3 0 7 0.5t7 0.5q9 0 30 -1t30 -1
h17q70 9 73 9q1 0 18 3.5t25 3.5q33 0 33 -45q0 -13 -8 -20.5t-16.5 -10t-24 -4.5t-21.5 -4t-22 -4q-2 -6 -4 -22v-23q0 -4 -0.5 -5.5l-1 -3t-0.5 -5.5q-13 -136 -127 -220q-20 -16 -64 -16q-53 0 -100 43q-58 52 -74 186q-2 24 -2 37q0 39 1 57q1 45 30 118q63 149 177 192
q21 8 56 8h19q50 -1 78 -41q17 -23 17 -43q0 -22 -23 -49q-7 -7 -27 -7q-14 0 -26 4q-32 14 -66 14q-22 0 -40.5 -11t-26.5 -20.5t-22 -29.5q-14 -17 -22.5 -33.5t-12 -27t-12.5 -42.5q-6 -23 -15 -92q-3 -19 -3 -42v-9q4 -30 8.5 -50t15 -42t29 -33.5t45.5 -11.5z" />
    <glyph glyph-name="gcircumflex" unicode="&#x11d;" horiz-adv-x="578" 
d="M238 807q24 13 38 13q1 1 2 1q26 -1 52 -29q35 -37 44 -57q3 -6 3 -12q0 -11 -8 -18t-20 -7q-14 0 -35 14q-3 2 -17 12t-22 15q-1 0 -3 1h-13q-21 -7 -45 -26q-16 -14 -20 -15q-10 -5 -15 -5h-8q-9 0 -18.5 11t-13.5 22q-1 3 -1 9q0 21 26 37q11 7 32.5 15.5t28.5 12.5
q2 0 4.5 1.5t3.5 2.5q1 0 3 1h1zM173 28q-33 3 -78 41l-15 12q-23 23 -36 64q-16 34 -16 62q0 73 11 119l6 27q6 38 17 58q8 24 20 49t20 39t27 44t24 38q17 30 48 58q1 1 5.5 6t6.5 6.5t6 5.5t7 5.5t7.5 4.5t8 4.5t9 3t11 2t11.5 0.5h2q50 -5 60 -19q12 -16 13 -26v-20
q0 -16 -8 -29t-14 -17.5t-21 -15.5q-31 -22 -48 -42q-3 -3 -23 -26t-26 -30.5t-22 -28.5t-23 -35t-15 -34.5t-11 -39.5q-2 -13 -2 -39v-13q0 -42 15 -89q14 -35 25 -45q2 -1 7 -4.5t8 -5.5q18 -7 47 -7l12 3q35 9 68 32q8 7 19 14q28 20 38 80q1 5 1 15q0 11 -2 33v42
q-5 -1 -16 -1l-36 3q-2 0 -7 0.5t-7 0.5q-12 1 -18.5 3t-12.5 8t-6 17q0 8 10 38q5 18 23 14h4q24 -4 39 -4q32 -5 43 -5q49 8 60 9l21 6l12 3q22 6 25 6h2q36 0 54 -27q4 -7 4 -15q0 -13 -13 -24t-27 -14q-38 -8 -50 -13q-1 -1 -2 -1t-2 -1q-4 -14 -5 -21q0 -1 -0.5 -2.5
t-0.5 -2.5q-1 -6 -4 -18.5t-4 -18.5q-1 -5 -2 -15.5t-1 -15.5q-6 -39 -27 -82t-46 -62q-7 -4 -24.5 -14.5t-23.5 -14t-20.5 -11.5t-21.5 -10.5t-19.5 -7.5t-22 -6.5t-22 -3t-25.5 -1.5q-11 0 -31 2z" />
    <glyph glyph-name="Gbreve" unicode="&#x11e;" horiz-adv-x="520" 
d="M338 785q10 -2 20 -9.5t10 -15.5q0 -1 -1.5 -8t-1.5 -8q-30 -78 -87 -78h-4q-47 2 -71 26q-27 27 -27 49q0 23 5 31q6 10 17 12h6q3 0 4 -1q8 -3 28 -25t27 -25q6 -2 10 -2q7 0 9 3q8 6 16 20t15 21q10 10 21 10h4zM214 73q59 0 86.5 44.5t27.5 113.5q1 4 1 9q0 6 -1 10
q0 15 -1 16q-4 2 -10 2q-4 0 -13 -1t-12 -1h-3q-7 1 -19.5 1.5t-20.5 2t-15 5.5q-4 2 -8 8.5t-8 16t-5 11.5q-5 7 -5 19q0 16 15 25.5t36 10.5q3 0 7 0.5t7 0.5q9 0 30 -1t30 -1h17q70 9 73 9q1 0 18 3.5t25 3.5q33 0 33 -45q0 -13 -8 -20.5t-16.5 -10t-24 -4.5t-21.5 -4
t-22 -4q-2 -6 -4 -22v-23q0 -4 -0.5 -5.5l-1 -3t-0.5 -5.5q-13 -136 -127 -220q-20 -16 -64 -16q-53 0 -100 43q-58 52 -74 186q-2 24 -2 37q0 39 1 57q1 45 30 118q63 149 177 192q21 8 56 8h19q50 -1 78 -41q17 -23 17 -43q0 -22 -23 -49q-7 -7 -27 -7q-14 0 -26 4
q-32 14 -66 14q-22 0 -40.5 -11t-26.5 -20.5t-22 -29.5q-14 -17 -22.5 -33.5t-12 -27t-12.5 -42.5q-6 -23 -15 -92q-3 -19 -3 -42v-9q4 -30 8.5 -50t15 -42t29 -33.5t45.5 -11.5z" />
    <glyph glyph-name="gbreve" unicode="&#x11f;" horiz-adv-x="578" 
d="M344 817q10 -2 20 -9.5t10 -15.5q0 -1 -1.5 -8t-1.5 -8q-31 -79 -87 -79h-3q-47 2 -72 27q-27 27 -27 49q0 23 5 31q6 10 17 12h6q3 0 4 -1q8 -3 28 -25t27 -25q6 -2 11 -2q6 0 8 3q8 7 16 20.5t15 20.5q10 10 21 10h4zM173 28q-33 3 -78 41l-15 12q-23 23 -36 64
q-16 34 -16 62q0 73 11 119l6 27q6 38 17 58q8 24 20 49t20 39t27 44t24 38q17 30 48 58q1 1 5.5 6t6.5 6.5t6 5.5t7 5.5t7.5 4.5t8 4.5t9 3t11 2t11.5 0.5h2q50 -5 60 -19q12 -16 13 -26v-20q0 -16 -8 -29t-14 -17.5t-21 -15.5q-31 -22 -48 -42q-3 -3 -23 -26t-26 -30.5
t-22 -28.5t-23 -35t-15 -34.5t-11 -39.5q-2 -13 -2 -39v-13q0 -42 15 -89q14 -35 25 -45q2 -1 7 -4.5t8 -5.5q18 -7 47 -7l12 3q35 9 68 32q8 7 19 14q28 20 38 80q1 5 1 15q0 11 -2 33v42q-5 -1 -16 -1l-36 3q-2 0 -7 0.5t-7 0.5q-12 1 -18.5 3t-12.5 8t-6 17q0 8 10 38
q5 18 23 14h4q24 -4 39 -4q32 -5 43 -5q49 8 60 9l21 6l12 3q22 6 25 6h2q36 0 54 -27q4 -7 4 -15q0 -13 -13 -24t-27 -14q-38 -8 -50 -13q-1 -1 -2 -1t-2 -1q-4 -14 -5 -21q0 -1 -0.5 -2.5t-0.5 -2.5q-1 -6 -4 -18.5t-4 -18.5q-1 -5 -2 -15.5t-1 -15.5q-6 -39 -27 -82
t-46 -62q-7 -4 -24.5 -14.5t-23.5 -14t-20.5 -11.5t-21.5 -10.5t-19.5 -7.5t-22 -6.5t-22 -3t-25.5 -1.5q-11 0 -31 2z" />
    <glyph glyph-name="Gdotaccent" unicode="&#x120;" horiz-adv-x="520" 
d="M335 757v-17q0 -43 -34 -66q-14 -8 -32 -8h-7q-23 4 -38 9q-2 1 -15 11q-15 11 -18 34q0 2 -0.5 6.5t-0.5 6.5v4q0 22 11.5 42.5t26.5 31.5q12 12 32 12v-1h1h3q22 0 35 -9q36 -23 36 -56zM214 73q59 0 86.5 44.5t27.5 113.5q1 4 1 9q0 6 -1 10q0 15 -1 16q-4 2 -10 2
q-4 0 -13 -1t-12 -1h-3q-7 1 -19.5 1.5t-20.5 2t-15 5.5q-4 2 -8 8.5t-8 16t-5 11.5q-5 7 -5 19q0 16 15 25.5t36 10.5q3 0 7 0.5t7 0.5q9 0 30 -1t30 -1h17q70 9 73 9q1 0 18 3.5t25 3.5q33 0 33 -45q0 -13 -8 -20.5t-16.5 -10t-24 -4.5t-21.5 -4t-22 -4q-2 -6 -4 -22v-23
q0 -4 -0.5 -5.5l-1 -3t-0.5 -5.5q-13 -136 -127 -220q-20 -16 -64 -16q-53 0 -100 43q-58 52 -74 186q-2 24 -2 37q0 39 1 57q1 45 30 118q63 149 177 192q21 8 56 8h19q50 -1 78 -41q17 -23 17 -43q0 -22 -23 -49q-7 -7 -27 -7q-14 0 -26 4q-32 14 -66 14q-22 0 -40.5 -11
t-26.5 -20.5t-22 -29.5q-14 -17 -22.5 -33.5t-12 -27t-12.5 -42.5q-6 -23 -15 -92q-3 -19 -3 -42v-9q4 -30 8.5 -50t15 -42t29 -33.5t45.5 -11.5z" />
    <glyph glyph-name="gdotaccent" unicode="&#x121;" horiz-adv-x="578" 
d="M323 792v-17q0 -43 -34 -66q-16 -9 -32 -9h-7q-18 3 -38 10q-2 1 -15 11q-15 11 -18 34q0 2 -0.5 6.5t-0.5 6.5v4q0 22 11.5 42.5t26.5 31.5q12 12 32 12q0 -1 1 -1h3q22 0 35 -9q36 -23 36 -56zM173 28q-33 3 -78 41l-15 12q-23 23 -36 64q-16 34 -16 62q0 73 11 119
l6 27q6 38 17 58q8 24 20 49t20 39t27 44t24 38q17 30 48 58q1 1 5.5 6t6.5 6.5t6 5.5t7 5.5t7.5 4.5t8 4.5t9 3t11 2t11.5 0.5h2q50 -5 60 -19q12 -16 13 -26v-20q0 -16 -8 -29t-14 -17.5t-21 -15.5q-31 -22 -48 -42q-3 -3 -23 -26t-26 -30.5t-22 -28.5t-23 -35t-15 -34.5
t-11 -39.5q-2 -13 -2 -39v-13q0 -42 15 -89q14 -35 25 -45q2 -1 7 -4.5t8 -5.5q18 -7 47 -7l12 3q35 9 68 32q8 7 19 14q28 20 38 80q1 5 1 15q0 11 -2 33v42q-5 -1 -16 -1l-36 3q-2 0 -7 0.5t-7 0.5q-12 1 -18.5 3t-12.5 8t-6 17q0 8 10 38q5 18 23 14h4q24 -4 39 -4
q32 -5 43 -5q49 8 60 9l21 6l12 3q22 6 25 6h2q36 0 54 -27q4 -7 4 -15q0 -13 -13 -24t-27 -14q-38 -8 -50 -13q-1 -1 -2 -1t-2 -1q-4 -14 -5 -21q0 -1 -0.5 -2.5t-0.5 -2.5q-1 -6 -4 -18.5t-4 -18.5q-1 -5 -2 -15.5t-1 -15.5q-6 -39 -27 -82t-46 -62q-7 -4 -24.5 -14.5
t-23.5 -14t-20.5 -11.5t-21.5 -10.5t-19.5 -7.5t-22 -6.5t-22 -3t-25.5 -1.5q-11 0 -31 2z" />
    <glyph glyph-name="uni0122" unicode="&#x122;" horiz-adv-x="520" 
d="M166 -256q-10 0 -16.5 6.5t-6.5 16.5q0 5 2.5 10.5t6.5 11.5t5 8q9 22 19 67q1 9 1.5 25t0.5 21q0 45 23 59l15 6q4 2 8 2q24 0 34 -10q6 -5 8 -20v-4q0 -3 -0.5 -8t-0.5 -7q-2 -32 -9 -62q-8 -35 -47 -91q-21 -31 -43 -31zM214 73q59 0 86.5 44.5t27.5 113.5q1 4 1 9
q0 6 -1 10q0 15 -1 16q-4 2 -10 2q-4 0 -13 -1t-12 -1h-3q-7 1 -19.5 1.5t-20.5 2t-15 5.5q-4 2 -8 8.5t-8 16t-5 11.5q-5 7 -5 19q0 16 15 25.5t36 10.5q3 0 7 0.5t7 0.5q9 0 30 -1t30 -1h17q70 9 73 9q1 0 18 3.5t25 3.5q33 0 33 -45q0 -13 -8 -20.5t-16.5 -10t-24 -4.5
t-21.5 -4t-22 -4q-2 -6 -4 -22v-23q0 -4 -0.5 -5.5l-1 -3t-0.5 -5.5q-13 -136 -127 -220q-20 -16 -64 -16q-53 0 -100 43q-58 52 -74 186q-2 24 -2 37q0 39 1 57q1 45 30 118q63 149 177 192q21 8 56 8h19q50 -1 78 -41q17 -23 17 -43q0 -22 -23 -49q-7 -7 -27 -7
q-14 0 -26 4q-32 14 -66 14q-22 0 -40.5 -11t-26.5 -20.5t-22 -29.5q-14 -17 -22.5 -33.5t-12 -27t-12.5 -42.5q-6 -23 -15 -92q-3 -19 -3 -42v-9q4 -30 8.5 -50t15 -42t29 -33.5t45.5 -11.5z" />
    <glyph glyph-name="uni0123" unicode="&#x123;" horiz-adv-x="592" 
d="M157 -256q-10 0 -16.5 6.5t-6.5 16.5q0 4 13 30q11 28 20 67q1 9 1.5 25t0.5 21q0 45 22 59l16 6q4 2 8 2q24 0 34 -10q6 -5 8 -20v-4q0 -3 -0.5 -8t-0.5 -7q-2 -32 -9 -62q-8 -35 -47 -91q-21 -31 -43 -31zM173 28q-33 3 -78 41l-15 12q-23 23 -36 64q-16 34 -16 62
q0 73 11 119l6 27q6 38 17 58q8 24 20 49t20 39t27 44t24 38q17 30 48 58q1 1 5.5 6t6.5 6.5t6 5.5t7 5.5t7.5 4.5t8 4.5t9 3t11 2t11.5 0.5h2q50 -5 60 -19q12 -16 13 -26v-20q0 -16 -8 -29t-14 -17.5t-21 -15.5q-31 -22 -48 -42q-3 -3 -23 -26t-26 -30.5t-22 -28.5
t-23 -35t-15 -34.5t-11 -39.5q-2 -13 -2 -39v-13q0 -42 15 -89q14 -35 25 -45q2 -1 7 -4.5t8 -5.5q18 -7 47 -7l12 3q35 9 68 32q8 7 19 14q28 20 38 80q1 5 1 15q0 11 -2 33v42q-5 -1 -16 -1l-36 3q-2 0 -7 0.5t-7 0.5q-12 1 -18.5 3t-12.5 8t-6 17q0 8 10 38q5 18 23 14h4
q24 -4 39 -4q32 -5 43 -5q37 6 74 9l21 6l13 3q22 6 24 6h2q37 0 55 -27q4 -7 4 -15q0 -13 -13 -24t-27 -14q-8 -2 -29.5 -5t-35.5 -8q-1 -1 -2 -1t-2 -1q-4 -14 -5 -21q0 -1 -0.5 -2.5t-0.5 -2.5q-1 -6 -4 -18.5t-4 -18.5q-1 -5 -2 -15.5t-1 -15.5q-6 -39 -27 -82t-46 -62
q-7 -4 -24.5 -14.5t-23.5 -14t-20.5 -11.5t-21.5 -10.5t-19.5 -7.5t-22 -6.5t-22 -3t-25.5 -1.5q-11 0 -31 2z" />
    <glyph glyph-name="Hcircumflex" unicode="&#x124;" horiz-adv-x="473" 
d="M250 799q24 13 39 13q0 1 1 1q25 -1 52 -30q36 -38 44 -56q3 -6 3 -12q0 -11 -8 -18t-20 -7q-15 0 -34 13q-4 3 -17.5 13t-21.5 15l-1 1h-2h-14q-21 -7 -45 -26q-16 -14 -20 -15q-10 -5 -15 -5h-8q-9 0 -18 11t-13 22q-1 3 -1 9q0 22 25 37q11 7 32.5 15.5t29.5 12.5
q1 1 3.5 2t4.5 2l1 1h1h1zM84 11q-39 6 -42 50v14q0 5 0.5 14.5t0.5 14.5q0 19 4.5 58t4.5 59q1 21 2 61.5t2 60.5q2 30 9 90t9 90q1 8 2 24.5t2 25.5t3 22t5 23t8 19q13 32 42 32l1 -1h1q12 0 30 -15q19 -16 19 -48q0 -18 -1 -27q-1 -5 -3.5 -15.5t-3.5 -15.5l-3 -28
q0 -4 -2 -12l-3 -12l-3 -51q0 -5 -0.5 -15t-0.5 -15q0 -3 0.5 -9t0.5 -9q0 -2 1 -6.5t2 -6.5q3 0 11 0.5t11 0.5h25h13h8q5 0 14.5 2t14.5 3q31 3 48 20v1h1q13 27 18 92t8 80q4 31 18 47q21 24 39 24q8 0 15 -4q17 -11 17 -37v-13q-1 -9 -2 -40.5t-3 -48.5q-2 -20 -2 -30
q-5 -192 -16 -305q-2 -20 -2 -30q-1 -3 -1 -9v-9v-14q0 -3 -2 -9q0 -5 -1 -8q-4 -52 -38 -52q-4 0 -12 2q-46 15 -46 123q0 5 0.5 15t0.5 15t-0.5 14.5t-0.5 14.5v10q0 17 -1 26q-6 -1 -18 -1h-35q-39 0 -69 -11q-15 -7 -16 -10q-1 0 -1 -1q-3 -7 -7 -30l-6 -28
q-2 -15 -4.5 -48.5t-6.5 -58t-12 -41.5q-11 -19 -17 -21q-8 -4 -18 -4h-5q-1 0 -3 0.5t-4 0.5z" />
    </font>
</defs>
</svg>
